<?xml version="1.0" encoding="utf-8"?>
<!-- Generator: Adobe Illustrator 24.0.2, SVG Export Plug-In . SVG Version: 6.00 Build 0)  -->
<svg version="1.1" id="Слой_1" xmlns="http://www.w3.org/2000/svg" xmlns:xlink="http://www.w3.org/1999/xlink" x="0px" y="0px"
	 viewBox="0 0 300 300" style="enable-background:new 0 0 300 300;" xml:space="preserve">
<style type="text/css">
	.st0{fill:url(#SVGID_1_);}
	.st1{fill:url(#SVGID_2_);}
	.st2{fill:url(#SVGID_3_);}
	.st3{fill:url(#SVGID_4_);}
	.st4{fill:url(#SVGID_5_);}
	.st5{fill:url(#SVGID_6_);}
	.st6{fill:url(#SVGID_7_);}
	.st7{fill:url(#SVGID_8_);}
	.st8{fill:url(#SVGID_9_);}
	.st9{fill:url(#SVGID_10_);}
	.st10{fill:url(#SVGID_11_);}
	.st11{fill:url(#SVGID_12_);}
	.st12{fill:url(#SVGID_13_);}
	.st13{fill:url(#SVGID_14_);}
	.st14{fill:url(#SVGID_15_);}
	.st15{fill:url(#SVGID_16_);}
	.st16{fill:url(#SVGID_17_);}
	.st17{fill:url(#SVGID_18_);}
	.st18{fill:url(#SVGID_19_);}
	.st19{fill:url(#SVGID_20_);}
	.st20{fill:url(#SVGID_21_);}
	.st21{fill:url(#SVGID_22_);}
	.st22{fill:url(#SVGID_23_);}
	.st23{fill:url(#SVGID_24_);}
	.st24{fill:url(#SVGID_25_);}
	.st25{fill:url(#SVGID_26_);}
	.st26{fill:url(#SVGID_27_);}
	.st27{fill:url(#SVGID_28_);}
	.st28{fill:url(#SVGID_29_);}
	.st29{fill:url(#SVGID_30_);}
	.st30{fill:url(#SVGID_31_);}
	.st31{fill:url(#SVGID_32_);}
	.st32{fill:url(#SVGID_33_);}
	.st33{fill:url(#SVGID_34_);}
	.st34{fill:url(#SVGID_35_);}
	.st35{fill:url(#SVGID_36_);}
	.st36{fill:url(#SVGID_37_);}
	.st37{fill:url(#SVGID_38_);}
	.st38{fill:url(#SVGID_39_);}
	.st39{fill:url(#SVGID_40_);}
	.st40{fill:url(#SVGID_41_);}
	.st41{fill:url(#SVGID_42_);}
	.st42{fill:url(#SVGID_43_);}
	.st43{fill:url(#SVGID_44_);}
	.st44{fill:url(#SVGID_45_);}
	.st45{fill:url(#SVGID_46_);}
	.st46{fill:url(#SVGID_47_);}
	.st47{fill:url(#SVGID_48_);}
	.st48{fill:url(#SVGID_49_);}
	.st49{fill:url(#SVGID_50_);}
	.st50{fill:url(#SVGID_51_);}
	.st51{fill:url(#SVGID_52_);}
	.st52{fill:url(#SVGID_53_);}
	.st53{fill:url(#SVGID_54_);}
	.st54{fill:url(#SVGID_55_);}
	.st55{fill:url(#SVGID_56_);}
	.st56{fill:url(#SVGID_57_);}
	.st57{fill:url(#SVGID_58_);}
	.st58{fill:#8CC63D;}
	.st59{fill:#3888DA;}
	.st60{fill:url(#SVGID_59_);}
	.st61{fill:url(#SVGID_60_);}
	.st62{fill:url(#SVGID_61_);}
	.st63{fill:url(#SVGID_62_);}
	.st64{fill:url(#SVGID_63_);}
	.st65{fill:url(#SVGID_64_);}
	.st66{fill:none;}
	.st67{fill:#8CC1C1;}
	.st68{fill:#2A71B7;}
</style>
<linearGradient id="SVGID_1_" gradientUnits="userSpaceOnUse" x1="167.0771" y1="81.1552" x2="133.3961" y2="162.8713">
	<stop  offset="0" style="stop-color:#7ABCD8"/>
	<stop  offset="0.0334" style="stop-color:#74B7D8"/>
	<stop  offset="0.2228" style="stop-color:#539DD9"/>
	<stop  offset="0.3814" style="stop-color:#3F8EDA"/>
	<stop  offset="0.4888" style="stop-color:#3888DA"/>
	<stop  offset="0.6578" style="stop-color:#368CDB"/>
	<stop  offset="0.8408" style="stop-color:#3199DE"/>
	<stop  offset="1" style="stop-color:#29ABE2"/>
</linearGradient>
<path class="st0" d="M150,177.29c-38.65,0-70.47-29.24-74.55-66.8c-0.29,2.69-0.45,5.43-0.45,8.2c0,41.42,33.58,75,75,75
	s75-33.58,75-75c0-2.77-0.16-5.51-0.45-8.2C220.47,148.06,188.65,177.29,150,177.29z"/>
<linearGradient id="SVGID_2_" gradientUnits="userSpaceOnUse" x1="163.0542" y1="85.056" x2="126.8294" y2="172.9204">
	<stop  offset="0" style="stop-color:#7ABCD8"/>
	<stop  offset="0.0334" style="stop-color:#74B7D8"/>
	<stop  offset="0.2228" style="stop-color:#539DD9"/>
	<stop  offset="0.3814" style="stop-color:#3F8EDA"/>
	<stop  offset="0.4888" style="stop-color:#3888DA"/>
	<stop  offset="0.6578" style="stop-color:#368CDB"/>
	<stop  offset="0.8408" style="stop-color:#3199DE"/>
	<stop  offset="1" style="stop-color:#29ABE2"/>
</linearGradient>
<path class="st1" d="M160.61,58.47l-1.31,7.42l-4.88,29.59l-29.55-5.1l5.1-29.55l11.14,1.92l18.2,3.14L160.61,58.47l-36.93-6.37
	l-13.94,80.81l12.82,2.21l0.05-7.39l-4.07-0.7l5.1-29.55l29.55,5.1l-5.1,29.55l-25.49-4.4l-0.05,7.39l67.99,11.73l13.94-80.81
	L160.61,58.47z M184.15,138.3l-29.29-5.11l5.08-29.14l29.25,5.05L184.15,138.3z M190.77,101.75l-29.55-5.1l5.1-29.55l29.55,5.1
	L190.77,101.75z"/>
<linearGradient id="SVGID_3_" gradientUnits="userSpaceOnUse" x1="124.6976" y1="69.2423" x2="88.4728" y2="157.1067">
	<stop  offset="0" style="stop-color:#7ABCD8"/>
	<stop  offset="0.0334" style="stop-color:#74B7D8"/>
	<stop  offset="0.2228" style="stop-color:#539DD9"/>
	<stop  offset="0.3814" style="stop-color:#3F8EDA"/>
	<stop  offset="0.4888" style="stop-color:#3888DA"/>
	<stop  offset="0.6578" style="stop-color:#368CDB"/>
	<stop  offset="0.8408" style="stop-color:#3199DE"/>
	<stop  offset="1" style="stop-color:#29ABE2"/>
</linearGradient>
<path class="st2" d="M130,31.4c-13.8,0-24.99,11.19-24.99,24.99S116.2,81.37,130,81.37c13.8,0,24.99-11.19,24.99-24.99
	S143.8,31.4,130,31.4z M130,77.75c-11.09,0-21.37-10.28-21.37-21.37S118.91,35.02,130,35.02c11.09,0,21.37,10.28,21.37,21.37
	S141.09,77.75,130,77.75z"/>
<linearGradient id="SVGID_4_" gradientUnits="userSpaceOnUse" x1="144.1266" y1="77.2525" x2="107.9019" y2="165.1169">
	<stop  offset="0" style="stop-color:#7ABCD8"/>
	<stop  offset="0.0334" style="stop-color:#74B7D8"/>
	<stop  offset="0.2228" style="stop-color:#539DD9"/>
	<stop  offset="0.3814" style="stop-color:#3F8EDA"/>
	<stop  offset="0.4888" style="stop-color:#3888DA"/>
	<stop  offset="0.6578" style="stop-color:#368CDB"/>
	<stop  offset="0.8408" style="stop-color:#3199DE"/>
	<stop  offset="1" style="stop-color:#29ABE2"/>
</linearGradient>
<path class="st3" d="M139.82,149.8c-21.91-5.39-38.65-29.44-38.65-52.93c0-27.64,25.62-52.85,53.38-52.85
	c14.33,0,26.17,6.2,38.32,14.76l2.28-1.72c-10.36-10.08-24.53-16.3-40.16-16.3c-31.73,0-57.45,25.62-57.45,57.22
	c0,26.12,17.58,48.16,41.6,55.01L139.82,149.8z"/>
<linearGradient id="SVGID_5_" gradientUnits="userSpaceOnUse" x1="118.7326" y1="66.7831" x2="82.5078" y2="154.6474">
	<stop  offset="0" style="stop-color:#7ABCD8"/>
	<stop  offset="0.0334" style="stop-color:#74B7D8"/>
	<stop  offset="0.2228" style="stop-color:#539DD9"/>
	<stop  offset="0.3814" style="stop-color:#3F8EDA"/>
	<stop  offset="0.4888" style="stop-color:#3888DA"/>
	<stop  offset="0.6578" style="stop-color:#368CDB"/>
	<stop  offset="0.8408" style="stop-color:#3199DE"/>
	<stop  offset="1" style="stop-color:#29ABE2"/>
</linearGradient>
<path class="st4" d="M107.2,142.97l1.91-2.39c-10.46-9.17-18.09-25.01-18.09-39.98c0-5.47,0.83-10.63,2.46-15.55l-2.79-0.71
	c-1.53,5.15-2.36,10.61-2.36,16.25C88.34,117.39,95.61,132.5,107.2,142.97z"/>
<g>
	<path class="st59" d="M72.58,236.88c-0.78,0.33-1.93,0.48-3.41,0.48c-6.34,0-7.27-5.64-7.27-8.53c0-6.05,1.85-10.83,4.79-13.76
		c2.15-2.23,4.86-3.15,7.42-3.15c1.26,0,2.56,0.3,2.86,0.52l-1.3,4.08c-0.48-0.22-1.15-0.37-2.15-0.37c-1.3,0-2.75,0.78-3.75,2.08
		c-1.71,2.15-2.93,5.56-2.93,9.57c0,3.23,0.89,5.38,3.38,5.38c0.89,0,1.93-0.15,2.56-0.41L72.58,236.88z"/>
	<path class="st59" d="M79.91,237.43c-4.56,0-5.56-3.6-5.56-6.27c0-6.12,3.38-12.46,8.87-12.46c4.6,0,5.27,3.82,5.27,6.34
		c0,5.71-3.04,12.39-8.53,12.39H79.91z M80.43,233.91c2.23,0,3.49-6.16,3.49-9.42c0-1.22-0.33-2.26-1.45-2.26
		c-2,0-3.56,5.6-3.52,8.72c0,1.33,0.04,2.97,1.45,2.97H80.43z"/>
	<path class="st59" d="M98.45,218.7c2.6,0,5.08,1.11,5.08,4.12c0,2.67-1.93,3.93-3.82,4.71v0.11c1.41,0.15,2.97,1.3,2.97,3.6
		c0,4.23-3.82,6.12-7.86,6.12c-4.15,0-5.34-2.3-5.34-5.38c0-3.56,1.37-9.72,4.64-11.98c1.19-0.82,2.6-1.3,4.3-1.3H98.45z
		 M96.22,229.16c-0.67,0-1.45,0.22-2.19,0.56c-0.11,0.45-0.3,1.48-0.3,2.23c0,0.96,0.37,1.97,1.74,1.97c1.48,0,2.67-1.08,2.67-2.71
		c0-1.45-0.85-2-1.89-2.04H96.22z M97.78,222.07c-1.89,0-2.86,2.78-3.19,4.34c1.34-0.3,2.63-0.63,3.52-1.19
		c0.67-0.45,1.19-1,1.19-1.74c0-0.82-0.52-1.41-1.48-1.41H97.78z"/>
	<path class="st59" d="M102.44,244.26l3.67-19.29c0.41-2.15,0.7-4.19,0.96-5.97h3.97l-0.3,2.63h0.07c1.11-1.82,2.86-2.93,4.53-2.93
		c3.26,0,3.9,2.82,3.9,5.6c0,6.08-3.26,13.13-8.57,13.13c-0.82,0-1.71-0.15-2.23-0.45h-0.11l-1.34,7.27H102.44z M109.01,233.54
		c0.37,0.26,0.74,0.44,1.3,0.44c2.82,0,4.19-6.16,4.19-8.87c0-1.22-0.11-2.49-1.34-2.49c-1.19,0-2.45,1.89-2.89,4.08L109.01,233.54z
		"/>
	<path class="st59" d="M131.55,236.36c-1.6,0.67-3.15,1-5.23,1c-4.45,0-6.16-2.93-6.16-6.83c0-5.27,2.93-11.83,8.72-11.83
		c3.3,0,4.82,2.45,4.82,4.93c0,4.97-4.01,6.83-9.05,6.68c-0.04,0.52,0,1.45,0.41,2.11c0.45,0.74,1.26,1.3,2.52,1.3
		c1.52,0,2.6-0.37,3.67-0.89L131.55,236.36z M129.58,224.04c0-1-0.41-1.63-1.3-1.63c-1.41,0-2.67,1.82-3.19,4.41
		c2.45,0.11,4.49-0.85,4.49-2.75V224.04z"/>
	<path class="st59" d="M143.14,219l0.26,6.68c0.11,1.67,0.19,3.63,0.15,5.04h0.07c0.59-1.48,1.52-3.52,2.23-5.08l3-6.64h5.23
		l-2.08,18.14h-4.27l0.93-6.34c0.26-1.71,0.59-4.04,1.08-6.53h-0.15c-0.93,2.45-1.67,4.16-2.52,6.05l-2.97,6.53h-3.78l-0.26-6.34
		c-0.07-1.41-0.15-3.75-0.22-6.23h-0.07c-0.45,2.52-1,4.79-1.45,6.57l-1.6,6.31h-3.75l4.9-18.14H143.14z"/>
	<path class="st59" d="M166.61,236.36c-1.59,0.67-3.15,1-5.23,1c-4.45,0-6.16-2.93-6.16-6.83c0-5.27,2.93-11.83,8.72-11.83
		c3.3,0,4.82,2.45,4.82,4.93c0,4.97-4.01,6.83-9.05,6.68c-0.04,0.52,0,1.45,0.41,2.11c0.45,0.74,1.26,1.3,2.52,1.3
		c1.52,0,2.6-0.37,3.67-0.89L166.61,236.36z M164.64,224.04c0-1-0.41-1.63-1.3-1.63c-1.41,0-2.67,1.82-3.19,4.41
		c2.45,0.11,4.49-0.85,4.49-2.75V224.04z"/>
	<path class="st59" d="M176.62,219l-1.37,7.01h3.78l1.37-7.01h4.64l-3.49,18.14h-4.64l1.45-7.6h-3.71l-1.45,7.6h-4.64l3.38-18.14
		H176.62z"/>
	<path class="st59" d="M192.8,219l-1.37,7.01h3.78l1.37-7.01h4.64l-3.49,18.14h-4.64l1.45-7.6h-3.71l-1.45,7.6h-4.64l3.38-18.14
		H192.8z"/>
	<path class="st59" d="M209.15,219l-1.78,6.86h0.04c1.08-1,2.45-1.48,3.93-1.48c2.49,0,4.04,1.74,4.04,4.64
		c0,3.78-2.75,8.35-8.5,8.35c-2.37,0-5.27-0.56-5.27-4.04c0-1,0.22-2.37,0.45-3.38l2.52-10.94H209.15z M207.71,233.72
		c1.63,0,3.04-1.63,3.04-3.71c0-1.22-0.63-1.93-1.52-1.93c-1.33,0-2.34,1.37-2.71,2.49c-0.11,0.48-0.26,1.08-0.26,1.56
		c0,0.89,0.48,1.59,1.41,1.59H207.71z M223.54,219l-3.49,18.14h-4.64l3.49-18.14H223.54z"/>
	<path class="st59" d="M231.16,219l-1.97,10.31c-0.19,1.11-0.33,2.04-0.33,2.89c0,0.89,0.33,1.45,1.11,1.45
		c1.19,0,2.37-1.56,2.89-4.15l1.93-10.5h4.64l-2.3,12.2c-0.44,2.15-0.7,4.19-0.93,5.93h-4.01l0.15-2.49h-0.07
		c-1.33,1.93-3,2.78-4.71,2.78c-2.41,0-3.45-1.82-3.45-4.19c0-1.15,0.19-2.37,0.45-3.75l1.97-10.5H231.16z M232.57,212.13
		c-0.07,1.52,0.37,2.37,1.52,2.37c1.19,0,1.78-1.08,2-2.37h2.89c-0.48,2.89-2.19,4.49-5.08,4.49c-2.86,0-4.19-1.74-4.15-4.49H232.57
		z"/>
	<path class="st59" d="M108.61,255.68c0.78,0.19,1.63,0.3,2.37,0.33c1.78,0.19,3.56,0.48,4.97,1.37c2.82,1.48,3.49,4.86,3.49,8.38
		c0,5.86-2.34,16.17-9.87,16.17c-3.49,0-5.08-2.82-5.08-6.34c0-5.04,3.41-12.09,8.42-12.09c1.52,0,2.26,0.82,2.75,2.26h0.11
		c0-0.26,0.04-0.52,0.07-0.85c0.04-1.11-0.3-2.89-1.74-3.93c-0.93-0.74-2.11-0.96-3.38-1.11c-0.67-0.07-1.48-0.11-2.23-0.33
		L108.61,255.68z M110.42,278.31c2.49,0,4.01-6.19,4.04-8.35c0-1.3-0.3-2.78-1.37-2.78c-2.34,0-4.04,5.16-4.04,8.5
		c0,1.41,0.26,2.63,1.33,2.63H110.42z"/>
	<path class="st59" d="M127.46,263.51l-1.97,10.31c-0.19,1.11-0.33,2.04-0.33,2.89c0,0.89,0.33,1.45,1.11,1.45
		c1.19,0,2.37-1.56,2.89-4.15l1.93-10.5h4.64l-2.3,12.2c-0.44,2.15-0.7,4.19-0.93,5.93h-4.01l0.15-2.49h-0.07
		c-1.33,1.93-3,2.78-4.71,2.78c-2.41,0-3.45-1.82-3.45-4.19c0-1.15,0.19-2.37,0.45-3.75l1.97-10.5H127.46z"/>
	<path class="st59" d="M138.72,270.63h0.56c1.89,0,4.15-0.74,4.15-2.37c0-1-0.74-1.74-2.08-1.74c-1.11,0-2.23,0.41-3.12,0.93
		l-1.04-2.82c1.56-0.89,3.41-1.41,5.3-1.41c2.89,0,5.3,1.33,5.3,4.34c0,2.23-1.67,3.75-3.89,4.38v0.04
		c1.78,0.37,3.26,1.82,3.26,4.04c0,4.12-3.71,5.86-7.72,5.86c-2,0-3.89-0.48-4.97-1.19l1.15-3.15c0.63,0.45,2,0.89,3.56,0.89
		c1.74,0,3.41-0.82,3.41-2.49c0-1.33-1.34-2.26-3.41-2.26h-0.85L138.72,270.63z"/>
	<path class="st59" d="M157.35,281.65c0.04-0.96,0.11-1.97,0.15-3.04h-0.11c-1.45,2.41-3.19,3.34-4.64,3.34
		c-2.63,0-3.93-2.26-3.93-5.45c0-5.49,2.75-13.28,10.54-13.28c1.82,0,3.63,0.3,4.75,0.74l-2,10.09c-0.44,2.11-0.78,5.64-0.74,7.6
		H157.35z M159.02,266.77c-0.37-0.07-0.71-0.11-0.96-0.11c-3.04,0-4.67,6.05-4.71,8.72c0,1.59,0.22,2.74,1.37,2.74
		c1.26,0,2.45-2.08,3.12-5.38L159.02,266.77z"/>
	<path class="st59" d="M171.7,263.51l-1.97,10.31c-0.19,1.11-0.33,2.04-0.33,2.89c0,0.89,0.33,1.45,1.11,1.45
		c1.19,0,2.37-1.56,2.89-4.15l1.93-10.5h4.64l-2.3,12.2c-0.45,2.15-0.71,4.19-0.93,5.93h-4.01l0.15-2.49h-0.07
		c-1.33,1.93-3,2.78-4.71,2.78c-2.41,0-3.45-1.82-3.45-4.19c0-1.15,0.19-2.37,0.45-3.75l1.97-10.5H171.7z M173.11,256.65
		c-0.07,1.52,0.37,2.37,1.52,2.37c1.19,0,1.78-1.08,2-2.37h2.89c-0.48,2.89-2.19,4.49-5.08,4.49c-2.86,0-4.19-1.74-4.15-4.49H173.11
		z"/>
	<path class="st59" d="M187.79,263.51l-1.37,7.01h3.78l1.37-7.01h4.64l-3.49,18.14h-4.64l1.45-7.6h-3.71l-1.45,7.6h-4.64l3.38-18.14
		H187.79z"/>
</g>
</svg>
