<?xml version="1.0" encoding="utf-8"?>
<!-- Generator: Adobe Illustrator 24.0.2, SVG Export Plug-In . SVG Version: 6.00 Build 0)  -->
<svg version="1.1" id="Слой_1" xmlns="http://www.w3.org/2000/svg" xmlns:xlink="http://www.w3.org/1999/xlink" x="0px" y="0px"
	 viewBox="0 0 300 300" style="enable-background:new 0 0 300 300;" xml:space="preserve">
<style type="text/css">
	.st0{fill:url(#SVGID_1_);}
	.st1{fill:url(#SVGID_2_);}
	.st2{fill:url(#SVGID_3_);}
	.st3{fill:url(#SVGID_4_);}
	.st4{fill:url(#SVGID_5_);}
	.st5{fill:url(#SVGID_6_);}
	.st6{fill:url(#SVGID_7_);}
	.st7{fill:url(#SVGID_8_);}
	.st8{fill:url(#SVGID_9_);}
	.st9{fill:url(#SVGID_10_);}
	.st10{fill:url(#SVGID_11_);}
	.st11{fill:url(#SVGID_12_);}
	.st12{fill:url(#SVGID_13_);}
	.st13{fill:url(#SVGID_14_);}
	.st14{fill:url(#SVGID_15_);}
	.st15{fill:url(#SVGID_16_);}
	.st16{fill:url(#SVGID_17_);}
	.st17{fill:url(#SVGID_18_);}
	.st18{fill:url(#SVGID_19_);}
	.st19{fill:url(#SVGID_20_);}
	.st20{fill:url(#SVGID_21_);}
	.st21{fill:url(#SVGID_22_);}
	.st22{fill:url(#SVGID_23_);}
	.st23{fill:url(#SVGID_24_);}
	.st24{fill:url(#SVGID_25_);}
	.st25{fill:url(#SVGID_26_);}
	.st26{fill:url(#SVGID_27_);}
	.st27{fill:url(#SVGID_28_);}
	.st28{fill:url(#SVGID_29_);}
	.st29{fill:url(#SVGID_30_);}
	.st30{fill:url(#SVGID_31_);}
	.st31{fill:url(#SVGID_32_);}
	.st32{fill:url(#SVGID_33_);}
	.st33{fill:url(#SVGID_34_);}
	.st34{fill:url(#SVGID_35_);}
	.st35{fill:url(#SVGID_36_);}
	.st36{fill:url(#SVGID_37_);}
	.st37{fill:url(#SVGID_38_);}
	.st38{fill:url(#SVGID_39_);}
	.st39{fill:url(#SVGID_40_);}
	.st40{fill:url(#SVGID_41_);}
	.st41{fill:url(#SVGID_42_);}
	.st42{fill:url(#SVGID_43_);}
	.st43{fill:url(#SVGID_44_);}
	.st44{fill:url(#SVGID_45_);}
	.st45{fill:url(#SVGID_46_);}
	.st46{fill:url(#SVGID_47_);}
	.st47{fill:url(#SVGID_48_);}
	.st48{fill:url(#SVGID_49_);}
	.st49{fill:url(#SVGID_50_);}
	.st50{fill:url(#SVGID_51_);}
	.st51{fill:url(#SVGID_52_);}
	.st52{fill:url(#SVGID_53_);}
	.st53{fill:url(#SVGID_54_);}
	.st54{fill:url(#SVGID_55_);}
	.st55{fill:url(#SVGID_56_);}
	.st56{fill:url(#SVGID_57_);}
	.st57{fill:url(#SVGID_58_);}
	.st58{fill:#8CC63D;}
	.st59{fill:#3888DA;}
	.st60{fill:url(#SVGID_59_);}
	.st61{fill:url(#SVGID_60_);}
	.st62{fill:url(#SVGID_61_);}
	.st63{fill:url(#SVGID_62_);}
	.st64{fill:url(#SVGID_63_);}
	.st65{fill:url(#SVGID_64_);}
	.st66{fill:none;}
	.st67{fill:#8CC1C1;}
	.st68{fill:#2A71B7;}
</style>
<linearGradient id="SVGID_1_" gradientUnits="userSpaceOnUse" x1="165.0871" y1="86.2278" x2="122.7843" y2="188.8621">
	<stop  offset="0" style="stop-color:#7ABCD8"/>
	<stop  offset="0.1171" style="stop-color:#76B9D8"/>
	<stop  offset="0.2402" style="stop-color:#69AFD9"/>
	<stop  offset="0.3655" style="stop-color:#549ED9"/>
	<stop  offset="0.4888" style="stop-color:#3888DA"/>
	<stop  offset="0.6578" style="stop-color:#368CDB"/>
	<stop  offset="0.8408" style="stop-color:#3199DE"/>
	<stop  offset="1" style="stop-color:#29ABE2"/>
</linearGradient>
<path class="st0" d="M150,177.54c-38.65,0-70.47-29.24-74.55-66.8c-0.29,2.69-0.45,5.43-0.45,8.2c0,41.42,33.58,75,75,75
	s75-33.58,75-75c0-2.77-0.16-5.51-0.45-8.2C220.47,148.3,188.65,177.54,150,177.54z"/>
<linearGradient id="SVGID_2_" gradientUnits="userSpaceOnUse" x1="166.3404" y1="41.5606" x2="127.042" y2="136.9058">
	<stop  offset="0" style="stop-color:#7ABCD8"/>
	<stop  offset="0.1171" style="stop-color:#76B9D8"/>
	<stop  offset="0.2402" style="stop-color:#69AFD9"/>
	<stop  offset="0.3655" style="stop-color:#549ED9"/>
	<stop  offset="0.4888" style="stop-color:#3888DA"/>
	<stop  offset="0.6578" style="stop-color:#368CDB"/>
	<stop  offset="0.8408" style="stop-color:#3199DE"/>
	<stop  offset="1" style="stop-color:#29ABE2"/>
</linearGradient>
<path class="st1" d="M211.01,76.29L211.01,76.29c-0.69-0.19-1.17-0.82-1.16-1.53c0.01-0.13,0.01-0.27,0.01-0.4c0-0.13,0-0.26,0-0.4
	c-0.02-0.72,0.46-1.35,1.15-1.53h0c0.83-0.22,1.32-1.08,1.1-1.91L212,70.09c-0.19-0.69-0.81-1.15-1.5-1.15
	c-0.14,0-0.27,0.02-0.41,0.05c-0.69,0.19-1.43-0.12-1.76-0.75c-0.12-0.23-0.26-0.47-0.4-0.69c-0.38-0.61-0.28-1.4,0.23-1.9v0
	c0.61-0.61,0.61-1.59,0-2.2l-0.31-0.31c-0.6-0.6-1.59-0.61-2.2,0l0,0c-0.51,0.51-1.29,0.6-1.9,0.23c-0.22-0.14-0.46-0.28-0.69-0.4
	c-0.63-0.34-0.94-1.07-0.75-1.76v0c0.22-0.83-0.27-1.68-1.1-1.9l-0.43-0.11c-0.83-0.22-1.68,0.27-1.91,1.1v0.01
	c-0.19,0.69-0.82,1.17-1.53,1.15c-0.13,0-0.26,0-0.4,0c-0.13,0-0.26,0-0.4,0c-0.71,0.02-1.35-0.46-1.54-1.15v-0.01
	c-0.22-0.83-1.07-1.32-1.9-1.1l-0.43,0.12c-0.83,0.22-1.32,1.07-1.1,1.9v0c0.19,0.69-0.12,1.42-0.75,1.76
	c-0.23,0.12-0.46,0.26-0.69,0.4c-0.61,0.38-1.4,0.28-1.91-0.23v0c-0.61-0.6-1.59-0.6-2.2,0l-0.31,0.31c-0.61,0.61-0.61,1.59,0,2.2h0
	c0.51,0.51,0.6,1.3,0.22,1.91c-0.14,0.23-0.27,0.45-0.4,0.69c-0.27,0.51-0.8,0.81-1.36,0.81c-0.14,0-0.27-0.02-0.41-0.05
	c-0.83-0.22-1.68,0.27-1.91,1.1l-0.11,0.43c-0.22,0.83,0.27,1.68,1.1,1.91h0.01c0.65,0.18,1.1,0.75,1.13,1.42l-5.01,0.53
	c1.78-1.12,2.72-3.28,2.15-5.42l-0.37-1.36c-0.59-2.19-2.56-3.64-4.73-3.64c-0.43,0-0.85,0.05-1.28,0.17
	c-2.18,0.59-4.5-0.39-5.57-2.37c-0.39-0.74-0.82-1.47-1.26-2.18c-1.19-1.92-0.88-4.41,0.72-6.01v-0.01c1.92-1.91,1.92-5.02,0-6.94
	l-0.99-0.99c-1.91-1.91-5.02-1.92-6.94,0l-0.01,0.01c-1.6,1.6-4.09,1.91-6.01,0.72c-0.71-0.44-1.44-0.87-2.18-1.26
	c-1.98-1.08-2.96-3.39-2.38-5.57v-0.01c0.71-2.62-0.84-5.31-3.46-6.01l-1.35-0.35c-2.62-0.71-5.31,0.84-6.02,3.46v0.02
	c-0.59,2.18-2.58,3.7-4.85,3.62c-0.42-0.01-0.83-0.01-1.26-0.01c-0.42,0-0.83,0-1.25,0.01c-2.25,0.07-4.26-1.45-4.85-3.62v-0.02
	c-0.7-2.62-3.39-4.17-6.01-3.47l-1.36,0.37c-2.62,0.7-4.17,3.39-3.48,6.01v0.01c0.59,2.18-0.38,4.49-2.37,5.57
	c-0.73,0.39-1.46,0.82-2.16,1.26c-1.92,1.19-4.42,0.88-6.02-0.72v-0.01c-1.92-1.91-5.03-1.91-6.95,0l-0.99,0.99
	c-1.92,1.92-1.92,5.03,0,6.95h0.01c1.6,1.6,1.91,4.1,0.71,6.02c-0.44,0.71-0.86,1.43-1.25,2.17c-0.86,1.6-2.52,2.55-4.28,2.55
	c-0.43,0-0.86-0.06-1.29-0.17c-2.62-0.71-5.31,0.85-6.02,3.46l-0.36,1.36c-0.71,2.62,0.85,5.31,3.46,6.02h0.02
	c2.18,0.59,3.7,2.58,3.63,4.85c-0.01,0.42-0.02,0.83-0.02,1.25c0,0.42,0.01,0.85,0.02,1.26c0.07,2.25-1.46,4.26-3.63,4.85h-0.01
	c-2.62,0.7-4.17,3.39-3.48,6.01l0.36,1.35c0.6,2.19,2.58,3.65,4.75,3.65c0.43,0,0.84-0.06,1.27-0.17c2.19-0.59,4.5,0.38,5.57,2.37
	c0.4,0.73,0.82,1.46,1.26,2.17c1.19,1.92,0.88,4.42-0.72,6.02l-0.01,0.01c-1.92,1.92-1.92,5.03,0,6.94l0.99,1
	c0.95,0.96,2.21,1.43,3.48,1.43c1.25,0,2.51-0.48,3.48-1.44c1.6-1.6,4.1-1.92,6.02-0.72c0.71,0.44,1.43,0.86,2.16,1.26
	c2,1.06,2.96,3.38,2.37,5.56v0.01c-0.7,2.62,0.86,5.31,3.48,6.01l1.36,0.37c2.62,0.7,5.31-0.86,6.01-3.48v-0.01
	c0.59-2.19,2.6-3.71,4.85-3.64c0.41,0.01,0.83,0.03,1.25,0.03c0.43,0,0.84-0.01,1.26-0.03c2.26-0.07,4.26,1.44,4.85,3.64v0.01
	c0.17,0.61,0.45,1.16,0.81,1.65c-0.23,0.8-0.74,1.51-1.48,1.98l-0.01,0.01c-1.64,1.04-2.13,3.21-1.09,4.85l0.54,0.86
	c0.52,0.82,1.32,1.35,2.2,1.55c0.87,0.2,1.83,0.06,2.65-0.46c1.37-0.87,3.16-0.7,4.32,0.44c0.43,0.42,0.87,0.82,1.31,1.22
	c1.23,1.06,1.54,2.82,0.79,4.25l0,0.01c-0.9,1.72-0.23,3.84,1.49,4.74l0.89,0.47c1.72,0.9,3.84,0.23,4.74-1.49l0-0.01
	c0.75-1.44,2.39-2.18,3.95-1.78c0.29,0.07,0.58,0.15,0.87,0.21c0.3,0.07,0.59,0.12,0.89,0.18c1.59,0.3,2.75,1.68,2.82,3.3l0,0.01
	c0.09,1.94,1.72,3.45,3.66,3.37l1-0.04c1.94-0.09,3.45-1.72,3.36-3.66l0-0.01c-0.07-1.61,0.98-3.08,2.53-3.51
	c0.58-0.17,1.15-0.34,1.72-0.54c1.53-0.54,3.22,0.07,4.09,1.44l0,0.02c1.04,1.63,3.21,2.12,4.85,1.08l0.85-0.54
	c1.64-1.03,2.13-3.2,1.09-4.85l0-0.01c-0.87-1.36-0.69-3.15,0.44-4.31c0.42-0.43,0.82-0.88,1.22-1.32c0.85-0.99,2.17-1.38,3.39-1.11
	c0.3,0.07,0.59,0.18,0.87,0.32c1.72,0.9,3.84,0.23,4.74-1.48l0.47-0.88c0.9-1.73,0.24-3.85-1.48-4.75l-0.01,0
	c-1.43-0.75-2.18-2.39-1.78-3.95c0.08-0.29,0.15-0.59,0.21-0.88c0.07-0.29,0.13-0.58,0.19-0.87c0.3-1.59,1.67-2.75,3.29-2.82l0.01,0
	c1.94-0.09,3.45-1.72,3.37-3.66l-0.04-1.01c-0.07-1.62-1.22-2.94-2.73-3.28c-0.3-0.07-0.6-0.1-0.92-0.08
	c-1.61,0.07-3.08-0.98-3.52-2.53c-0.16-0.57-0.34-1.15-0.54-1.72c-0.53-1.53,0.08-3.22,1.44-4.08l0-0.01
	c1.64-1.03,2.13-3.2,1.09-4.85l-0.54-0.85c-1.03-1.63-3.2-2.13-4.85-1.09l-0.01,0.01c-1.37,0.87-3.15,0.69-4.31-0.44
	c-0.43-0.42-0.87-0.83-1.32-1.22c-0.24-0.21-0.43-0.44-0.6-0.7l4.81-6.77c0.47,0.38,0.69,0.99,0.53,1.59v0
	c-0.22,0.83,0.27,1.68,1.1,1.9l0.43,0.12c0.83,0.22,1.68-0.27,1.9-1.1v0c0.19-0.69,0.82-1.17,1.54-1.15c0.13,0,0.26,0.01,0.4,0.01
	c0.14,0,0.27,0,0.4-0.01c0.72-0.02,1.35,0.46,1.53,1.15v0c0.22,0.83,1.08,1.32,1.91,1.1l0.43-0.11c0.83-0.22,1.32-1.08,1.1-1.91v0
	c-0.19-0.69,0.12-1.42,0.75-1.76c0.23-0.13,0.47-0.26,0.69-0.4c0.61-0.38,1.4-0.28,1.9,0.22l0,0.01c0.61,0.6,1.59,0.6,2.2,0
	l0.31-0.31c0.61-0.6,0.61-1.59,0-2.2v0c-0.51-0.5-0.6-1.29-0.23-1.9c0.14-0.23,0.27-0.46,0.4-0.69c0.27-0.51,0.8-0.81,1.36-0.81
	c0.14,0,0.27,0.02,0.41,0.05c0.83,0.22,1.68-0.27,1.9-1.1l0.12-0.43C212.33,77.36,211.84,76.51,211.01,76.29z M189.16,82.02
	c-1.27-1.29-2.22-2.89-2.73-4.68l6.54-0.69L189.16,82.02z M170.43,108.38c-0.85-0.33-1.77-0.51-2.74-0.51
	c-1.51,0-2.91,0.44-4.09,1.2l-12.16-12.14c4.08-3.57,9.29-5.75,14.84-6.07c0,0.01,0,0.01-0.01,0.02c0.47-0.03,0.94-0.04,1.42-0.04
	c2.96,0,5.79,0.52,8.42,1.47c0.07,0.02,0.14,0.05,0.2,0.07c0.96,0.36,1.9,0.77,2.8,1.24c0.19,0.1,0.37,0.2,0.56,0.3
	c0.21,0.12,0.42,0.24,0.63,0.36c0.04,0.02,0.07,0.04,0.1,0.06L170.43,108.38z M141.83,87.32c1.14-1.56,1.86-3.44,2-5.48l23.82-2.51
	c0.01,0.3,0.02,0.6,0.02,0.9c-0.3-0.07-0.61-0.12-0.93-0.1l-1.01,0.04c-1.94,0.08-3.45,1.71-3.37,3.65l0,0.01
	c0.07,1.61-0.97,3.08-2.53,3.52c-0.57,0.16-1.14,0.35-1.71,0.54c-1.53,0.53-3.23-0.08-4.09-1.45l0-0.01
	c-1.04-1.63-3.21-2.12-4.85-1.09l-0.85,0.54c-1.64,1.04-2.13,3.21-1.09,4.85l0.01,0c0.48,0.76,0.63,1.65,0.48,2.49L141.83,87.32z
	 M184.55,84.38l-0.88-0.46c-1.72-0.91-3.84-0.24-4.75,1.48l0,0.02c-0.38,0.73-1,1.28-1.72,1.59c-1.93-0.73-3.23-2.59-3.18-4.68
	c0.02-0.42,0.02-0.85,0.02-1.26c0-0.42,0-0.83-0.01-1.25c-0.01-0.41,0.04-0.8,0.13-1.18l7.55-0.8c0,0.12,0.02,0.23,0.05,0.35
	l0.11,0.43c0.19,0.69,0.82,1.16,1.5,1.16c0.14,0,0.27-0.02,0.4-0.05c0.69-0.19,1.43,0.12,1.76,0.75c0.13,0.23,0.26,0.46,0.4,0.69
	c0.38,0.61,0.28,1.4-0.23,1.91l0,0c-0.61,0.61-0.61,1.59,0,2.2l0.31,0.32c0.12,0.12,0.27,0.2,0.42,0.28l-0.26,0.36
	C185.88,85.46,185.33,84.79,184.55,84.38z M98.74,81.07c0-19.04,15.44-34.48,34.48-34.48c17.19,0,31.43,12.57,34.05,29.02
	l-23.81,2.51c-1.28-4.45-5.37-7.71-10.23-7.71c-5.88,0-10.65,4.77-10.65,10.65c0,5.88,4.77,10.65,10.65,10.65
	c2.35,0,4.51-0.77,6.27-2.05l6.4,6.39c-0.09,0.11-0.2,0.21-0.29,0.31c-0.85,0.99-2.16,1.38-3.39,1.11c-0.3-0.07-0.59-0.18-0.87-0.32
	c-1.72-0.91-3.84-0.24-4.75,1.48l-0.46,0.89c-0.91,1.72-0.24,3.84,1.48,4.75l0.02,0c1.43,0.75,2.18,2.38,1.78,3.95
	c-0.07,0.29-0.15,0.58-0.21,0.87c-0.07,0.29-0.12,0.59-0.18,0.89c-0.3,1.58-1.68,2.75-3.3,2.82l-0.01,0
	c-1.62,0.06-2.92,1.22-3.27,2.73C113.75,115.11,98.74,99.85,98.74,81.07z M191.78,120.89c-2.98,13.3-16.18,21.66-29.48,18.68
	c-13.3-2.98-21.66-16.18-18.68-29.48c0.93-4.16,2.86-7.83,5.48-10.83l12.17,12.15c-0.75,1.18-1.19,2.58-1.19,4.08
	c0,4.21,3.41,7.63,7.63,7.63s7.63-3.41,7.63-7.63c0-1.88-0.68-3.59-1.81-4.92l9.98-14.04C190.37,102.27,193.87,111.55,191.78,120.89
	z M196.93,85.28c-1.68,0-3.26-0.39-4.68-1.07l4.61-6.49c0.02,0,0.05,0.01,0.07,0.01c1.86,0,3.37-1.51,3.37-3.37
	s-1.51-3.37-3.37-3.37c-1.3,0-2.41,0.74-2.97,1.81l-7.91,0.83c0.38-5.69,5.1-10.19,10.88-10.19c6.03,0,10.92,4.89,10.92,10.92
	S202.97,85.28,196.93,85.28z"/>
<g>
	<path class="st59" d="M76.31,236.88c-0.78,0.33-1.93,0.48-3.41,0.48c-6.34,0-7.27-5.64-7.27-8.53c0-6.05,1.85-10.83,4.79-13.76
		c2.15-2.23,4.86-3.15,7.42-3.15c1.26,0,2.56,0.3,2.86,0.52l-1.3,4.08c-0.48-0.22-1.15-0.37-2.15-0.37c-1.3,0-2.75,0.78-3.75,2.08
		c-1.71,2.15-2.93,5.56-2.93,9.57c0,3.23,0.89,5.38,3.38,5.38c0.89,0,1.93-0.15,2.56-0.41L76.31,236.88z"/>
	<path class="st59" d="M83.64,237.43c-4.56,0-5.56-3.6-5.56-6.27c0-6.12,3.38-12.46,8.87-12.46c4.6,0,5.27,3.82,5.27,6.34
		c0,5.71-3.04,12.39-8.53,12.39H83.64z M84.16,233.91c2.23,0,3.49-6.16,3.49-9.42c0-1.22-0.33-2.26-1.45-2.26
		c-2,0-3.56,5.6-3.52,8.72c0,1.33,0.04,2.97,1.45,2.97H84.16z"/>
	<path class="st59" d="M102.17,218.7c2.6,0,5.08,1.11,5.08,4.12c0,2.67-1.93,3.93-3.82,4.71v0.11c1.41,0.15,2.97,1.3,2.97,3.6
		c0,4.23-3.82,6.12-7.86,6.12c-4.15,0-5.34-2.3-5.34-5.38c0-3.56,1.37-9.72,4.64-11.98c1.19-0.82,2.6-1.3,4.3-1.3H102.17z
		 M99.95,229.16c-0.67,0-1.45,0.22-2.19,0.56c-0.11,0.45-0.3,1.48-0.3,2.23c0,0.96,0.37,1.97,1.74,1.97c1.48,0,2.67-1.08,2.67-2.71
		c0-1.45-0.85-2-1.89-2.04H99.95z M101.5,222.07c-1.89,0-2.86,2.78-3.19,4.34c1.34-0.3,2.63-0.63,3.52-1.19
		c0.67-0.45,1.19-1,1.19-1.74c0-0.82-0.52-1.41-1.48-1.41H101.5z"/>
	<path class="st59" d="M106.17,244.26l3.67-19.29c0.41-2.15,0.71-4.19,0.96-5.97h3.97l-0.3,2.63h0.07c1.11-1.82,2.86-2.93,4.53-2.93
		c3.26,0,3.9,2.82,3.9,5.6c0,6.08-3.26,13.13-8.57,13.13c-0.82,0-1.71-0.15-2.23-0.45h-0.11l-1.33,7.27H106.17z M112.73,233.54
		c0.37,0.26,0.74,0.44,1.3,0.44c2.82,0,4.19-6.16,4.19-8.87c0-1.22-0.11-2.49-1.34-2.49c-1.19,0-2.45,1.89-2.89,4.08L112.73,233.54z
		"/>
	<path class="st59" d="M135.27,236.36c-1.59,0.67-3.15,1-5.23,1c-4.45,0-6.16-2.93-6.16-6.83c0-5.27,2.93-11.83,8.72-11.83
		c3.3,0,4.82,2.45,4.82,4.93c0,4.97-4.01,6.83-9.05,6.68c-0.04,0.52,0,1.45,0.41,2.11c0.45,0.74,1.26,1.3,2.52,1.3
		c1.52,0,2.6-0.37,3.67-0.89L135.27,236.36z M133.31,224.04c0-1-0.41-1.63-1.3-1.63c-1.41,0-2.67,1.82-3.19,4.41
		c2.45,0.11,4.49-0.85,4.49-2.75V224.04z"/>
	<path class="st59" d="M146.87,219l0.26,6.68c0.11,1.67,0.18,3.63,0.15,5.04h0.07c0.59-1.48,1.52-3.52,2.23-5.08l3-6.64h5.23
		l-2.08,18.14h-4.27l0.93-6.34c0.26-1.71,0.59-4.04,1.08-6.53h-0.15c-0.93,2.45-1.67,4.16-2.52,6.05l-2.97,6.53h-3.78l-0.26-6.34
		c-0.07-1.41-0.15-3.75-0.22-6.23h-0.07c-0.45,2.52-1,4.79-1.45,6.57l-1.6,6.31h-3.75l4.9-18.14H146.87z"/>
	<path class="st59" d="M170.33,236.36c-1.59,0.67-3.15,1-5.23,1c-4.45,0-6.16-2.93-6.16-6.83c0-5.27,2.93-11.83,8.72-11.83
		c3.3,0,4.82,2.45,4.82,4.93c0,4.97-4.01,6.83-9.05,6.68c-0.04,0.52,0,1.45,0.41,2.11c0.45,0.74,1.26,1.3,2.52,1.3
		c1.52,0,2.6-0.37,3.67-0.89L170.33,236.36z M168.37,224.04c0-1-0.41-1.63-1.3-1.63c-1.41,0-2.67,1.82-3.19,4.41
		c2.45,0.11,4.49-0.85,4.49-2.75V224.04z"/>
	<path class="st59" d="M180.34,219l-1.37,7.01h3.78l1.37-7.01h4.64l-3.49,18.14h-4.64l1.45-7.6h-3.71l-1.45,7.6h-4.64l3.38-18.14
		H180.34z"/>
	<path class="st59" d="M196.53,219l-1.37,7.01h3.78l1.37-7.01h4.64l-3.49,18.14h-4.64l1.45-7.6h-3.71l-1.45,7.6h-4.64l3.38-18.14
		H196.53z"/>
	<path class="st59" d="M213.58,237.13c0.04-0.96,0.11-1.97,0.15-3.04h-0.11c-1.45,2.41-3.19,3.34-4.64,3.34
		c-2.63,0-3.93-2.26-3.93-5.45c0-5.49,2.75-13.28,10.54-13.28c1.82,0,3.63,0.3,4.75,0.74l-2,10.09c-0.44,2.11-0.78,5.64-0.74,7.6
		H213.58z M215.25,222.26c-0.37-0.07-0.71-0.11-0.96-0.11c-3.04,0-4.67,6.05-4.71,8.72c0,1.59,0.22,2.74,1.37,2.74
		c1.26,0,2.45-2.08,3.12-5.38L215.25,222.26z"/>
	<path class="st59" d="M232.3,237.13h-4.6l1.33-6.9h-0.52c-1.56,0-2.52,1.67-3.19,3.26c-0.52,1.15-1.11,2.6-1.82,3.63h-4.93
		c1-1.63,1.56-2.86,2.26-4.49c1-2.3,2.34-3.56,3.67-4.01v-0.07c-1.15-0.48-2.52-1.82-2.52-3.93c0-4.9,4.38-5.93,8.75-5.93
		c2.19,0,3.9,0.15,5.04,0.33L232.3,237.13z M230.56,222.11c-0.3-0.04-0.67-0.04-1.11-0.04c-1.41,0-2.93,0.71-2.93,2.52
		c0,1.74,1.37,2.41,2.75,2.41h0.41L230.56,222.11z"/>
	<path class="st59" d="M71.52,281.65l2.34-12.24c0.41-2.11,0.71-4.19,0.96-5.9h3.97L78.61,266h0.07c1.22-1.86,2.89-2.78,4.93-2.78
		c1.74,0,2.78,1.19,3.04,2.78c1.19-1.71,2.93-2.78,4.97-2.78c2.26,0,3.34,1.59,3.34,3.93c0,0.78-0.19,2.19-0.44,3.67l-2.08,10.83
		h-4.56l2.04-10.76c0.18-1,0.3-1.89,0.3-2.71c0-0.74-0.37-1.26-1.11-1.26c-1,0-2.37,1.52-3.08,5.08l-1.85,9.64h-4.45l2.04-10.76
		c0.19-0.93,0.3-1.78,0.3-2.6c0-0.82-0.3-1.37-1.04-1.37c-0.93,0-2.45,1.67-3.08,5.08l-1.82,9.64H71.52z"/>
	<path class="st59" d="M107.5,280.87c-1.59,0.67-3.15,1-5.23,1c-4.45,0-6.16-2.93-6.16-6.83c0-5.27,2.93-11.83,8.72-11.83
		c3.3,0,4.82,2.45,4.82,4.93c0,4.97-4.01,6.83-9.05,6.68c-0.04,0.52,0,1.45,0.41,2.11c0.45,0.74,1.26,1.3,2.52,1.3
		c1.52,0,2.6-0.37,3.67-0.89L107.5,280.87z M105.53,268.55c0-1-0.41-1.63-1.3-1.63c-1.41,0-2.67,1.82-3.19,4.41
		c2.45,0.11,4.49-0.85,4.49-2.75V268.55z"/>
	<path class="st59" d="M116.2,263.51l0.56,3.26c0.22,1.48,0.22,2.37,0.3,3.08h0.11c0.33-0.78,0.82-1.82,1.3-2.82l1.78-3.52h4.79
		l-5.97,9.05l2.41,9.09h-4.75l-0.59-3.15c-0.22-1.3-0.33-1.93-0.45-3.23h-0.07c-0.3,0.7-0.63,1.48-1.3,2.89l-1.74,3.49h-4.79
		l6.01-9.2l-2.37-8.94H116.2z"/>
	<path class="st59" d="M130.76,263.51l-1.37,7.01h3.78l1.37-7.01h4.64l-3.49,18.14h-4.64l1.45-7.6h-3.71l-1.45,7.6h-4.64l3.38-18.14
		H130.76z"/>
	<path class="st59" d="M145.02,281.95c-4.56,0-5.56-3.6-5.56-6.27c0-6.12,3.38-12.46,8.87-12.46c4.6,0,5.27,3.82,5.27,6.34
		c0,5.71-3.04,12.39-8.53,12.39H145.02z M145.54,278.42c2.23,0,3.49-6.16,3.49-9.42c0-1.22-0.33-2.26-1.45-2.26
		c-2,0-3.56,5.6-3.52,8.72c0,1.33,0.04,2.97,1.45,2.97H145.54z"/>
	<path class="st59" d="M170.29,263.51l-3.45,18.14h-4.56l2.71-14.54h-2.86l-0.82,4.27c-0.78,4.08-1.67,7.31-4.12,9.13
		c-1.04,0.82-2.37,1.45-4.16,1.45l-0.26-3.64c0.74-0.11,1.52-0.48,1.97-0.93c1.19-1.08,1.85-3.6,2.23-5.56l1.59-8.31H170.29z"/>
	<path class="st59" d="M176.09,281.95c-4.56,0-5.56-3.6-5.56-6.27c0-6.12,3.38-12.46,8.87-12.46c4.6,0,5.27,3.82,5.27,6.34
		c0,5.71-3.04,12.39-8.53,12.39H176.09z M176.61,278.42c2.23,0,3.49-6.16,3.49-9.42c0-1.22-0.33-2.26-1.45-2.26
		c-2,0-3.56,5.6-3.52,8.72c0,1.33,0.04,2.97,1.45,2.97H176.61z"/>
	<path class="st59" d="M187.75,264.21c1.19-0.56,2.82-1,4.53-1c3.04,0,4.86,1.74,4.86,4.56c0,2.86-2.26,4.53-4.71,6.19
		c-1.67,1.11-3.19,2.23-3.19,3.19c0,0.74,0.52,1.26,1.52,1.26c1.41,0,2.56-0.37,3.45-0.82l0.41,3.23c-1.08,0.56-2.63,1.04-4.82,1.04
		c-2.93,0-5.12-1.48-5.12-4.53c0-3.26,2.63-4.9,5.38-6.71c1.52-1,2.71-1.89,2.71-2.71c0-0.74-0.63-1.22-1.67-1.22
		c-1.04,0-2.49,0.45-2.93,0.67L187.75,264.21z"/>
	<path class="st59" d="M204.65,263.51l-1.97,10.31c-0.19,1.11-0.33,2.04-0.33,2.89c0,0.89,0.33,1.45,1.11,1.45
		c1.19,0,2.37-1.56,2.89-4.15l1.93-10.5h4.64l-2.3,12.2c-0.44,2.15-0.7,4.19-0.93,5.93h-4.01l0.15-2.49h-0.07
		c-1.33,1.93-3,2.78-4.71,2.78c-2.41,0-3.45-1.82-3.45-4.19c0-1.15,0.19-2.37,0.45-3.75l1.97-10.5H204.65z"/>
	<path class="st59" d="M224.95,281.65h-4.6l1.33-6.9h-0.52c-1.56,0-2.52,1.67-3.19,3.26c-0.52,1.15-1.11,2.6-1.82,3.63h-4.93
		c1-1.63,1.56-2.86,2.26-4.49c1-2.3,2.34-3.56,3.67-4.01v-0.07c-1.15-0.48-2.52-1.82-2.52-3.93c0-4.9,4.38-5.93,8.75-5.93
		c2.19,0,3.9,0.15,5.04,0.33L224.95,281.65z M223.21,266.63c-0.3-0.04-0.67-0.04-1.11-0.04c-1.41,0-2.93,0.71-2.93,2.52
		c0,1.74,1.37,2.41,2.75,2.41h0.41L223.21,266.63z"/>
</g>
</svg>
