<?xml version="1.0" encoding="utf-8"?>
<!-- Generator: Adobe Illustrator 24.0.2, SVG Export Plug-In . SVG Version: 6.00 Build 0)  -->
<svg version="1.1" id="Слой_1" xmlns="http://www.w3.org/2000/svg" xmlns:xlink="http://www.w3.org/1999/xlink" x="0px" y="0px"
	 viewBox="0 0 300 300" style="enable-background:new 0 0 300 300;" xml:space="preserve">
<style type="text/css">
	.st0{fill:url(#SVGID_1_);}
	.st1{fill:url(#SVGID_2_);}
	.st2{fill:url(#SVGID_3_);}
	.st3{fill:url(#SVGID_4_);}
	.st4{fill:url(#SVGID_5_);}
	.st5{fill:url(#SVGID_6_);}
	.st6{fill:url(#SVGID_7_);}
	.st7{fill:url(#SVGID_8_);}
	.st8{fill:url(#SVGID_9_);}
	.st9{fill:url(#SVGID_10_);}
	.st10{fill:url(#SVGID_11_);}
	.st11{fill:url(#SVGID_12_);}
	.st12{fill:url(#SVGID_13_);}
	.st13{fill:url(#SVGID_14_);}
	.st14{fill:url(#SVGID_15_);}
	.st15{fill:url(#SVGID_16_);}
	.st16{fill:url(#SVGID_17_);}
	.st17{fill:url(#SVGID_18_);}
	.st18{fill:url(#SVGID_19_);}
	.st19{fill:url(#SVGID_20_);}
	.st20{fill:url(#SVGID_21_);}
	.st21{fill:url(#SVGID_22_);}
	.st22{fill:url(#SVGID_23_);}
	.st23{fill:url(#SVGID_24_);}
	.st24{fill:url(#SVGID_25_);}
	.st25{fill:url(#SVGID_26_);}
	.st26{fill:url(#SVGID_27_);}
	.st27{fill:url(#SVGID_28_);}
	.st28{fill:url(#SVGID_29_);}
	.st29{fill:url(#SVGID_30_);}
	.st30{fill:url(#SVGID_31_);}
	.st31{fill:url(#SVGID_32_);}
	.st32{fill:url(#SVGID_33_);}
	.st33{fill:url(#SVGID_34_);}
	.st34{fill:url(#SVGID_35_);}
	.st35{fill:url(#SVGID_36_);}
	.st36{fill:url(#SVGID_37_);}
	.st37{fill:url(#SVGID_38_);}
	.st38{fill:url(#SVGID_39_);}
	.st39{fill:url(#SVGID_40_);}
	.st40{fill:url(#SVGID_41_);}
	.st41{fill:url(#SVGID_42_);}
	.st42{fill:url(#SVGID_43_);}
	.st43{fill:url(#SVGID_44_);}
	.st44{fill:url(#SVGID_45_);}
	.st45{fill:url(#SVGID_46_);}
	.st46{fill:url(#SVGID_47_);}
	.st47{fill:url(#SVGID_48_);}
	.st48{fill:url(#SVGID_49_);}
	.st49{fill:url(#SVGID_50_);}
	.st50{fill:url(#SVGID_51_);}
	.st51{fill:url(#SVGID_52_);}
	.st52{fill:url(#SVGID_53_);}
	.st53{fill:url(#SVGID_54_);}
	.st54{fill:url(#SVGID_55_);}
	.st55{fill:url(#SVGID_56_);}
	.st56{fill:url(#SVGID_57_);}
	.st57{fill:url(#SVGID_58_);}
	.st58{fill:#8CC63D;}
	.st59{fill:#3888DA;}
	.st60{fill:url(#SVGID_59_);}
	.st61{fill:url(#SVGID_60_);}
	.st62{fill:url(#SVGID_61_);}
	.st63{fill:url(#SVGID_62_);}
	.st64{fill:url(#SVGID_63_);}
	.st65{fill:url(#SVGID_64_);}
	.st66{fill:none;}
	.st67{fill:#8CC1C1;}
	.st68{fill:#2A71B7;}
</style>
<linearGradient id="SVGID_1_" gradientUnits="userSpaceOnUse" x1="165.0871" y1="86.0183" x2="122.7843" y2="188.6527">
	<stop  offset="0" style="stop-color:#7ABCD8"/>
	<stop  offset="0.1139" style="stop-color:#75B8D8"/>
	<stop  offset="0.2402" style="stop-color:#68AED9"/>
	<stop  offset="0.3721" style="stop-color:#529CD9"/>
	<stop  offset="0.4888" style="stop-color:#3888DA"/>
	<stop  offset="0.676" style="stop-color:#3491DC"/>
	<stop  offset="0.9804" style="stop-color:#2AA9E2"/>
	<stop  offset="1" style="stop-color:#29ABE2"/>
</linearGradient>
<path class="st0" d="M150,177.33c-38.65,0-70.47-29.24-74.55-66.8c-0.29,2.69-0.45,5.43-0.45,8.2c0,41.42,33.58,75,75,75
	s75-33.58,75-75c0-2.77-0.16-5.51-0.45-8.2C220.47,148.09,188.65,177.33,150,177.33z"/>
<g>
	<linearGradient id="SVGID_2_" gradientUnits="userSpaceOnUse" x1="213.3957" y1="56.266" x2="168.7313" y2="164.63">
		<stop  offset="0" style="stop-color:#7ABCD8"/>
		<stop  offset="0.1139" style="stop-color:#75B8D8"/>
		<stop  offset="0.2402" style="stop-color:#68AED9"/>
		<stop  offset="0.3721" style="stop-color:#529CD9"/>
		<stop  offset="0.4888" style="stop-color:#3888DA"/>
		<stop  offset="0.676" style="stop-color:#3491DC"/>
		<stop  offset="0.9804" style="stop-color:#2AA9E2"/>
		<stop  offset="1" style="stop-color:#29ABE2"/>
	</linearGradient>
	<path class="st1" d="M153.6,158.39c34-1.6,44.39-21.79,44.39-21.79L204,52.39L153.6,158.39z"/>
	<linearGradient id="SVGID_3_" gradientUnits="userSpaceOnUse" x1="181.05" y1="42.231" x2="132.6935" y2="159.5528">
		<stop  offset="0" style="stop-color:#7ABCD8"/>
		<stop  offset="0.1139" style="stop-color:#75B8D8"/>
		<stop  offset="0.2402" style="stop-color:#68AED9"/>
		<stop  offset="0.3721" style="stop-color:#529CD9"/>
		<stop  offset="0.4888" style="stop-color:#3888DA"/>
		<stop  offset="0.676" style="stop-color:#3491DC"/>
		<stop  offset="0.9804" style="stop-color:#2AA9E2"/>
		<stop  offset="1" style="stop-color:#29ABE2"/>
	</linearGradient>
	<polygon class="st2" points="178.4,71.33 180.8,42.13 124.71,156.26 141.2,149.33 	"/>
	<linearGradient id="SVGID_4_" gradientUnits="userSpaceOnUse" x1="170.6508" y1="37.6133" x2="121.9143" y2="155.8569">
		<stop  offset="0" style="stop-color:#7ABCD8"/>
		<stop  offset="0.1139" style="stop-color:#75B8D8"/>
		<stop  offset="0.2402" style="stop-color:#68AED9"/>
		<stop  offset="0.3721" style="stop-color:#529CD9"/>
		<stop  offset="0.4888" style="stop-color:#3888DA"/>
		<stop  offset="0.676" style="stop-color:#3491DC"/>
		<stop  offset="0.9804" style="stop-color:#2AA9E2"/>
		<stop  offset="1" style="stop-color:#29ABE2"/>
	</linearGradient>
	<path class="st3" d="M169.15,37l-54.58,115.54c3.14,2.06,8.02,3.11,8.02,3.11L178,40.93L169.15,37z"/>
	<linearGradient id="SVGID_5_" gradientUnits="userSpaceOnUse" x1="158.2053" y1="31.245" x2="109.7894" y2="148.7108">
		<stop  offset="0" style="stop-color:#7ABCD8"/>
		<stop  offset="0.1139" style="stop-color:#75B8D8"/>
		<stop  offset="0.2402" style="stop-color:#68AED9"/>
		<stop  offset="0.3721" style="stop-color:#529CD9"/>
		<stop  offset="0.4888" style="stop-color:#3888DA"/>
		<stop  offset="0.676" style="stop-color:#3491DC"/>
		<stop  offset="0.9804" style="stop-color:#2AA9E2"/>
		<stop  offset="1" style="stop-color:#29ABE2"/>
	</linearGradient>
	<polygon class="st4" points="156.4,59.33 159.07,31.6 101.44,145.27 119.2,133.33 	"/>
	<linearGradient id="SVGID_6_" gradientUnits="userSpaceOnUse" x1="148.1723" y1="27.5368" x2="100.3144" y2="143.6488">
		<stop  offset="0" style="stop-color:#7ABCD8"/>
		<stop  offset="0.1139" style="stop-color:#75B8D8"/>
		<stop  offset="0.2402" style="stop-color:#68AED9"/>
		<stop  offset="0.3721" style="stop-color:#529CD9"/>
		<stop  offset="0.4888" style="stop-color:#3888DA"/>
		<stop  offset="0.676" style="stop-color:#3491DC"/>
		<stop  offset="0.9804" style="stop-color:#2AA9E2"/>
		<stop  offset="1" style="stop-color:#29ABE2"/>
	</linearGradient>
	<path class="st5" d="M147.65,28.98c0,0-55.02,106.83-54.43,108.82c0.39,1.34,6.23,5.48,6.23,5.48L156.4,30.93L147.65,28.98z"/>
	<linearGradient id="SVGID_7_" gradientUnits="userSpaceOnUse" x1="194.3417" y1="48.4765" x2="147.7181" y2="161.5936">
		<stop  offset="0" style="stop-color:#7ABCD8"/>
		<stop  offset="0.1139" style="stop-color:#75B8D8"/>
		<stop  offset="0.2402" style="stop-color:#68AED9"/>
		<stop  offset="0.3721" style="stop-color:#529CD9"/>
		<stop  offset="0.4888" style="stop-color:#3888DA"/>
		<stop  offset="0.676" style="stop-color:#3491DC"/>
		<stop  offset="0.9804" style="stop-color:#2AA9E2"/>
		<stop  offset="1" style="stop-color:#29ABE2"/>
	</linearGradient>
	<path class="st6" d="M192.19,47.59l-51.14,111.25c4.14,0.26,10.1-0.2,10.1-0.2l49.59-106.78L192.19,47.59z"/>
</g>
<g>
	<path class="st59" d="M72.81,212.13l-3.97,20.88l1.93,0.15l-2.15,9.42h-3.75l0.93-5.45H55.6l-1.26,5.45h-3.56l1.33-9.46l1.71-0.15
		c1.15-2,2.15-4.16,2.97-6.42c0.96-2.67,1.67-5.45,2.15-8.16l1.19-6.27H72.81z M62.9,219.74c-0.52,2.6-1.15,5.27-2,7.72
		c-0.67,1.97-1.41,3.71-2.41,5.56h5.68l3.19-16.77h-3.78L62.9,219.74z"/>
	<path class="st59" d="M81.51,218.7c2.6,0,5.08,1.11,5.08,4.12c0,2.67-1.93,3.93-3.82,4.71v0.11c1.41,0.15,2.97,1.3,2.97,3.6
		c0,4.23-3.82,6.12-7.86,6.12c-4.15,0-5.34-2.3-5.34-5.38c0-3.56,1.37-9.72,4.64-11.98c1.19-0.82,2.6-1.3,4.3-1.3H81.51z
		 M79.28,229.16c-0.67,0-1.45,0.22-2.19,0.56c-0.11,0.45-0.3,1.48-0.3,2.23c0,0.96,0.37,1.97,1.74,1.97c1.48,0,2.67-1.08,2.67-2.71
		c0-1.45-0.85-2-1.89-2.04H79.28z M80.84,222.07c-1.89,0-2.86,2.78-3.19,4.34c1.34-0.3,2.63-0.63,3.52-1.19
		c0.67-0.45,1.19-1,1.19-1.74c0-0.82-0.52-1.41-1.48-1.41H80.84z"/>
	<path class="st59" d="M93.03,219l0.19,8.83c0.04,1.71,0.07,2.97,0.04,4.3h0.07c0.41-1.52,0.78-2.71,1.37-4.64l2.63-8.49H102
		c-1.26,3.12-3.56,9.83-6.16,15.28c-1.97,4.15-3.3,6.42-5.75,8.68c-1.08,1-2.37,1.78-3.15,2.11l-1.85-3.78
		c0.82-0.41,1.67-0.89,2.41-1.48c1.04-0.85,2.08-1.97,2.49-2.97c0.11-0.22,0.15-0.45,0.11-0.78L88.17,219H93.03z"/>
	<path class="st59" d="M107.14,219l0.56,3.26c0.22,1.48,0.22,2.37,0.3,3.08h0.11c0.33-0.78,0.82-1.82,1.3-2.82l1.78-3.52h4.79
		l-5.97,9.05l2.41,9.09h-4.75l-0.59-3.15c-0.22-1.3-0.33-1.93-0.45-3.23h-0.07c-0.3,0.7-0.63,1.48-1.3,2.89l-1.74,3.49h-4.79
		l6.01-9.2l-2.37-8.94H107.14z"/>
	<path class="st59" d="M121.67,219l-1.52,7.86h0.22l4.97-7.86h5.19l-6.68,8.38c1.34,0.63,1.97,2.19,2.19,5.23
		c0.15,1.82,0.33,3.52,0.67,4.53h-4.45c-0.3-0.78-0.45-3.12-0.52-4.49c-0.15-2-0.67-3.12-1.71-3.12h-0.33l-1.45,7.6h-4.6l3.49-18.14
		H121.67z"/>
	<path class="st59" d="M137.17,237.13c0.04-0.96,0.11-1.97,0.15-3.04h-0.11c-1.45,2.41-3.19,3.34-4.64,3.34
		c-2.63,0-3.93-2.26-3.93-5.45c0-5.49,2.75-13.28,10.54-13.28c1.82,0,3.63,0.3,4.75,0.74l-2,10.09c-0.44,2.11-0.78,5.64-0.74,7.6
		H137.17z M138.84,222.26c-0.37-0.07-0.71-0.11-0.96-0.11c-3.04,0-4.67,6.05-4.71,8.72c0,1.59,0.22,2.74,1.37,2.74
		c1.26,0,2.45-2.08,3.12-5.38L138.84,222.26z"/>
	<path class="st59" d="M153.36,219l0.26,6.68c0.11,1.67,0.18,3.63,0.15,5.04h0.07c0.59-1.48,1.52-3.52,2.23-5.08l3-6.64h5.23
		l-2.08,18.14h-4.27l0.93-6.34c0.26-1.71,0.59-4.04,1.08-6.53h-0.15c-0.93,2.45-1.67,4.16-2.52,6.05l-2.97,6.53h-3.78l-0.26-6.34
		c-0.07-1.41-0.15-3.75-0.22-6.23h-0.07c-0.45,2.52-1,4.79-1.45,6.57l-1.6,6.31h-3.75l4.9-18.14H153.36z"/>
	<path class="st59" d="M176.83,236.36c-1.59,0.67-3.15,1-5.23,1c-4.45,0-6.16-2.93-6.16-6.83c0-5.27,2.93-11.83,8.72-11.83
		c3.3,0,4.82,2.45,4.82,4.93c0,4.97-4.01,6.83-9.05,6.68c-0.04,0.52,0,1.45,0.41,2.11c0.45,0.74,1.26,1.3,2.52,1.3
		c1.52,0,2.6-0.37,3.67-0.89L176.83,236.36z M174.87,224.04c0-1-0.41-1.63-1.3-1.63c-1.41,0-2.67,1.82-3.19,4.41
		c2.45,0.11,4.49-0.85,4.49-2.75V224.04z"/>
	<path class="st59" d="M177.41,244.26l3.67-19.29c0.41-2.15,0.7-4.19,0.96-5.97h3.97l-0.3,2.63h0.07c1.11-1.82,2.86-2.93,4.53-2.93
		c3.26,0,3.89,2.82,3.89,5.6c0,6.08-3.26,13.13-8.57,13.13c-0.82,0-1.71-0.15-2.23-0.45h-0.11l-1.34,7.27H177.41z M183.98,233.54
		c0.37,0.26,0.74,0.44,1.3,0.44c2.82,0,4.19-6.16,4.19-8.87c0-1.22-0.11-2.49-1.33-2.49c-1.19,0-2.45,1.89-2.89,4.08L183.98,233.54z
		"/>
	<path class="st59" d="M202.52,219l-1.37,7.01h3.78l1.37-7.01h4.64l-3.49,18.14h-4.64l1.45-7.6h-3.71l-1.45,7.6h-4.64l3.38-18.14
		H202.52z"/>
	<path class="st59" d="M218.87,219l-1.78,6.86h0.04c1.08-1,2.45-1.48,3.93-1.48c2.49,0,4.04,1.74,4.04,4.64
		c0,3.78-2.75,8.35-8.49,8.35c-2.37,0-5.27-0.56-5.27-4.04c0-1,0.22-2.37,0.45-3.38l2.52-10.94H218.87z M217.42,233.72
		c1.63,0,3.04-1.63,3.04-3.71c0-1.22-0.63-1.93-1.52-1.93c-1.34,0-2.34,1.37-2.71,2.49c-0.11,0.48-0.26,1.08-0.26,1.56
		c0,0.89,0.48,1.59,1.41,1.59H217.42z M233.26,219l-3.49,18.14h-4.64l3.49-18.14H233.26z"/>
	<path class="st59" d="M240.88,219l-1.97,10.31c-0.19,1.11-0.33,2.04-0.33,2.89c0,0.89,0.33,1.45,1.11,1.45
		c1.19,0,2.37-1.56,2.89-4.15l1.93-10.5h4.64l-2.3,12.2c-0.45,2.15-0.71,4.19-0.93,5.93h-4.01l0.15-2.49h-0.07
		c-1.33,1.93-3,2.78-4.71,2.78c-2.41,0-3.45-1.82-3.45-4.19c0-1.15,0.19-2.37,0.45-3.75l1.97-10.5H240.88z M242.29,212.13
		c-0.07,1.52,0.37,2.37,1.52,2.37c1.19,0,1.78-1.08,2-2.37h2.89c-0.48,2.89-2.19,4.49-5.08,4.49c-2.86,0-4.19-1.74-4.15-4.49H242.29
		z"/>
	<path class="st59" d="M70.89,281.39c-0.52,0.22-1.71,0.48-3.23,0.48c-4.01,0-5.68-3.19-5.68-6.53c0-6.49,4.04-12.09,9.76-12.09
		c1.11,0,1.82,0.15,2.26,0.33l-1.15,3.78c-0.45-0.11-0.89-0.19-1.3-0.19c-2.71,0-4.93,3.64-4.93,7.49c0,2.08,0.85,3.41,2.37,3.41
		c0.85,0,1.63-0.26,2.23-0.41L70.89,281.39z"/>
	<path class="st59" d="M72.32,281.65l2.34-12.24c0.41-2.11,0.7-4.19,0.96-5.9h3.97L79.4,266h0.07c1.22-1.86,2.89-2.78,4.93-2.78
		c1.74,0,2.78,1.19,3.04,2.78c1.19-1.71,2.93-2.78,4.97-2.78c2.26,0,3.34,1.59,3.34,3.93c0,0.78-0.19,2.19-0.45,3.67l-2.08,10.83
		h-4.56l2.04-10.76c0.19-1,0.3-1.89,0.3-2.71c0-0.74-0.37-1.26-1.11-1.26c-1,0-2.37,1.52-3.08,5.08l-1.86,9.64h-4.45l2.04-10.76
		c0.19-0.93,0.3-1.78,0.3-2.6c0-0.82-0.3-1.37-1.04-1.37c-0.93,0-2.45,1.67-3.08,5.08l-1.82,9.64H72.32z"/>
	<path class="st59" d="M108.29,280.87c-1.6,0.67-3.15,1-5.23,1c-4.45,0-6.16-2.93-6.16-6.83c0-5.27,2.93-11.83,8.72-11.83
		c3.3,0,4.82,2.45,4.82,4.93c0,4.97-4.01,6.83-9.05,6.68c-0.04,0.52,0,1.45,0.41,2.11c0.45,0.74,1.26,1.3,2.52,1.3
		c1.52,0,2.6-0.37,3.67-0.89L108.29,280.87z M106.32,268.55c0-1-0.41-1.63-1.3-1.63c-1.41,0-2.67,1.82-3.19,4.41
		c2.45,0.11,4.49-0.85,4.49-2.75V268.55z"/>
	<path class="st59" d="M118.26,263.51l-1.52,7.86h0.22l4.97-7.86h5.19l-6.68,8.38c1.34,0.63,1.97,2.19,2.19,5.23
		c0.15,1.82,0.33,3.52,0.67,4.53h-4.45c-0.3-0.78-0.45-3.12-0.52-4.49c-0.15-2-0.67-3.12-1.71-3.12h-0.33l-1.45,7.6h-4.6l3.49-18.14
		H118.26z"/>
	<path class="st59" d="M141.64,263.51l-3.45,18.14h-4.56l2.71-14.54h-2.86l-0.82,4.27c-0.78,4.08-1.67,7.31-4.12,9.13
		c-1.04,0.82-2.37,1.45-4.15,1.45l-0.26-3.64c0.74-0.11,1.52-0.48,1.97-0.93c1.19-1.08,1.86-3.6,2.23-5.56l1.6-8.31H141.64z"/>
	<path class="st59" d="M147.44,281.95c-4.56,0-5.56-3.6-5.56-6.27c0-6.12,3.38-12.46,8.87-12.46c4.6,0,5.27,3.82,5.27,6.34
		c0,5.71-3.04,12.39-8.53,12.39H147.44z M147.96,278.42c2.23,0,3.49-6.16,3.49-9.42c0-1.22-0.33-2.26-1.45-2.26
		c-2,0-3.56,5.6-3.52,8.72c0,1.33,0.04,2.97,1.45,2.97H147.96z"/>
	<path class="st59" d="M156.25,281.65l2.34-12.24c0.41-2.11,0.7-4.19,0.96-5.9h3.97l-0.19,2.34h0.07c1.26-1.71,2.93-2.63,4.9-2.63
		c2.56,0,3.52,1.78,3.52,3.97c0,1.08-0.19,2.19-0.45,3.45l-2.08,11.02h-4.64l2.15-11.28c0.11-0.63,0.22-1.22,0.22-1.93
		c0-0.85-0.37-1.45-1.15-1.45c-1.08,0-2.52,1.59-3.19,5.04l-1.82,9.61H156.25z"/>
	<path class="st59" d="M181.31,281.65c0.04-0.96,0.11-1.97,0.15-3.04h-0.11c-1.45,2.41-3.19,3.34-4.64,3.34
		c-2.63,0-3.93-2.26-3.93-5.45c0-5.49,2.75-13.28,10.54-13.28c1.82,0,3.63,0.3,4.75,0.74l-2,10.09c-0.44,2.11-0.78,5.64-0.74,7.6
		H181.31z M182.98,266.77c-0.37-0.07-0.71-0.11-0.96-0.11c-3.04,0-4.67,6.05-4.71,8.72c0,1.59,0.22,2.74,1.37,2.74
		c1.26,0,2.45-2.08,3.12-5.38L182.98,266.77z"/>
	<path class="st59" d="M195.77,263.51l-1.52,7.86h0.22l4.97-7.86h5.19l-6.68,8.38c1.33,0.63,1.97,2.19,2.19,5.23
		c0.15,1.82,0.33,3.52,0.67,4.53h-4.45c-0.3-0.78-0.45-3.12-0.52-4.49c-0.15-2-0.67-3.12-1.71-3.12h-0.33l-1.45,7.6h-4.6l3.49-18.14
		H195.77z"/>
	<path class="st59" d="M214.35,280.87c-1.59,0.67-3.15,1-5.23,1c-4.45,0-6.16-2.93-6.16-6.83c0-5.27,2.93-11.83,8.72-11.83
		c3.3,0,4.82,2.45,4.82,4.93c0,4.97-4.01,6.83-9.05,6.68c-0.04,0.52,0,1.45,0.41,2.11c0.45,0.74,1.26,1.3,2.52,1.3
		c1.52,0,2.6-0.37,3.67-0.89L214.35,280.87z M212.38,268.55c0-1-0.41-1.63-1.3-1.63c-1.41,0-2.67,1.82-3.19,4.41
		c2.45,0.11,4.49-0.85,4.49-2.75V268.55z"/>
	<path class="st59" d="M216.31,281.65l2.34-12.24c0.41-2.11,0.71-4.19,0.96-5.9h3.97l-0.19,2.49h0.07c1.22-1.86,2.89-2.78,4.93-2.78
		c1.74,0,2.78,1.19,3.04,2.78c1.19-1.71,2.93-2.78,4.97-2.78c2.26,0,3.34,1.59,3.34,3.93c0,0.78-0.19,2.19-0.44,3.67l-2.08,10.83
		h-4.56l2.04-10.76c0.18-1,0.3-1.89,0.3-2.71c0-0.74-0.37-1.26-1.11-1.26c-1,0-2.37,1.52-3.08,5.08l-1.85,9.64h-4.45l2.04-10.76
		c0.19-0.93,0.3-1.78,0.3-2.6c0-0.82-0.3-1.37-1.04-1.37c-0.93,0-2.45,1.67-3.08,5.08l-1.82,9.64H216.31z"/>
</g>
</svg>
