<?xml version="1.0" encoding="utf-8"?>
<!-- Generator: Adobe Illustrator 24.0.2, SVG Export Plug-In . SVG Version: 6.00 Build 0)  -->
<svg version="1.1" id="Слой_1" xmlns="http://www.w3.org/2000/svg" xmlns:xlink="http://www.w3.org/1999/xlink" x="0px" y="0px"
	 viewBox="0 0 300 300" style="enable-background:new 0 0 300 300;" xml:space="preserve">
<style type="text/css">
	.st0{fill:url(#SVGID_1_);}
	.st1{fill:url(#SVGID_2_);}
	.st2{fill:url(#SVGID_3_);}
	.st3{fill:url(#SVGID_4_);}
	.st4{fill:url(#SVGID_5_);}
	.st5{fill:url(#SVGID_6_);}
	.st6{fill:url(#SVGID_7_);}
	.st7{fill:url(#SVGID_8_);}
	.st8{fill:url(#SVGID_9_);}
	.st9{fill:url(#SVGID_10_);}
	.st10{fill:url(#SVGID_11_);}
	.st11{fill:url(#SVGID_12_);}
	.st12{fill:url(#SVGID_13_);}
	.st13{fill:url(#SVGID_14_);}
	.st14{fill:url(#SVGID_15_);}
	.st15{fill:url(#SVGID_16_);}
	.st16{fill:url(#SVGID_17_);}
	.st17{fill:url(#SVGID_18_);}
	.st18{fill:url(#SVGID_19_);}
	.st19{fill:url(#SVGID_20_);}
	.st20{fill:url(#SVGID_21_);}
	.st21{fill:url(#SVGID_22_);}
	.st22{fill:url(#SVGID_23_);}
	.st23{fill:url(#SVGID_24_);}
	.st24{fill:url(#SVGID_25_);}
	.st25{fill:url(#SVGID_26_);}
	.st26{fill:url(#SVGID_27_);}
	.st27{fill:url(#SVGID_28_);}
	.st28{fill:url(#SVGID_29_);}
	.st29{fill:url(#SVGID_30_);}
	.st30{fill:url(#SVGID_31_);}
	.st31{fill:url(#SVGID_32_);}
	.st32{fill:url(#SVGID_33_);}
	.st33{fill:url(#SVGID_34_);}
	.st34{fill:url(#SVGID_35_);}
	.st35{fill:url(#SVGID_36_);}
	.st36{fill:url(#SVGID_37_);}
	.st37{fill:url(#SVGID_38_);}
	.st38{fill:url(#SVGID_39_);}
	.st39{fill:url(#SVGID_40_);}
	.st40{fill:url(#SVGID_41_);}
	.st41{fill:url(#SVGID_42_);}
	.st42{fill:url(#SVGID_43_);}
	.st43{fill:url(#SVGID_44_);}
	.st44{fill:url(#SVGID_45_);}
	.st45{fill:url(#SVGID_46_);}
	.st46{fill:url(#SVGID_47_);}
	.st47{fill:url(#SVGID_48_);}
	.st48{fill:url(#SVGID_49_);}
	.st49{fill:url(#SVGID_50_);}
	.st50{fill:url(#SVGID_51_);}
	.st51{fill:url(#SVGID_52_);}
	.st52{fill:url(#SVGID_53_);}
	.st53{fill:url(#SVGID_54_);}
	.st54{fill:url(#SVGID_55_);}
	.st55{fill:url(#SVGID_56_);}
	.st56{fill:url(#SVGID_57_);}
	.st57{fill:url(#SVGID_58_);}
	.st58{fill:#8CC63D;}
	.st59{fill:#3888DA;}
	.st60{fill:url(#SVGID_59_);}
	.st61{fill:url(#SVGID_60_);}
	.st62{fill:url(#SVGID_61_);}
	.st63{fill:url(#SVGID_62_);}
	.st64{fill:url(#SVGID_63_);}
	.st65{fill:url(#SVGID_64_);}
	.st66{fill:none;}
	.st67{fill:#8CC1C1;}
	.st68{fill:#2A71B7;}
</style>
<linearGradient id="SVGID_1_" gradientUnits="userSpaceOnUse" x1="165.0871" y1="86.4903" x2="122.7843" y2="189.1247">
	<stop  offset="0" style="stop-color:#7ABCD8"/>
	<stop  offset="0.1139" style="stop-color:#75B8D8"/>
	<stop  offset="0.2402" style="stop-color:#68AED9"/>
	<stop  offset="0.3721" style="stop-color:#529CD9"/>
	<stop  offset="0.4888" style="stop-color:#3888DA"/>
	<stop  offset="0.676" style="stop-color:#3491DC"/>
	<stop  offset="0.9804" style="stop-color:#2AA9E2"/>
	<stop  offset="1" style="stop-color:#29ABE2"/>
</linearGradient>
<path class="st0" d="M150,177.8c-38.65,0-70.47-29.24-74.55-66.8c-0.29,2.69-0.45,5.43-0.45,8.2c0,41.42,33.58,75,75,75
	s75-33.58,75-75c0-2.77-0.16-5.51-0.45-8.2C220.47,148.56,188.65,177.8,150,177.8z"/>
<g>
	<linearGradient id="SVGID_2_" gradientUnits="userSpaceOnUse" x1="164.6312" y1="61.2077" x2="135.2177" y2="132.5703">
		<stop  offset="0" style="stop-color:#7ABCD8"/>
		<stop  offset="0.1139" style="stop-color:#75B8D8"/>
		<stop  offset="0.2402" style="stop-color:#68AED9"/>
		<stop  offset="0.3721" style="stop-color:#529CD9"/>
		<stop  offset="0.4888" style="stop-color:#3888DA"/>
		<stop  offset="0.676" style="stop-color:#3491DC"/>
		<stop  offset="0.9804" style="stop-color:#2AA9E2"/>
		<stop  offset="1" style="stop-color:#29ABE2"/>
	</linearGradient>
	<path class="st1" d="M142.87,69.68l-25.24,4.28l9.37,55.22l8.76-1.49l46.46-7.89l-9.37-55.22L142.87,69.68z M123.66,78.16
		l7.61-1.29l12.44-2.11l3.58,20.17l-20.19,3.43L123.66,78.16z M134.12,122.93l-2.78,0.47l-3.43-20.19l20.19-3.43l3.43,20.19
		L134.12,122.93z M148.5,73.95l20.19-3.43l3.43,20.19l-20.19,3.43L148.5,73.95z M156.13,119.11l-3.35-19.92l19.99-3.39l3.39,19.95
		L156.13,119.11z"/>
	<linearGradient id="SVGID_3_" gradientUnits="userSpaceOnUse" x1="106.6246" y1="84.8822" x2="93.4379" y2="116.8754">
		<stop  offset="0" style="stop-color:#7ABCD8"/>
		<stop  offset="0.1139" style="stop-color:#75B8D8"/>
		<stop  offset="0.2402" style="stop-color:#68AED9"/>
		<stop  offset="0.3721" style="stop-color:#529CD9"/>
		<stop  offset="0.4888" style="stop-color:#3888DA"/>
		<stop  offset="0.676" style="stop-color:#3491DC"/>
		<stop  offset="0.9804" style="stop-color:#2AA9E2"/>
		<stop  offset="1" style="stop-color:#29ABE2"/>
	</linearGradient>
	<path class="st2" d="M86.18,104.37c1.73,10.2,11.4,17.06,21.6,15.33l-6.27-36.93C91.31,84.5,84.45,94.17,86.18,104.37z"/>
	<linearGradient id="SVGID_4_" gradientUnits="userSpaceOnUse" x1="206.5621" y1="70.3465" x2="193.3755" y2="102.3397">
		<stop  offset="0" style="stop-color:#7ABCD8"/>
		<stop  offset="0.1139" style="stop-color:#75B8D8"/>
		<stop  offset="0.2402" style="stop-color:#68AED9"/>
		<stop  offset="0.3721" style="stop-color:#529CD9"/>
		<stop  offset="0.4888" style="stop-color:#3888DA"/>
		<stop  offset="0.676" style="stop-color:#3491DC"/>
		<stop  offset="0.9804" style="stop-color:#2AA9E2"/>
		<stop  offset="1" style="stop-color:#29ABE2"/>
	</linearGradient>
	<path class="st3" d="M213.82,82.85c-1.73-10.2-11.4-17.06-21.6-15.33l6.27,36.93C208.69,102.72,215.55,93.05,213.82,82.85z"/>
	<linearGradient id="SVGID_5_" gradientUnits="userSpaceOnUse" x1="168.7148" y1="43.9767" x2="133.6814" y2="128.9742">
		<stop  offset="0" style="stop-color:#7ABCD8"/>
		<stop  offset="0.1139" style="stop-color:#75B8D8"/>
		<stop  offset="0.2402" style="stop-color:#68AED9"/>
		<stop  offset="0.3721" style="stop-color:#529CD9"/>
		<stop  offset="0.4888" style="stop-color:#3888DA"/>
		<stop  offset="0.676" style="stop-color:#3491DC"/>
		<stop  offset="0.9804" style="stop-color:#2AA9E2"/>
		<stop  offset="1" style="stop-color:#29ABE2"/>
	</linearGradient>
	<path class="st4" d="M104.97,74.84c-1.59,10.26,2.86,29.5,5.42,44.53l6.08-1.03c-2.59-15.23-7.37-34.48-5.33-44.55
		c6.61-32.64,49.83-41.3,66.78-11.85c5.04,8.75,7.69,29.3,10.29,44.23l7.99-1.36c-2.45-14.45-5.41-35.11-11.06-44.34
		C164.26,26.37,111.55,32.38,104.97,74.84z"/>
</g>
<g>
	<path class="st59" d="M39.17,242.3h0.71c2.93,0,4.79-1.59,4.79-3.93c0-1.52-1.08-2.56-2.49-2.56c-1.19,0-2.37,0.41-3.34,1
		l-0.74-3.38c1.04-0.67,3.04-1.52,5.49-1.52c3.49,0,5.82,2.08,5.82,5.34c0,3.49-2,5.56-5.08,6.6l-0.04,0.11
		c2.3,0.48,3.9,2.63,3.9,5.49c0,4.82-4.04,7.9-8.75,7.9c-2.23,0-4.27-0.59-5.27-1.3l1.33-3.63c1,0.56,2.3,0.96,3.75,0.96
		c2.41,0,4.12-1.67,4.12-3.97s-1.74-3.6-3.9-3.6h-0.89L39.17,242.3z"/>
	<path class="st59" d="M58.71,238.7c2.6,0,5.08,1.11,5.08,4.12c0,2.67-1.93,3.93-3.82,4.71v0.11c1.41,0.15,2.97,1.3,2.97,3.6
		c0,4.23-3.82,6.12-7.86,6.12c-4.15,0-5.34-2.3-5.34-5.38c0-3.56,1.37-9.72,4.64-11.98c1.19-0.82,2.6-1.3,4.3-1.3H58.71z
		 M56.48,249.16c-0.67,0-1.45,0.22-2.19,0.56c-0.11,0.45-0.3,1.48-0.3,2.23c0,0.96,0.37,1.97,1.74,1.97c1.48,0,2.67-1.08,2.67-2.71
		c0-1.45-0.85-2-1.89-2.04H56.48z M58.04,242.07c-1.89,0-2.86,2.78-3.19,4.34c1.34-0.3,2.63-0.63,3.52-1.19
		c0.67-0.45,1.19-1,1.19-1.74c0-0.82-0.52-1.41-1.48-1.41H58.04z"/>
	<path class="st59" d="M70.23,239l0.19,8.83c0.04,1.71,0.07,2.97,0.04,4.3h0.07c0.41-1.52,0.78-2.71,1.37-4.64l2.63-8.49h4.67
		c-1.26,3.12-3.56,9.83-6.16,15.28c-1.97,4.15-3.3,6.42-5.75,8.68c-1.08,1-2.37,1.78-3.15,2.11l-1.85-3.78
		c0.82-0.41,1.67-0.89,2.41-1.48c1.04-0.85,2.08-1.97,2.49-2.97c0.11-0.22,0.15-0.45,0.11-0.78L65.37,239H70.23z"/>
	<path class="st59" d="M85.33,239l-1.52,7.86h0.22L89,239h5.19l-6.68,8.38c1.34,0.63,1.97,2.19,2.19,5.23
		c0.15,1.82,0.33,3.52,0.67,4.53h-4.45c-0.3-0.78-0.45-3.12-0.52-4.49c-0.15-2-0.67-3.12-1.71-3.12h-0.33l-1.45,7.6h-4.6L80.8,239
		H85.33z"/>
	<path class="st59" d="M98.07,257.43c-4.56,0-5.56-3.6-5.56-6.27c0-6.12,3.38-12.46,8.87-12.46c4.6,0,5.27,3.82,5.27,6.34
		c0,5.71-3.04,12.39-8.53,12.39H98.07z M98.59,253.91c2.23,0,3.49-6.16,3.49-9.42c0-1.22-0.33-2.26-1.45-2.26
		c-2,0-3.56,5.6-3.52,8.72c0,1.33,0.04,2.97,1.45,2.97H98.59z"/>
	<path class="st59" d="M106.87,257.13l2.34-12.24c0.41-2.11,0.71-4.19,0.96-5.9h3.97l-0.19,2.34h0.07c1.26-1.71,2.93-2.63,4.9-2.63
		c2.56,0,3.52,1.78,3.52,3.97c0,1.08-0.19,2.19-0.45,3.45l-2.08,11.02h-4.64l2.15-11.28c0.11-0.63,0.22-1.22,0.22-1.93
		c0-0.85-0.37-1.45-1.15-1.45c-1.08,0-2.52,1.59-3.19,5.04l-1.82,9.61H106.87z"/>
	<path class="st59" d="M129.12,257.43c-4.56,0-5.56-3.6-5.56-6.27c0-6.12,3.38-12.46,8.87-12.46c4.6,0,5.27,3.82,5.27,6.34
		c0,5.71-3.04,12.39-8.53,12.39H129.12z M129.64,253.91c2.23,0,3.49-6.16,3.49-9.42c0-1.22-0.33-2.26-1.45-2.26
		c-2,0-3.56,5.6-3.52,8.72c0,1.33,0.04,2.97,1.45,2.97H129.64z"/>
	<path class="st59" d="M140.78,239.7c1.19-0.56,2.82-1,4.53-1c3.04,0,4.86,1.74,4.86,4.56c0,2.86-2.26,4.53-4.71,6.19
		c-1.67,1.11-3.19,2.23-3.19,3.19c0,0.74,0.52,1.26,1.52,1.26c1.41,0,2.56-0.37,3.45-0.82l0.41,3.23c-1.08,0.56-2.63,1.04-4.82,1.04
		c-2.93,0-5.12-1.48-5.12-4.53c0-3.26,2.63-4.9,5.38-6.71c1.52-1,2.71-1.89,2.71-2.71c0-0.74-0.63-1.22-1.67-1.22
		c-1.04,0-2.49,0.45-2.93,0.67L140.78,239.7z"/>
	<path class="st59" d="M166.21,239l-3.45,18.14h-4.56l2.71-14.54h-2.86l-0.82,4.27c-0.78,4.08-1.67,7.31-4.12,9.13
		c-1.04,0.82-2.37,1.45-4.15,1.45l-0.26-3.64c0.74-0.11,1.52-0.48,1.97-0.93c1.19-1.08,1.86-3.6,2.23-5.56l1.6-8.31H166.21z"/>
	<path class="st59" d="M172.01,257.43c-4.56,0-5.56-3.6-5.56-6.27c0-6.12,3.38-12.46,8.87-12.46c4.6,0,5.27,3.82,5.27,6.34
		c0,5.71-3.04,12.39-8.53,12.39H172.01z M172.53,253.91c2.23,0,3.49-6.16,3.49-9.42c0-1.22-0.33-2.26-1.45-2.26
		c-2,0-3.56,5.6-3.52,8.72c0,1.33,0.04,2.97,1.45,2.97H172.53z"/>
	<path class="st59" d="M188.77,239l-2.04,10.76c-0.19,1-0.3,1.85-0.3,2.67c0,0.78,0.37,1.26,1.08,1.26c1,0,2.37-1.52,3.08-5.04
		l1.85-9.64h4.49l-2.08,10.76c-0.19,0.93-0.3,1.74-0.3,2.56s0.3,1.37,1.04,1.37c0.93,0,2.48-1.67,3.12-5.04l1.82-9.64h4.56
		l-1.67,8.72c-0.22,1.04-0.7,3.41-0.7,4.34c0,1.82,0.74,2.45,2.23,2.56l-2.86,7.64h-3.15l1.45-5.27c-0.78-0.41-1.56-1.37-1.56-2.82
		h-0.07c-1.26,1.93-3.26,3.26-5.64,3.26c-1.74,0-2.89-1.19-3.12-2.78c-1.22,1.67-2.97,2.78-5.01,2.78c-2.26,0-3.34-1.59-3.34-3.97
		c0-0.74,0.19-2.15,0.48-3.64l2.04-10.83H188.77z"/>
	<path class="st59" d="M217.63,256.36c-1.59,0.67-3.15,1-5.23,1c-4.45,0-6.16-2.93-6.16-6.83c0-5.27,2.93-11.83,8.72-11.83
		c3.3,0,4.82,2.45,4.82,4.93c0,4.97-4.01,6.83-9.05,6.68c-0.04,0.52,0,1.45,0.41,2.11c0.45,0.74,1.26,1.3,2.52,1.3
		c1.52,0,2.6-0.37,3.67-0.89L217.63,256.36z M215.67,244.04c0-1-0.41-1.63-1.3-1.63c-1.41,0-2.67,1.82-3.19,4.41
		c2.45,0.11,4.49-0.85,4.49-2.75V244.04z"/>
	<path class="st59" d="M227.64,239l-1.37,7.01h3.78l1.37-7.01h4.64l-3.49,18.14h-4.64l1.45-7.6h-3.71l-1.45,7.6h-4.64l3.38-18.14
		H227.64z"/>
	<path class="st59" d="M243.68,239l-1.97,10.31c-0.19,1.11-0.33,2.04-0.33,2.89c0,0.89,0.33,1.45,1.11,1.45
		c1.19,0,2.37-1.56,2.89-4.15l1.93-10.5h4.64l-2.3,12.2c-0.44,2.15-0.7,4.19-0.93,5.93h-4.01l0.15-2.49h-0.07
		c-1.33,1.93-3,2.78-4.71,2.78c-2.41,0-3.45-1.82-3.45-4.19c0-1.15,0.19-2.37,0.45-3.75l1.97-10.5H243.68z"/>
	<path class="st59" d="M263.68,256.36c-1.59,0.67-3.15,1-5.23,1c-4.45,0-6.16-2.93-6.16-6.83c0-5.27,2.93-11.83,8.72-11.83
		c3.3,0,4.82,2.45,4.82,4.93c0,4.97-4.01,6.83-9.05,6.68c-0.04,0.52,0,1.45,0.41,2.11c0.45,0.74,1.26,1.3,2.52,1.3
		c1.52,0,2.6-0.37,3.67-0.89L263.68,256.36z M261.72,244.04c0-1-0.41-1.63-1.3-1.63c-1.41,0-2.67,1.82-3.19,4.41
		c2.45,0.11,4.49-0.85,4.49-2.75V244.04z"/>
</g>
</svg>
