<?xml version="1.0" encoding="utf-8"?>
<!-- Generator: Adobe Illustrator 24.0.2, SVG Export Plug-In . SVG Version: 6.00 Build 0)  -->
<svg version="1.1" id="Слой_1" xmlns="http://www.w3.org/2000/svg" xmlns:xlink="http://www.w3.org/1999/xlink" x="0px" y="0px"
	 viewBox="0 0 300 300" style="enable-background:new 0 0 300 300;" xml:space="preserve">
<style type="text/css">
	.st0{fill:url(#SVGID_1_);}
	.st1{fill:url(#SVGID_2_);}
	.st2{fill:url(#SVGID_3_);}
	.st3{fill:url(#SVGID_4_);}
	.st4{fill:url(#SVGID_5_);}
	.st5{fill:url(#SVGID_6_);}
	.st6{fill:url(#SVGID_7_);}
	.st7{fill:url(#SVGID_8_);}
	.st8{fill:url(#SVGID_9_);}
	.st9{fill:url(#SVGID_10_);}
	.st10{fill:url(#SVGID_11_);}
	.st11{fill:url(#SVGID_12_);}
	.st12{fill:url(#SVGID_13_);}
	.st13{fill:url(#SVGID_14_);}
	.st14{fill:url(#SVGID_15_);}
	.st15{fill:url(#SVGID_16_);}
	.st16{fill:url(#SVGID_17_);}
	.st17{fill:url(#SVGID_18_);}
	.st18{fill:url(#SVGID_19_);}
	.st19{fill:url(#SVGID_20_);}
	.st20{fill:url(#SVGID_21_);}
	.st21{fill:url(#SVGID_22_);}
	.st22{fill:url(#SVGID_23_);}
	.st23{fill:url(#SVGID_24_);}
	.st24{fill:url(#SVGID_25_);}
	.st25{fill:url(#SVGID_26_);}
	.st26{fill:url(#SVGID_27_);}
	.st27{fill:url(#SVGID_28_);}
	.st28{fill:url(#SVGID_29_);}
	.st29{fill:url(#SVGID_30_);}
	.st30{fill:url(#SVGID_31_);}
	.st31{fill:url(#SVGID_32_);}
	.st32{fill:url(#SVGID_33_);}
	.st33{fill:url(#SVGID_34_);}
	.st34{fill:url(#SVGID_35_);}
	.st35{fill:url(#SVGID_36_);}
	.st36{fill:url(#SVGID_37_);}
	.st37{fill:url(#SVGID_38_);}
	.st38{fill:url(#SVGID_39_);}
	.st39{fill:url(#SVGID_40_);}
	.st40{fill:url(#SVGID_41_);}
	.st41{fill:url(#SVGID_42_);}
	.st42{fill:url(#SVGID_43_);}
	.st43{fill:url(#SVGID_44_);}
	.st44{fill:url(#SVGID_45_);}
	.st45{fill:url(#SVGID_46_);}
	.st46{fill:url(#SVGID_47_);}
	.st47{fill:url(#SVGID_48_);}
	.st48{fill:url(#SVGID_49_);}
	.st49{fill:url(#SVGID_50_);}
	.st50{fill:url(#SVGID_51_);}
	.st51{fill:url(#SVGID_52_);}
	.st52{fill:url(#SVGID_53_);}
	.st53{fill:url(#SVGID_54_);}
	.st54{fill:url(#SVGID_55_);}
	.st55{fill:url(#SVGID_56_);}
	.st56{fill:url(#SVGID_57_);}
	.st57{fill:url(#SVGID_58_);}
	.st58{fill:#8CC63D;}
	.st59{fill:#3888DA;}
	.st60{fill:url(#SVGID_59_);}
	.st61{fill:url(#SVGID_60_);}
	.st62{fill:url(#SVGID_61_);}
	.st63{fill:url(#SVGID_62_);}
	.st64{fill:url(#SVGID_63_);}
	.st65{fill:url(#SVGID_64_);}
	.st66{fill:none;}
	.st67{fill:#8CC1C1;}
	.st68{fill:#2A71B7;}
</style>
<linearGradient id="SVGID_1_" gradientUnits="userSpaceOnUse" x1="165.0871" y1="86.4903" x2="122.7843" y2="189.1247">
	<stop  offset="0" style="stop-color:#7ABCD8"/>
	<stop  offset="0.1416" style="stop-color:#71B5D8"/>
	<stop  offset="0.3694" style="stop-color:#5AA3D9"/>
	<stop  offset="0.6229" style="stop-color:#3888DA"/>
	<stop  offset="0.7779" style="stop-color:#3198DE"/>
	<stop  offset="1" style="stop-color:#29ABE2"/>
</linearGradient>
<path class="st0" d="M150,177.8c-38.65,0-70.47-29.24-74.55-66.8c-0.29,2.69-0.45,5.43-0.45,8.2c0,41.42,33.58,75,75,75
	s75-33.58,75-75c0-2.77-0.16-5.51-0.45-8.2C220.47,148.56,188.65,177.8,150,177.8z"/>
<g>
	<linearGradient id="SVGID_2_" gradientUnits="userSpaceOnUse" x1="156.622" y1="48.2006" x2="120.0086" y2="137.0313">
		<stop  offset="0" style="stop-color:#7ABCD8"/>
		<stop  offset="0.1416" style="stop-color:#71B5D8"/>
		<stop  offset="0.3694" style="stop-color:#5AA3D9"/>
		<stop  offset="0.6229" style="stop-color:#3888DA"/>
		<stop  offset="0.7779" style="stop-color:#3198DE"/>
		<stop  offset="1" style="stop-color:#29ABE2"/>
	</linearGradient>
	<path class="st1" d="M138.29,107.46l-20.1,0.09l-6.64,18.21H92.66l36.72-80.26h20.68l6.59,80.26H138.6L138.29,107.46z
		 M124.13,91.25h13.01l-1.3-29.77C135.22,63.23,124.13,91.25,124.13,91.25z"/>
</g>
<g>
	<linearGradient id="SVGID_3_" gradientUnits="userSpaceOnUse" x1="191.033" y1="50.1188" x2="174.369" y2="90.5489">
		<stop  offset="0" style="stop-color:#7ABCD8"/>
		<stop  offset="0.1416" style="stop-color:#71B5D8"/>
		<stop  offset="0.3694" style="stop-color:#5AA3D9"/>
		<stop  offset="0.6229" style="stop-color:#3888DA"/>
		<stop  offset="0.7779" style="stop-color:#3198DE"/>
		<stop  offset="1" style="stop-color:#29ABE2"/>
	</linearGradient>
	<path class="st2" d="M176.99,91.63V75.68h-16.16v-10.7h16.16V49.04h11.43v15.94h16.16v10.7h-16.16v15.94H176.99z"/>
</g>
<g>
	<path class="st59" d="M32.24,242.71h6.27c0-0.33,0.04-0.71,0.04-1.11c0-2.19-0.59-5.75-3.6-5.75c-0.85,0-1.71,0.22-2.45,0.59
		l-0.93-3.56c1.19-0.59,2.63-1.04,4.23-1.04c5.9,0,7.34,5.45,7.34,10.31c0,4.56-1.41,9.42-4.34,12.5c-1.67,1.74-3.82,2.78-6.64,2.78
		c-1.78,0-3.3-0.56-4.3-1.04l1.26-3.78c0.85,0.41,1.85,0.71,2.93,0.71c3.38,0,5.19-3.67,5.75-6.6h-6.19L32.24,242.71z"/>
	<path class="st59" d="M51.13,239l-1.37,7.01h3.78l1.37-7.01h4.64l-3.49,18.14h-4.64l1.45-7.6h-3.71l-1.45,7.6h-4.64L46.46,239
		H51.13z"/>
	<path class="st59" d="M71.23,256.36c-1.59,0.67-3.15,1-5.23,1c-4.45,0-6.16-2.93-6.16-6.83c0-5.27,2.93-11.83,8.72-11.83
		c3.3,0,4.82,2.45,4.82,4.93c0,4.97-4.01,6.83-9.05,6.68c-0.04,0.52,0,1.45,0.41,2.11c0.45,0.74,1.26,1.3,2.52,1.3
		c1.52,0,2.6-0.37,3.67-0.89L71.23,256.36z M69.27,244.04c0-1-0.41-1.63-1.3-1.63c-1.41,0-2.67,1.82-3.19,4.41
		c2.45,0.11,4.49-0.85,4.49-2.75V244.04z"/>
	<path class="st59" d="M71.81,264.26l3.67-19.29c0.41-2.15,0.7-4.19,0.96-5.97h3.97l-0.3,2.63h0.07c1.11-1.82,2.86-2.93,4.53-2.93
		c3.26,0,3.89,2.82,3.89,5.6c0,6.08-3.26,13.13-8.57,13.13c-0.82,0-1.71-0.15-2.23-0.45h-0.11l-1.34,7.27H71.81z M78.38,253.54
		c0.37,0.26,0.74,0.44,1.3,0.44c2.82,0,4.19-6.16,4.19-8.87c0-1.22-0.11-2.49-1.33-2.49c-1.19,0-2.45,1.89-2.89,4.08L78.38,253.54z"
		/>
	<path class="st59" d="M91.64,239.7c1.19-0.56,2.82-1,4.53-1c3.04,0,4.86,1.74,4.86,4.56c0,2.86-2.26,4.53-4.71,6.19
		c-1.67,1.11-3.19,2.23-3.19,3.19c0,0.74,0.52,1.26,1.52,1.26c1.41,0,2.56-0.37,3.45-0.82l0.41,3.23c-1.08,0.56-2.63,1.04-4.82,1.04
		c-2.93,0-5.12-1.48-5.12-4.53c0-3.26,2.63-4.9,5.38-6.71c1.52-1,2.71-1.89,2.71-2.71c0-0.74-0.63-1.22-1.67-1.22
		c-1.04,0-2.49,0.45-2.93,0.67L91.64,239.7z"/>
	<path class="st59" d="M106.75,257.43c-4.56,0-5.56-3.6-5.56-6.27c0-6.12,3.38-12.46,8.87-12.46c4.6,0,5.27,3.82,5.27,6.34
		c0,5.71-3.04,12.39-8.53,12.39H106.75z M107.27,253.91c2.23,0,3.49-6.16,3.49-9.42c0-1.22-0.33-2.26-1.45-2.26
		c-2,0-3.56,5.6-3.52,8.72c0,1.33,0.04,2.97,1.45,2.97H107.27z"/>
	<path class="st59" d="M125.12,256.88c-0.52,0.22-1.71,0.48-3.23,0.48c-4.01,0-5.68-3.19-5.68-6.53c0-6.49,4.04-12.09,9.76-12.09
		c1.11,0,1.82,0.15,2.26,0.33l-1.15,3.78c-0.44-0.11-0.89-0.19-1.3-0.19c-2.71,0-4.93,3.64-4.93,7.49c0,2.08,0.85,3.41,2.37,3.41
		c0.85,0,1.63-0.26,2.23-0.41L125.12,256.88z"/>
	<path class="st59" d="M142.48,235.17c-0.89,0.3-2.15,0.45-3.23,0.59c-2.04,0.37-3.86,1.11-5.27,2.86c-0.74,0.96-1.3,2.41-1.56,3.34
		h0.15c1.04-1.82,2.71-2.97,4.49-2.97c3.52,0,4.45,3.49,4.38,6.45c-0.15,4.93-2.63,11.98-8.57,11.98c-3.56,0-5.42-2.71-5.42-7.46
		c0-5.19,1.71-10.54,4.6-13.76c1.86-2.34,4.23-3.78,7.31-4.23c1.56-0.19,2.89-0.48,3.64-0.82L142.48,235.17z M133.5,253.91
		c2.19,0,3.34-5.71,3.34-8.09c0-1.19-0.15-3.15-1.56-3.15c-0.93,0-1.82,1-2.37,2.41c-0.67,1.67-1.04,3.75-1.04,5.97
		c0,1.41,0.52,2.86,1.6,2.86H133.5z"/>
	<path class="st59" d="M153.67,256.36c-1.6,0.67-3.15,1-5.23,1c-4.45,0-6.16-2.93-6.16-6.83c0-5.27,2.93-11.83,8.72-11.83
		c3.3,0,4.82,2.45,4.82,4.93c0,4.97-4.01,6.83-9.05,6.68c-0.04,0.52,0,1.45,0.41,2.11c0.45,0.74,1.26,1.3,2.52,1.3
		c1.52,0,2.6-0.37,3.67-0.89L153.67,256.36z M151.7,244.04c0-1-0.41-1.63-1.3-1.63c-1.41,0-2.67,1.82-3.19,4.41
		c2.45,0.11,4.49-0.85,4.49-2.75V244.04z"/>
	<path class="st59" d="M154.24,264.26l3.67-19.29c0.41-2.15,0.71-4.19,0.96-5.97h3.97l-0.3,2.63h0.07c1.11-1.82,2.86-2.93,4.53-2.93
		c3.26,0,3.9,2.82,3.9,5.6c0,6.08-3.26,13.13-8.57,13.13c-0.82,0-1.71-0.15-2.23-0.45h-0.11l-1.33,7.27H154.24z M160.81,253.54
		c0.37,0.26,0.74,0.44,1.3,0.44c2.82,0,4.19-6.16,4.19-8.87c0-1.22-0.11-2.49-1.34-2.49c-1.19,0-2.45,1.89-2.89,4.08L160.81,253.54z
		"/>
	<path class="st59" d="M183.35,256.36c-1.59,0.67-3.15,1-5.23,1c-4.45,0-6.16-2.93-6.16-6.83c0-5.27,2.93-11.83,8.72-11.83
		c3.3,0,4.82,2.45,4.82,4.93c0,4.97-4.01,6.83-9.05,6.68c-0.04,0.52,0,1.45,0.41,2.11c0.45,0.74,1.26,1.3,2.52,1.3
		c1.52,0,2.6-0.37,3.67-0.89L183.35,256.36z M181.38,244.04c0-1-0.41-1.63-1.3-1.63c-1.41,0-2.67,1.82-3.19,4.41
		c2.45,0.11,4.49-0.85,4.49-2.75V244.04z"/>
	<path class="st59" d="M192.33,239l1.97,7.86h0.37l1.41-7.86h4.38l-1.56,7.86h0.33l5.04-7.86h4.97l-6.49,8.38
		c1.48,0.56,2.26,3.04,2.41,5.38c0.11,1.08,0.3,3.38,0.63,4.38h-4.53c-0.26-0.78-0.37-3.12-0.45-4.08
		c-0.15-1.82-0.33-3.67-2.04-3.67h-0.26l-1.48,7.75h-4.41l1.52-7.72h-0.19c-1.63,0-2.56,1.15-3.49,3.41
		c-0.74,1.85-1.22,3.19-1.89,4.3h-4.56c0.82-1.33,1.26-2.6,2.04-4.53c0.96-2.49,2.41-5.01,4.9-5.38l-3.49-8.23H192.33z"/>
	<path class="st59" d="M219.31,256.36c-1.59,0.67-3.15,1-5.23,1c-4.45,0-6.16-2.93-6.16-6.83c0-5.27,2.93-11.83,8.72-11.83
		c3.3,0,4.82,2.45,4.82,4.93c0,4.97-4.01,6.83-9.05,6.68c-0.04,0.52,0,1.45,0.41,2.11c0.45,0.74,1.26,1.3,2.52,1.3
		c1.52,0,2.6-0.37,3.67-0.89L219.31,256.36z M217.35,244.04c0-1-0.41-1.63-1.3-1.63c-1.41,0-2.67,1.82-3.19,4.41
		c2.45,0.11,4.49-0.85,4.49-2.75V244.04z"/>
	<path class="st59" d="M229.32,239l-1.37,7.01h3.78l1.37-7.01h4.64l-3.49,18.14h-4.64l1.45-7.6h-3.71l-1.45,7.6h-4.64l3.38-18.14
		H229.32z"/>
	<path class="st59" d="M245.36,239l-1.97,10.31c-0.19,1.11-0.33,2.04-0.33,2.89c0,0.89,0.33,1.45,1.11,1.45
		c1.19,0,2.37-1.56,2.89-4.15L249,239h4.64l-2.3,12.2c-0.45,2.15-0.71,4.19-0.93,5.93h-4.01l0.15-2.49h-0.07
		c-1.34,1.93-3,2.78-4.71,2.78c-2.41,0-3.45-1.82-3.45-4.19c0-1.15,0.19-2.37,0.45-3.75l1.97-10.5H245.36z"/>
	<path class="st59" d="M265.36,256.36c-1.59,0.67-3.15,1-5.23,1c-4.45,0-6.16-2.93-6.16-6.83c0-5.27,2.93-11.83,8.72-11.83
		c3.3,0,4.82,2.45,4.82,4.93c0,4.97-4.01,6.83-9.05,6.68c-0.04,0.52,0,1.45,0.41,2.11c0.45,0.74,1.26,1.3,2.52,1.3
		c1.52,0,2.6-0.37,3.67-0.89L265.36,256.36z M263.4,244.04c0-1-0.41-1.63-1.3-1.63c-1.41,0-2.67,1.82-3.19,4.41
		c2.45,0.11,4.49-0.85,4.49-2.75V244.04z"/>
</g>
</svg>
