<?xml version="1.0" encoding="utf-8"?>
<!-- Generator: Adobe Illustrator 24.0.2, SVG Export Plug-In . SVG Version: 6.00 Build 0)  -->
<svg version="1.1" id="Слой_1" xmlns="http://www.w3.org/2000/svg" xmlns:xlink="http://www.w3.org/1999/xlink" x="0px" y="0px"
	 viewBox="0 0 300 300" style="enable-background:new 0 0 300 300;" xml:space="preserve">
<style type="text/css">
	.st0{fill:url(#SVGID_1_);}
	.st1{fill:url(#SVGID_2_);}
	.st2{fill:url(#SVGID_3_);}
	.st3{fill:url(#SVGID_4_);}
	.st4{fill:url(#SVGID_5_);}
	.st5{fill:url(#SVGID_6_);}
	.st6{fill:url(#SVGID_7_);}
	.st7{fill:url(#SVGID_8_);}
	.st8{fill:url(#SVGID_9_);}
	.st9{fill:url(#SVGID_10_);}
	.st10{fill:url(#SVGID_11_);}
	.st11{fill:url(#SVGID_12_);}
	.st12{fill:url(#SVGID_13_);}
	.st13{fill:url(#SVGID_14_);}
	.st14{fill:url(#SVGID_15_);}
	.st15{fill:url(#SVGID_16_);}
	.st16{fill:url(#SVGID_17_);}
	.st17{fill:url(#SVGID_18_);}
	.st18{fill:url(#SVGID_19_);}
	.st19{fill:url(#SVGID_20_);}
	.st20{fill:url(#SVGID_21_);}
	.st21{fill:url(#SVGID_22_);}
	.st22{fill:url(#SVGID_23_);}
	.st23{fill:url(#SVGID_24_);}
	.st24{fill:url(#SVGID_25_);}
	.st25{fill:url(#SVGID_26_);}
	.st26{fill:url(#SVGID_27_);}
	.st27{fill:url(#SVGID_28_);}
	.st28{fill:url(#SVGID_29_);}
	.st29{fill:url(#SVGID_30_);}
	.st30{fill:url(#SVGID_31_);}
	.st31{fill:url(#SVGID_32_);}
	.st32{fill:url(#SVGID_33_);}
	.st33{fill:url(#SVGID_34_);}
	.st34{fill:url(#SVGID_35_);}
	.st35{fill:url(#SVGID_36_);}
	.st36{fill:url(#SVGID_37_);}
	.st37{fill:url(#SVGID_38_);}
	.st38{fill:url(#SVGID_39_);}
	.st39{fill:url(#SVGID_40_);}
	.st40{fill:url(#SVGID_41_);}
	.st41{fill:url(#SVGID_42_);}
	.st42{fill:url(#SVGID_43_);}
	.st43{fill:url(#SVGID_44_);}
	.st44{fill:url(#SVGID_45_);}
	.st45{fill:url(#SVGID_46_);}
	.st46{fill:url(#SVGID_47_);}
	.st47{fill:url(#SVGID_48_);}
	.st48{fill:url(#SVGID_49_);}
	.st49{fill:url(#SVGID_50_);}
	.st50{fill:url(#SVGID_51_);}
	.st51{fill:url(#SVGID_52_);}
	.st52{fill:url(#SVGID_53_);}
	.st53{fill:url(#SVGID_54_);}
	.st54{fill:url(#SVGID_55_);}
	.st55{fill:url(#SVGID_56_);}
	.st56{fill:url(#SVGID_57_);}
	.st57{fill:url(#SVGID_58_);}
	.st58{fill:#8CC63D;}
	.st59{fill:#3888DA;}
	.st60{fill:url(#SVGID_59_);}
	.st61{fill:url(#SVGID_60_);}
	.st62{fill:url(#SVGID_61_);}
	.st63{fill:url(#SVGID_62_);}
	.st64{fill:url(#SVGID_63_);}
	.st65{fill:url(#SVGID_64_);}
	.st66{fill:none;}
	.st67{fill:#8CC1C1;}
	.st68{fill:#2A71B7;}
</style>
<linearGradient id="SVGID_1_" gradientUnits="userSpaceOnUse" x1="75" y1="152.6" x2="225" y2="152.6">
	<stop  offset="0" style="stop-color:#7ABCD8"/>
	<stop  offset="0.1416" style="stop-color:#71B5D8"/>
	<stop  offset="0.3694" style="stop-color:#5AA3D9"/>
	<stop  offset="0.6229" style="stop-color:#3888DA"/>
	<stop  offset="0.7779" style="stop-color:#3198DE"/>
	<stop  offset="1" style="stop-color:#29ABE2"/>
</linearGradient>
<path class="st0" d="M150,177.8c-38.65,0-70.47-29.24-74.55-66.8c-0.29,2.69-0.45,5.43-0.45,8.2c0,41.42,33.58,75,75,75
	s75-33.58,75-75c0-2.77-0.16-5.51-0.45-8.2C220.47,148.56,188.65,177.8,150,177.8z"/>
<linearGradient id="SVGID_2_" gradientUnits="userSpaceOnUse" x1="156.3263" y1="113.5001" x2="180.6317" y2="113.5001">
	<stop  offset="0" style="stop-color:#3888DA"/>
	<stop  offset="0" style="stop-color:#67ADD9"/>
	<stop  offset="0" style="stop-color:#7ABCD8"/>
</linearGradient>
<path class="st1" d="M180.63,102.59c-8.81,1.08-13.04,0.12-21.18-2.17l-3.13,12.83v13.32h13.4L180.63,102.59z"/>
<linearGradient id="SVGID_3_" gradientUnits="userSpaceOnUse" x1="162.6278" y1="70.3496" x2="184.2058" y2="70.3496">
	<stop  offset="0" style="stop-color:#29ABE2"/>
	<stop  offset="0" style="stop-color:#3888DA"/>
	<stop  offset="0.011" style="stop-color:#67ADD9"/>
	<stop  offset="0.0168" style="stop-color:#7ABCD8"/>
</linearGradient>
<path class="st2" d="M172.68,56.15c0,0-0.36,9.48-2.49,11.41h-7.56l4.13,16.99l17.45-16.83l-7.7-0.08
	c1.93-1.99,0.84-11.49,0.84-11.49H172.68z"/>
<linearGradient id="SVGID_4_" gradientUnits="userSpaceOnUse" x1="170.7291" y1="40.9308" x2="125.5511" y2="150.5407">
	<stop  offset="0" style="stop-color:#7ABCD8"/>
	<stop  offset="0.1042" style="stop-color:#71B5D8"/>
	<stop  offset="0.2717" style="stop-color:#5AA3D9"/>
	<stop  offset="0.4582" style="stop-color:#3888DA"/>
	<stop  offset="0.681" style="stop-color:#3198DE"/>
	<stop  offset="1" style="stop-color:#29ABE2"/>
</linearGradient>
<path class="st3" d="M153.95,45.82c0,0-3.95,2.81-7.64,11.62v29.94H113.1V54.16h12.51h1.11c1.1-4,4.36-8.34,4.36-8.34H104.6v90.8
	h14.41c0,0-1.17-5.41-1.33-8.07h-4.57V95.35h33.21v33.21H130.4c0,0,1.75,6.78,3.37,8.07h61.64v-90.8H153.95z M186.82,128.89h-33.21
	V95.69h33.21V128.89z M187.16,87.37h-33.21V54.16h33.21V87.37z"/>
<linearGradient id="SVGID_5_" gradientUnits="userSpaceOnUse" x1="159.6639" y1="144.7409" x2="114.219" y2="118.5032">
	<stop  offset="0.3131" style="stop-color:#7ABCD8"/>
	<stop  offset="0.3835" style="stop-color:#71B5D8"/>
	<stop  offset="0.4968" style="stop-color:#5AA3D9"/>
	<stop  offset="0.6229" style="stop-color:#3888DA"/>
</linearGradient>
<path class="st4" d="M162.29,140.19h-15.17c0,0-15.68,17.9-22.1-21.89l8.46-0.25l-7.7-19.57c-6.42,11.62-10.71,20.3-10.2,19.31
	l5.07,0.39C120.81,188.6,162.29,140.19,162.29,140.19z"/>
<linearGradient id="SVGID_6_" gradientUnits="userSpaceOnUse" x1="159.3355" y1="67.9511" x2="119.9878" y2="45.2337">
	<stop  offset="0.3131" style="stop-color:#7ABCD8"/>
	<stop  offset="0.3835" style="stop-color:#71B5D8"/>
	<stop  offset="0.4968" style="stop-color:#5AA3D9"/>
	<stop  offset="0.6229" style="stop-color:#3888DA"/>
</linearGradient>
<path class="st5" d="M137.92,82.59h-20.58c30.32-88.72,58.56-38.98,58.56-38.98l-6.1,0.14C169.79,43.75,143.53,25.32,137.92,82.59z"
	/>
<g>
	<path class="st59" d="M41.62,256.13l1.33-9.79c0.26-2.04,0.74-4.75,1.34-8.01h-0.15c-1.08,3.26-2.26,6.16-2.97,7.86l-4.08,9.53
		h-3.3l-0.45-9.64c-0.07-1.67-0.18-4.49-0.11-7.75h-0.07c-0.63,3.26-1.19,5.97-1.71,8.01l-2.3,9.79h-4.01l6.34-25h4.93L36.87,243
		c0.07,1.85,0.15,4.45,0.07,6.23h0.07c0.48-1.78,1.45-4.34,2.19-6.23l4.79-11.87h4.93l-3.26,25H41.62z"/>
	<path class="st59" d="M56.28,238l-1.97,10.31c-0.19,1.11-0.33,2.04-0.33,2.89c0,0.89,0.33,1.45,1.11,1.45
		c1.19,0,2.37-1.56,2.89-4.15l1.93-10.5h4.64l-2.3,12.2c-0.44,2.15-0.7,4.19-0.93,5.93h-4.01l0.15-2.49H57.4
		c-1.33,1.93-3,2.78-4.71,2.78c-2.41,0-3.45-1.82-3.45-4.19c0-1.15,0.19-2.37,0.45-3.75l1.97-10.5H56.28z"/>
	<path class="st59" d="M72.34,238l-1.52,7.86h0.22l4.97-7.86h5.19l-6.68,8.38c1.34,0.63,1.97,2.19,2.19,5.23
		c0.15,1.82,0.33,3.52,0.67,4.53h-4.45c-0.3-0.78-0.45-3.12-0.52-4.49c-0.15-2-0.67-3.12-1.71-3.12h-0.33l-1.45,7.6h-4.6L67.81,238
		H72.34z"/>
	<path class="st59" d="M77.68,263.26l3.67-19.29c0.41-2.15,0.71-4.19,0.96-5.97h3.97l-0.3,2.63h0.07c1.11-1.82,2.86-2.93,4.53-2.93
		c3.26,0,3.9,2.82,3.9,5.6c0,6.08-3.26,13.13-8.57,13.13c-0.82,0-1.71-0.15-2.23-0.45h-0.11l-1.33,7.27H77.68z M84.24,252.54
		c0.37,0.26,0.74,0.44,1.3,0.44c2.82,0,4.19-6.16,4.19-8.87c0-1.22-0.11-2.49-1.34-2.49c-1.19,0-2.45,1.89-2.89,4.08L84.24,252.54z"
		/>
	<path class="st59" d="M100.94,256.43c-4.56,0-5.56-3.6-5.56-6.27c0-6.12,3.38-12.46,8.87-12.46c4.6,0,5.27,3.82,5.27,6.34
		c0,5.71-3.04,12.39-8.53,12.39H100.94z M101.46,252.91c2.23,0,3.49-6.16,3.49-9.42c0-1.22-0.33-2.26-1.45-2.26
		c-2,0-3.56,5.6-3.52,8.72c0,1.33,0.04,2.97,1.45,2.97H101.46z"/>
	<path class="st59" d="M119.48,237.7c2.6,0,5.08,1.11,5.08,4.12c0,2.67-1.93,3.93-3.82,4.71v0.11c1.41,0.15,2.97,1.3,2.97,3.6
		c0,4.23-3.82,6.12-7.86,6.12c-4.16,0-5.34-2.3-5.34-5.38c0-3.56,1.37-9.72,4.64-11.98c1.19-0.82,2.6-1.3,4.3-1.3H119.48z
		 M117.25,248.16c-0.67,0-1.45,0.22-2.19,0.56c-0.11,0.45-0.3,1.48-0.3,2.23c0,0.96,0.37,1.97,1.74,1.97c1.48,0,2.67-1.08,2.67-2.71
		c0-1.45-0.85-2-1.89-2.04H117.25z M118.81,241.07c-1.89,0-2.86,2.78-3.19,4.34c1.33-0.3,2.63-0.63,3.52-1.19
		c0.67-0.45,1.19-1,1.19-1.74c0-0.82-0.52-1.41-1.48-1.41H118.81z"/>
	<path class="st59" d="M136.88,255.36c-1.6,0.67-3.15,1-5.23,1c-4.45,0-6.16-2.93-6.16-6.83c0-5.27,2.93-11.83,8.72-11.83
		c3.3,0,4.82,2.45,4.82,4.93c0,4.97-4.01,6.83-9.05,6.68c-0.04,0.52,0,1.45,0.41,2.11c0.45,0.74,1.26,1.3,2.52,1.3
		c1.52,0,2.6-0.37,3.67-0.89L136.88,255.36z M134.92,243.04c0-1-0.41-1.63-1.3-1.63c-1.41,0-2.67,1.82-3.19,4.41
		c2.45,0.11,4.49-0.85,4.49-2.75V243.04z"/>
	<path class="st59" d="M146.89,238l-1.37,7.01h3.78l1.37-7.01h4.64l-3.49,18.14h-4.64l1.45-7.6h-3.71l-1.45,7.6h-4.64l3.38-18.14
		H146.89z"/>
	<path class="st59" d="M155.03,256.13l2.34-12.24c0.41-2.11,0.71-4.19,0.96-5.9h3.97l-0.19,2.49h0.07c1.22-1.86,2.89-2.78,4.93-2.78
		c1.74,0,2.78,1.19,3.04,2.78c1.19-1.71,2.93-2.78,4.97-2.78c2.26,0,3.34,1.59,3.34,3.93c0,0.78-0.19,2.19-0.44,3.67l-2.08,10.83
		h-4.56l2.04-10.76c0.18-1,0.3-1.89,0.3-2.71c0-0.74-0.37-1.26-1.11-1.26c-1,0-2.37,1.52-3.08,5.08l-1.85,9.64h-4.45l2.04-10.76
		c0.19-0.93,0.3-1.78,0.3-2.6c0-0.82-0.3-1.37-1.04-1.37c-0.93,0-2.45,1.67-3.08,5.08l-1.82,9.64H155.03z"/>
	<path class="st59" d="M186.91,238l-1.97,10.31c-0.19,1.11-0.33,2.04-0.33,2.89c0,0.89,0.33,1.45,1.11,1.45
		c1.19,0,2.37-1.56,2.89-4.15l1.93-10.5h4.64l-2.3,12.2c-0.45,2.15-0.71,4.19-0.93,5.93h-4.01l0.15-2.49h-0.07
		c-1.34,1.93-3,2.78-4.71,2.78c-2.41,0-3.45-1.82-3.45-4.19c0-1.15,0.19-2.37,0.45-3.75l1.97-10.5H186.91z"/>
	<path class="st59" d="M211.3,238l-3.45,18.14h-4.56l2.71-14.54h-2.86l-0.82,4.27c-0.78,4.08-1.67,7.31-4.12,9.13
		c-1.04,0.82-2.37,1.45-4.16,1.45l-0.26-3.64c0.74-0.11,1.52-0.48,1.97-0.93c1.19-1.08,1.85-3.6,2.23-5.56l1.59-8.31H211.3z"/>
	<path class="st59" d="M223.25,256.13h-4.6l1.33-6.9h-0.52c-1.56,0-2.52,1.67-3.19,3.26c-0.52,1.15-1.11,2.6-1.82,3.63h-4.93
		c1-1.63,1.56-2.86,2.26-4.49c1-2.3,2.34-3.56,3.67-4.01v-0.07c-1.15-0.48-2.52-1.82-2.52-3.93c0-4.9,4.38-5.93,8.75-5.93
		c2.19,0,3.89,0.15,5.04,0.33L223.25,256.13z M221.5,241.11c-0.3-0.04-0.67-0.04-1.11-0.04c-1.41,0-2.93,0.71-2.93,2.52
		c0,1.74,1.37,2.41,2.74,2.41h0.41L221.5,241.11z"/>
	<path class="st59" d="M234.33,238l-1.97,10.31c-0.19,1.11-0.33,2.04-0.33,2.89c0,0.89,0.33,1.45,1.11,1.45
		c1.19,0,2.37-1.56,2.89-4.15l1.93-10.5h4.64l-1.89,9.98c-0.22,1.04-0.48,2.15-0.48,3.08c0,1.82,0.74,2.45,2.23,2.56l-2.86,7.64
		h-3.15l1.45-5.27c-0.33-0.19-0.71-0.56-0.93-1.04c-0.22-0.48-0.33-1.11-0.26-1.78h-0.07c-1.26,2.11-3.45,3.26-5.67,3.26
		c-2.41,0-3.67-1.82-3.67-4.19c0-1.15,0.19-2.37,0.45-3.75l1.97-10.5H234.33z"/>
	<path class="st59" d="M251.06,238l-1.97,10.31c-0.19,1.11-0.33,2.04-0.33,2.89c0,0.89,0.33,1.45,1.11,1.45
		c1.19,0,2.37-1.56,2.89-4.15l1.93-10.5h4.64l-2.3,12.2c-0.44,2.15-0.7,4.19-0.93,5.93h-4.01l0.15-2.49h-0.07
		c-1.33,1.93-3,2.78-4.71,2.78c-2.41,0-3.45-1.82-3.45-4.19c0-1.15,0.19-2.37,0.45-3.75l1.97-10.5H251.06z"/>
	<path class="st59" d="M271.36,256.13h-4.6l1.33-6.9h-0.52c-1.56,0-2.52,1.67-3.19,3.26c-0.52,1.15-1.11,2.6-1.82,3.63h-4.93
		c1-1.63,1.56-2.86,2.26-4.49c1-2.3,2.34-3.56,3.67-4.01v-0.07c-1.15-0.48-2.52-1.82-2.52-3.93c0-4.9,4.38-5.93,8.75-5.93
		c2.19,0,3.89,0.15,5.04,0.33L271.36,256.13z M269.62,241.11c-0.3-0.04-0.67-0.04-1.11-0.04c-1.41,0-2.93,0.71-2.93,2.52
		c0,1.74,1.37,2.41,2.74,2.41h0.41L269.62,241.11z"/>
</g>
</svg>
