<?xml version="1.0" encoding="utf-8"?>
<!-- Generator: Adobe Illustrator 24.0.2, SVG Export Plug-In . SVG Version: 6.00 Build 0)  -->
<svg version="1.1" id="Слой_1" xmlns="http://www.w3.org/2000/svg" xmlns:xlink="http://www.w3.org/1999/xlink" x="0px" y="0px"
	 viewBox="0 0 300 300" style="enable-background:new 0 0 300 300;" xml:space="preserve">
<style type="text/css">
	.st0{fill:url(#SVGID_1_);}
	.st1{fill:url(#SVGID_2_);}
	.st2{fill:url(#SVGID_3_);}
	.st3{fill:url(#SVGID_4_);}
	.st4{fill:url(#SVGID_5_);}
	.st5{fill:url(#SVGID_6_);}
	.st6{fill:url(#SVGID_7_);}
	.st7{fill:url(#SVGID_8_);}
	.st8{fill:url(#SVGID_9_);}
	.st9{fill:url(#SVGID_10_);}
	.st10{fill:url(#SVGID_11_);}
	.st11{fill:url(#SVGID_12_);}
	.st12{fill:url(#SVGID_13_);}
	.st13{fill:url(#SVGID_14_);}
	.st14{fill:url(#SVGID_15_);}
	.st15{fill:url(#SVGID_16_);}
	.st16{fill:url(#SVGID_17_);}
	.st17{fill:url(#SVGID_18_);}
	.st18{fill:url(#SVGID_19_);}
	.st19{fill:url(#SVGID_20_);}
	.st20{fill:url(#SVGID_21_);}
	.st21{fill:url(#SVGID_22_);}
	.st22{fill:url(#SVGID_23_);}
	.st23{fill:url(#SVGID_24_);}
	.st24{fill:url(#SVGID_25_);}
	.st25{fill:url(#SVGID_26_);}
	.st26{fill:url(#SVGID_27_);}
	.st27{fill:url(#SVGID_28_);}
	.st28{fill:url(#SVGID_29_);}
	.st29{fill:url(#SVGID_30_);}
	.st30{fill:url(#SVGID_31_);}
	.st31{fill:url(#SVGID_32_);}
	.st32{fill:url(#SVGID_33_);}
	.st33{fill:url(#SVGID_34_);}
	.st34{fill:url(#SVGID_35_);}
	.st35{fill:url(#SVGID_36_);}
	.st36{fill:url(#SVGID_37_);}
	.st37{fill:url(#SVGID_38_);}
	.st38{fill:url(#SVGID_39_);}
	.st39{fill:url(#SVGID_40_);}
	.st40{fill:url(#SVGID_41_);}
	.st41{fill:url(#SVGID_42_);}
	.st42{fill:url(#SVGID_43_);}
	.st43{fill:url(#SVGID_44_);}
	.st44{fill:url(#SVGID_45_);}
	.st45{fill:url(#SVGID_46_);}
	.st46{fill:url(#SVGID_47_);}
	.st47{fill:url(#SVGID_48_);}
	.st48{fill:url(#SVGID_49_);}
	.st49{fill:url(#SVGID_50_);}
	.st50{fill:url(#SVGID_51_);}
	.st51{fill:url(#SVGID_52_);}
	.st52{fill:url(#SVGID_53_);}
	.st53{fill:url(#SVGID_54_);}
	.st54{fill:url(#SVGID_55_);}
	.st55{fill:url(#SVGID_56_);}
	.st56{fill:url(#SVGID_57_);}
	.st57{fill:url(#SVGID_58_);}
	.st58{fill:#8CC63D;}
	.st59{fill:#3888DA;}
	.st60{fill:url(#SVGID_59_);}
	.st61{fill:url(#SVGID_60_);}
	.st62{fill:url(#SVGID_61_);}
	.st63{fill:url(#SVGID_62_);}
	.st64{fill:url(#SVGID_63_);}
	.st65{fill:url(#SVGID_64_);}
	.st66{fill:none;}
	.st67{fill:#8CC1C1;}
	.st68{fill:#2A71B7;}
</style>
<linearGradient id="SVGID_1_" gradientUnits="userSpaceOnUse" x1="75" y1="152.6" x2="225" y2="152.6">
	<stop  offset="0" style="stop-color:#7ABCD8"/>
	<stop  offset="0.1416" style="stop-color:#71B5D8"/>
	<stop  offset="0.3694" style="stop-color:#5AA3D9"/>
	<stop  offset="0.6229" style="stop-color:#3888DA"/>
	<stop  offset="0.7779" style="stop-color:#3198DE"/>
	<stop  offset="1" style="stop-color:#29ABE2"/>
</linearGradient>
<path class="st0" d="M150,177.8c-38.65,0-70.47-29.24-74.55-66.8c-0.29,2.69-0.45,5.43-0.45,8.2c0,41.42,33.58,75,75,75
	s75-33.58,75-75c0-2.77-0.16-5.51-0.45-8.2C220.47,148.56,188.65,177.8,150,177.8z"/>
<g>
	<linearGradient id="SVGID_2_" gradientUnits="userSpaceOnUse" x1="98.1915" y1="131.6953" x2="132.3531" y2="111.9721">
		<stop  offset="0" style="stop-color:#7ABCD8"/>
		<stop  offset="0.4889" style="stop-color:#78BBD8"/>
		<stop  offset="0.665" style="stop-color:#71B5D8"/>
		<stop  offset="0.7905" style="stop-color:#66ACD9"/>
		<stop  offset="0.892" style="stop-color:#559FD9"/>
		<stop  offset="0.9779" style="stop-color:#3F8DDA"/>
		<stop  offset="1" style="stop-color:#3888DA"/>
	</linearGradient>
	<polygon class="st1" points="94.47,125.25 133.81,135.14 133.81,114.49 94.47,109.84 	"/>
	<linearGradient id="SVGID_3_" gradientUnits="userSpaceOnUse" x1="138.6022" y1="135.4534" x2="201.3496" y2="99.2262">
		<stop  offset="0" style="stop-color:#7ABCD8"/>
		<stop  offset="0.1562" style="stop-color:#6EB2D8"/>
		<stop  offset="0.7104" style="stop-color:#4794DA"/>
		<stop  offset="1" style="stop-color:#3888DA"/>
	</linearGradient>
	<polygon class="st2" points="138.42,135.14 204.96,118.3 207.48,109.84 138.42,114.4 	"/>
	<linearGradient id="SVGID_4_" gradientUnits="userSpaceOnUse" x1="96.8604" y1="107.9129" x2="127.2341" y2="90.3766">
		<stop  offset="0" style="stop-color:#7ABCD8"/>
		<stop  offset="0.4889" style="stop-color:#78BBD8"/>
		<stop  offset="0.665" style="stop-color:#71B5D8"/>
		<stop  offset="0.7905" style="stop-color:#66ACD9"/>
		<stop  offset="0.892" style="stop-color:#559FD9"/>
		<stop  offset="0.9779" style="stop-color:#3F8DDA"/>
		<stop  offset="1" style="stop-color:#3888DA"/>
	</linearGradient>
	<polygon class="st3" points="126.97,89.92 96.15,88.78 96.15,106.69 126.71,110.23 	"/>
	<linearGradient id="SVGID_5_" gradientUnits="userSpaceOnUse" x1="135.9743" y1="117.922" x2="197.9829" y2="82.1213">
		<stop  offset="0" style="stop-color:#7ABCD8"/>
		<stop  offset="0.1562" style="stop-color:#6EB2D8"/>
		<stop  offset="0.7104" style="stop-color:#4794DA"/>
		<stop  offset="1" style="stop-color:#3888DA"/>
	</linearGradient>
	<polygon class="st4" points="131.53,110.23 207.48,107.1 207.48,98.56 131.53,90.03 	"/>
	<linearGradient id="SVGID_6_" gradientUnits="userSpaceOnUse" x1="100.7355" y1="87.078" x2="132.287" y2="68.8617">
		<stop  offset="0" style="stop-color:#7ABCD8"/>
		<stop  offset="0.4889" style="stop-color:#78BBD8"/>
		<stop  offset="0.665" style="stop-color:#71B5D8"/>
		<stop  offset="0.7905" style="stop-color:#66ACD9"/>
		<stop  offset="0.892" style="stop-color:#559FD9"/>
		<stop  offset="0.9779" style="stop-color:#3F8DDA"/>
		<stop  offset="1" style="stop-color:#3888DA"/>
	</linearGradient>
	<polygon class="st5" points="130.76,66.22 100.21,70.96 100.21,86.16 130.76,86.16 	"/>
	<linearGradient id="SVGID_7_" gradientUnits="userSpaceOnUse" x1="143.0343" y1="99.3665" x2="198.4516" y2="67.3714">
		<stop  offset="0" style="stop-color:#7ABCD8"/>
		<stop  offset="0.1562" style="stop-color:#6EB2D8"/>
		<stop  offset="0.7104" style="stop-color:#4794DA"/>
		<stop  offset="1" style="stop-color:#3888DA"/>
	</linearGradient>
	<polygon class="st6" points="135.34,66.22 135.34,86.03 211.53,97.41 211.53,90.03 	"/>
	<linearGradient id="SVGID_8_" gradientUnits="userSpaceOnUse" x1="104.8042" y1="69.566" x2="135.6852" y2="51.7368">
		<stop  offset="0" style="stop-color:#7ABCD8"/>
		<stop  offset="0.4889" style="stop-color:#78BBD8"/>
		<stop  offset="0.665" style="stop-color:#71B5D8"/>
		<stop  offset="0.7905" style="stop-color:#66ACD9"/>
		<stop  offset="0.892" style="stop-color:#559FD9"/>
		<stop  offset="0.9779" style="stop-color:#3F8DDA"/>
		<stop  offset="1" style="stop-color:#3888DA"/>
	</linearGradient>
	<polygon class="st7" points="134.19,49.15 103.48,60.19 103.48,67.27 134.19,62.74 	"/>
	<linearGradient id="SVGID_9_" gradientUnits="userSpaceOnUse" x1="149.3445" y1="81.5782" x2="193.3635" y2="56.1639">
		<stop  offset="0" style="stop-color:#7ABCD8"/>
		<stop  offset="0.1562" style="stop-color:#6EB2D8"/>
		<stop  offset="0.7104" style="stop-color:#4794DA"/>
		<stop  offset="1" style="stop-color:#3888DA"/>
	</linearGradient>
	<polygon class="st8" points="207.65,80.91 138.44,49.15 138.44,62.69 207.65,86.64 	"/>
</g>
<g>
	<path class="st59" d="M66.31,216.51h-4.34l0.85-4.38h13.32l-0.85,4.38h-4.34l-3.93,20.62h-4.64L66.31,216.51z"/>
	<path class="st59" d="M80.15,219l-2.04,10.76c-0.19,1-0.3,1.85-0.3,2.67c0,0.78,0.37,1.26,1.08,1.26c1,0,2.38-1.52,3.08-5.04
		l1.85-9.64h4.49l-2.08,10.76c-0.19,0.93-0.3,1.74-0.3,2.56s0.3,1.37,1.04,1.37c0.93,0,2.49-1.67,3.12-5.04l1.82-9.64h4.56
		l-1.67,8.72c-0.22,1.04-0.71,3.41-0.71,4.34c0,1.82,0.74,2.45,2.23,2.56l-2.86,7.64h-3.15l1.45-5.27
		c-0.78-0.41-1.56-1.37-1.56-2.82h-0.07c-1.26,1.93-3.26,3.26-5.64,3.26c-1.74,0-2.89-1.19-3.12-2.78
		c-1.22,1.67-2.97,2.78-5.01,2.78c-2.26,0-3.34-1.59-3.34-3.97c0-0.74,0.19-2.15,0.48-3.64L75.55,219H80.15z"/>
	<path class="st59" d="M105.98,237.13c0.04-0.96,0.11-1.97,0.15-3.04h-0.11c-1.45,2.41-3.19,3.34-4.64,3.34
		c-2.63,0-3.93-2.26-3.93-5.45c0-5.49,2.74-13.28,10.54-13.28c1.82,0,3.63,0.3,4.75,0.74l-2,10.09c-0.45,2.11-0.78,5.64-0.74,7.6
		H105.98z M107.65,222.26c-0.37-0.07-0.71-0.11-0.96-0.11c-3.04,0-4.67,6.05-4.71,8.72c0,1.59,0.22,2.74,1.37,2.74
		c1.26,0,2.45-2.08,3.12-5.38L107.65,222.26z"/>
	<path class="st59" d="M112.54,237.13l2.34-12.24c0.41-2.11,0.7-4.19,0.96-5.9h3.97l-0.19,2.49h0.07c1.22-1.86,2.89-2.78,4.93-2.78
		c1.74,0,2.78,1.19,3.04,2.78c1.19-1.71,2.93-2.78,4.97-2.78c2.26,0,3.34,1.59,3.34,3.93c0,0.78-0.19,2.19-0.45,3.67l-2.08,10.83
		h-4.56l2.04-10.76c0.19-1,0.3-1.89,0.3-2.71c0-0.74-0.37-1.26-1.11-1.26c-1,0-2.37,1.52-3.08,5.08l-1.86,9.64h-4.45l2.04-10.76
		c0.19-0.93,0.3-1.78,0.3-2.6c0-0.82-0.3-1.37-1.04-1.37c-0.93,0-2.45,1.67-3.08,5.08l-1.82,9.64H112.54z"/>
	<path class="st59" d="M148.51,236.36c-1.59,0.67-3.15,1-5.23,1c-4.45,0-6.16-2.93-6.16-6.83c0-5.27,2.93-11.83,8.72-11.83
		c3.3,0,4.82,2.45,4.82,4.93c0,4.97-4.01,6.83-9.05,6.68c-0.04,0.52,0,1.45,0.41,2.11c0.45,0.74,1.26,1.3,2.52,1.3
		c1.52,0,2.6-0.37,3.67-0.89L148.51,236.36z M146.55,224.04c0-1-0.41-1.63-1.3-1.63c-1.41,0-2.67,1.82-3.19,4.41
		c2.45,0.11,4.49-0.85,4.49-2.75V224.04z"/>
	<path class="st59" d="M166.91,219l-3.45,18.14h-4.56l2.71-14.54h-2.86l-0.82,4.27c-0.78,4.08-1.67,7.31-4.12,9.13
		c-1.04,0.82-2.37,1.45-4.15,1.45l-0.26-3.64c0.74-0.11,1.52-0.48,1.97-0.93c1.19-1.08,1.85-3.6,2.22-5.56l1.6-8.31H166.91z"/>
	<path class="st59" d="M174.66,219l-1.71,6.79l0.07,0.04c1-0.93,2.45-1.45,3.9-1.45c2.49,0,4.3,1.74,4.3,4.79
		c0,3.64-2.71,8.2-8.83,8.2c-2.3,0-5.23-0.63-5.23-4.08c0-1,0.22-2.41,0.48-3.45L170.1,219H174.66z M173.36,233.72
		c1.71,0,3.23-1.56,3.23-3.56c0-1.34-0.63-2.08-1.67-2.08c-1.48,0-2.56,1.45-2.86,2.56c-0.19,0.56-0.22,0.89-0.22,1.48
		c0,0.89,0.48,1.59,1.48,1.59H173.36z"/>
	<path class="st59" d="M189.53,219l-1.37,7.01h3.78l1.37-7.01h4.64l-3.49,18.14h-4.64l1.45-7.6h-3.71l-1.45,7.6h-4.64l3.38-18.14
		H189.53z"/>
	<path class="st59" d="M205.88,219l-1.78,6.86h0.04c1.08-1,2.45-1.48,3.93-1.48c2.49,0,4.04,1.74,4.04,4.64
		c0,3.78-2.74,8.35-8.49,8.35c-2.37,0-5.27-0.56-5.27-4.04c0-1,0.22-2.37,0.45-3.38l2.52-10.94H205.88z M204.43,233.72
		c1.63,0,3.04-1.63,3.04-3.71c0-1.22-0.63-1.93-1.52-1.93c-1.33,0-2.34,1.37-2.71,2.49c-0.11,0.48-0.26,1.08-0.26,1.56
		c0,0.89,0.48,1.59,1.41,1.59H204.43z M220.27,219l-3.49,18.14h-4.64l3.49-18.14H220.27z"/>
	<path class="st59" d="M227.89,219l-1.96,10.31c-0.19,1.11-0.33,2.04-0.33,2.89c0,0.89,0.33,1.45,1.11,1.45
		c1.19,0,2.37-1.56,2.89-4.15l1.93-10.5h4.64l-2.3,12.2c-0.45,2.15-0.71,4.19-0.93,5.93h-4.01l0.15-2.49H229
		c-1.33,1.93-3,2.78-4.71,2.78c-2.41,0-3.45-1.82-3.45-4.19c0-1.15,0.19-2.37,0.45-3.75l1.96-10.5H227.89z M229.3,212.13
		c-0.07,1.52,0.37,2.37,1.52,2.37c1.19,0,1.78-1.08,2-2.37h2.89c-0.48,2.89-2.19,4.49-5.08,4.49c-2.86,0-4.19-1.74-4.16-4.49H229.3z
		"/>
	<path class="st59" d="M29.09,281.65l2.34-12.24c0.41-2.11,0.71-4.19,0.96-5.9h3.97l-0.19,2.34h0.07c1.26-1.71,2.93-2.63,4.9-2.63
		c2.56,0,3.52,1.78,3.52,3.97c0,1.08-0.19,2.19-0.45,3.45l-2.08,11.02h-4.64l2.15-11.28c0.11-0.63,0.22-1.22,0.22-1.93
		c0-0.85-0.37-1.45-1.15-1.45c-1.08,0-2.52,1.59-3.19,5.04l-1.82,9.61H29.09z"/>
	<path class="st59" d="M51.33,281.95c-4.56,0-5.56-3.6-5.56-6.27c0-6.12,3.38-12.46,8.87-12.46c4.6,0,5.27,3.82,5.27,6.34
		c0,5.71-3.04,12.39-8.53,12.39H51.33z M51.85,278.42c2.23,0,3.49-6.16,3.49-9.42c0-1.22-0.33-2.26-1.45-2.26
		c-2,0-3.56,5.6-3.52,8.72c0,1.33,0.04,2.97,1.45,2.97H51.85z"/>
	<path class="st59" d="M64.79,255.68c0.78,0.19,1.63,0.3,2.37,0.33c1.78,0.19,3.56,0.48,4.97,1.37c2.82,1.48,3.49,4.86,3.49,8.38
		c0,5.86-2.34,16.17-9.87,16.17c-3.49,0-5.08-2.82-5.08-6.34c0-5.04,3.41-12.09,8.42-12.09c1.52,0,2.26,0.82,2.74,2.26h0.11
		c0-0.26,0.04-0.52,0.07-0.85c0.04-1.11-0.3-2.89-1.74-3.93c-0.93-0.74-2.11-0.96-3.38-1.11c-0.67-0.07-1.48-0.11-2.22-0.33
		L64.79,255.68z M66.6,278.31c2.49,0,4.01-6.19,4.04-8.35c0-1.3-0.3-2.78-1.37-2.78c-2.34,0-4.04,5.16-4.04,8.5
		c0,1.41,0.26,2.63,1.33,2.63H66.6z"/>
	<path class="st59" d="M91.49,259.69c-0.89,0.3-2.15,0.45-3.23,0.59c-2.04,0.37-3.86,1.11-5.27,2.86c-0.74,0.96-1.3,2.41-1.56,3.34
		h0.15c1.04-1.82,2.71-2.97,4.49-2.97c3.52,0,4.45,3.49,4.38,6.45c-0.15,4.93-2.63,11.98-8.57,11.98c-3.56,0-5.42-2.71-5.42-7.46
		c0-5.19,1.71-10.54,4.6-13.76c1.86-2.34,4.23-3.78,7.31-4.23c1.56-0.19,2.89-0.48,3.63-0.82L91.49,259.69z M82.51,278.42
		c2.19,0,3.34-5.71,3.34-8.09c0-1.19-0.15-3.15-1.56-3.15c-0.93,0-1.82,1-2.37,2.41c-0.67,1.67-1.04,3.75-1.04,5.97
		c0,1.41,0.52,2.86,1.6,2.86H82.51z"/>
	<path class="st59" d="M96.83,281.95c-4.56,0-5.56-3.6-5.56-6.27c0-6.12,3.38-12.46,8.87-12.46c4.6,0,5.27,3.82,5.27,6.34
		c0,5.71-3.04,12.39-8.53,12.39H96.83z M97.35,278.42c2.23,0,3.49-6.16,3.49-9.42c0-1.22-0.33-2.26-1.45-2.26
		c-2,0-3.56,5.6-3.52,8.72c0,1.33,0.04,2.97,1.45,2.97H97.35z"/>
	<path class="st59" d="M104.28,288.77l3.67-19.29c0.41-2.15,0.7-4.19,0.96-5.97h3.97l-0.3,2.63h0.07c1.11-1.82,2.86-2.93,4.53-2.93
		c3.26,0,3.9,2.82,3.9,5.6c0,6.08-3.26,13.13-8.57,13.13c-0.82,0-1.71-0.15-2.23-0.45h-0.11l-1.34,7.27H104.28z M110.84,278.05
		c0.37,0.26,0.74,0.44,1.3,0.44c2.82,0,4.19-6.16,4.19-8.87c0-1.22-0.11-2.49-1.34-2.49c-1.19,0-2.45,1.89-2.89,4.08L110.84,278.05z
		"/>
	<path class="st59" d="M131.8,255.68c0.78,0.19,1.63,0.3,2.37,0.33c1.78,0.19,3.56,0.48,4.97,1.37c2.82,1.48,3.49,4.86,3.49,8.38
		c0,5.86-2.34,16.17-9.87,16.17c-3.49,0-5.08-2.82-5.08-6.34c0-5.04,3.41-12.09,8.42-12.09c1.52,0,2.26,0.82,2.75,2.26h0.11
		c0-0.26,0.04-0.52,0.07-0.85c0.04-1.11-0.3-2.89-1.74-3.93c-0.93-0.74-2.11-0.96-3.38-1.11c-0.67-0.07-1.48-0.11-2.23-0.33
		L131.8,255.68z M133.62,278.31c2.49,0,4.01-6.19,4.04-8.35c0-1.3-0.3-2.78-1.37-2.78c-2.34,0-4.04,5.16-4.04,8.5
		c0,1.41,0.26,2.63,1.33,2.63H133.62z"/>
	<path class="st59" d="M141.38,288.77l3.67-19.29c0.41-2.15,0.71-4.19,0.96-5.97h3.97l-0.3,2.63h0.07c1.11-1.82,2.86-2.93,4.53-2.93
		c3.27,0,3.9,2.82,3.9,5.6c0,6.08-3.26,13.13-8.57,13.13c-0.82,0-1.71-0.15-2.22-0.45h-0.11l-1.34,7.27H141.38z M147.95,278.05
		c0.37,0.26,0.74,0.44,1.3,0.44c2.82,0,4.19-6.16,4.19-8.87c0-1.22-0.11-2.49-1.33-2.49c-1.19,0-2.45,1.89-2.89,4.08L147.95,278.05z
		"/>
	<path class="st59" d="M170.49,280.87c-1.6,0.67-3.15,1-5.23,1c-4.45,0-6.16-2.93-6.16-6.83c0-5.27,2.93-11.83,8.72-11.83
		c3.3,0,4.82,2.45,4.82,4.93c0,4.97-4.01,6.83-9.05,6.68c-0.04,0.52,0,1.45,0.41,2.11c0.45,0.74,1.26,1.3,2.52,1.3
		c1.52,0,2.6-0.37,3.67-0.89L170.49,280.87z M168.52,268.55c0-1-0.41-1.63-1.3-1.63c-1.41,0-2.67,1.82-3.19,4.41
		c2.45,0.11,4.49-0.85,4.49-2.75V268.55z"/>
	<path class="st59" d="M182.08,263.21c2.6,0,5.08,1.11,5.08,4.12c0,2.67-1.93,3.93-3.82,4.71v0.11c1.41,0.15,2.97,1.3,2.97,3.6
		c0,4.23-3.82,6.12-7.86,6.12c-4.16,0-5.34-2.3-5.34-5.38c0-3.56,1.37-9.72,4.64-11.98c1.19-0.82,2.6-1.3,4.3-1.3H182.08z
		 M179.86,273.67c-0.67,0-1.45,0.22-2.19,0.56c-0.11,0.45-0.3,1.48-0.3,2.23c0,0.96,0.37,1.97,1.74,1.97c1.48,0,2.67-1.08,2.67-2.71
		c0-1.45-0.85-2-1.89-2.04H179.86z M181.41,266.59c-1.89,0-2.86,2.78-3.19,4.34c1.33-0.3,2.63-0.63,3.52-1.19
		c0.67-0.45,1.19-1,1.19-1.74c0-0.82-0.52-1.41-1.48-1.41H181.41z"/>
	<path class="st59" d="M199.49,280.87c-1.6,0.67-3.15,1-5.23,1c-4.45,0-6.16-2.93-6.16-6.83c0-5.27,2.93-11.83,8.72-11.83
		c3.3,0,4.82,2.45,4.82,4.93c0,4.97-4.01,6.83-9.05,6.68c-0.04,0.52,0,1.45,0.41,2.11c0.45,0.74,1.26,1.3,2.52,1.3
		c1.52,0,2.6-0.37,3.67-0.89L199.49,280.87z M197.52,268.55c0-1-0.41-1.63-1.3-1.63c-1.41,0-2.67,1.82-3.19,4.41
		c2.45,0.11,4.49-0.85,4.49-2.75V268.55z"/>
	<path class="st59" d="M210.81,281.39c-0.52,0.22-1.71,0.48-3.23,0.48c-4.01,0-5.68-3.19-5.68-6.53c0-6.49,4.04-12.09,9.76-12.09
		c1.11,0,1.82,0.15,2.26,0.33l-1.15,3.78c-0.44-0.11-0.89-0.19-1.3-0.19c-2.71,0-4.93,3.64-4.93,7.49c0,2.08,0.85,3.41,2.37,3.41
		c0.85,0,1.63-0.26,2.23-0.41L210.81,281.39z"/>
	<path class="st59" d="M219.98,263.51l-1.97,10.31c-0.19,1.11-0.33,2.04-0.33,2.89c0,0.89,0.33,1.45,1.11,1.45
		c1.19,0,2.37-1.56,2.89-4.15l1.93-10.5h4.64l-2.3,12.2c-0.44,2.15-0.7,4.19-0.93,5.93h-4.01l0.15-2.49h-0.07
		c-1.33,1.93-3,2.78-4.71,2.78c-2.41,0-3.45-1.82-3.45-4.19c0-1.15,0.19-2.37,0.45-3.75l1.97-10.5H219.98z"/>
	<path class="st59" d="M236.07,263.51l-1.37,7.01h3.78l1.37-7.01h4.64L241,281.65h-4.64l1.45-7.6h-3.71l-1.45,7.6h-4.64l3.38-18.14
		H236.07z"/>
	<path class="st59" d="M252.42,263.51l-1.78,6.86h0.04c1.08-1,2.45-1.48,3.93-1.48c2.48,0,4.04,1.74,4.04,4.64
		c0,3.78-2.75,8.35-8.49,8.35c-2.38,0-5.27-0.56-5.27-4.04c0-1,0.22-2.37,0.45-3.38l2.52-10.94H252.42z M250.97,278.24
		c1.63,0,3.04-1.63,3.04-3.71c0-1.22-0.63-1.93-1.52-1.93c-1.33,0-2.34,1.37-2.71,2.49c-0.11,0.48-0.26,1.08-0.26,1.56
		c0,0.89,0.48,1.59,1.41,1.59H250.97z M266.81,263.51l-3.49,18.14h-4.64l3.49-18.14H266.81z"/>
</g>
</svg>
