<?xml version="1.0" encoding="utf-8"?>
<!-- Generator: Adobe Illustrator 24.0.2, SVG Export Plug-In . SVG Version: 6.00 Build 0)  -->
<svg version="1.1" id="Слой_1" xmlns="http://www.w3.org/2000/svg" xmlns:xlink="http://www.w3.org/1999/xlink" x="0px" y="0px"
	 viewBox="0 0 300 300" style="enable-background:new 0 0 300 300;" xml:space="preserve">
<style type="text/css">
	.st0{fill:url(#SVGID_1_);}
	.st1{fill:url(#SVGID_2_);}
	.st2{fill:url(#SVGID_3_);}
	.st3{fill:url(#SVGID_4_);}
	.st4{fill:url(#SVGID_5_);}
	.st5{fill:url(#SVGID_6_);}
	.st6{fill:url(#SVGID_7_);}
	.st7{fill:url(#SVGID_8_);}
	.st8{fill:url(#SVGID_9_);}
	.st9{fill:url(#SVGID_10_);}
	.st10{fill:url(#SVGID_11_);}
	.st11{fill:url(#SVGID_12_);}
	.st12{fill:url(#SVGID_13_);}
	.st13{fill:url(#SVGID_14_);}
	.st14{fill:url(#SVGID_15_);}
	.st15{fill:url(#SVGID_16_);}
	.st16{fill:url(#SVGID_17_);}
	.st17{fill:url(#SVGID_18_);}
	.st18{fill:url(#SVGID_19_);}
	.st19{fill:url(#SVGID_20_);}
	.st20{fill:url(#SVGID_21_);}
	.st21{fill:url(#SVGID_22_);}
	.st22{fill:url(#SVGID_23_);}
	.st23{fill:url(#SVGID_24_);}
	.st24{fill:url(#SVGID_25_);}
	.st25{fill:url(#SVGID_26_);}
	.st26{fill:url(#SVGID_27_);}
	.st27{fill:url(#SVGID_28_);}
	.st28{fill:url(#SVGID_29_);}
	.st29{fill:url(#SVGID_30_);}
	.st30{fill:url(#SVGID_31_);}
	.st31{fill:url(#SVGID_32_);}
	.st32{fill:url(#SVGID_33_);}
	.st33{fill:url(#SVGID_34_);}
	.st34{fill:url(#SVGID_35_);}
	.st35{fill:url(#SVGID_36_);}
	.st36{fill:url(#SVGID_37_);}
	.st37{fill:url(#SVGID_38_);}
	.st38{fill:url(#SVGID_39_);}
	.st39{fill:url(#SVGID_40_);}
	.st40{fill:url(#SVGID_41_);}
	.st41{fill:url(#SVGID_42_);}
	.st42{fill:url(#SVGID_43_);}
	.st43{fill:url(#SVGID_44_);}
	.st44{fill:url(#SVGID_45_);}
	.st45{fill:url(#SVGID_46_);}
	.st46{fill:url(#SVGID_47_);}
	.st47{fill:url(#SVGID_48_);}
	.st48{fill:url(#SVGID_49_);}
	.st49{fill:url(#SVGID_50_);}
	.st50{fill:url(#SVGID_51_);}
	.st51{fill:url(#SVGID_52_);}
	.st52{fill:url(#SVGID_53_);}
	.st53{fill:url(#SVGID_54_);}
	.st54{fill:url(#SVGID_55_);}
	.st55{fill:url(#SVGID_56_);}
	.st56{fill:url(#SVGID_57_);}
	.st57{fill:url(#SVGID_58_);}
	.st58{fill:#8CC63D;}
	.st59{fill:#3888DA;}
	.st60{fill:url(#SVGID_59_);}
	.st61{fill:url(#SVGID_60_);}
	.st62{fill:url(#SVGID_61_);}
	.st63{fill:url(#SVGID_62_);}
	.st64{fill:url(#SVGID_63_);}
	.st65{fill:url(#SVGID_64_);}
	.st66{fill:none;}
	.st67{fill:#8CC1C1;}
	.st68{fill:#2A71B7;}
</style>
<linearGradient id="SVGID_1_" gradientUnits="userSpaceOnUse" x1="75" y1="152.6" x2="225" y2="152.6">
	<stop  offset="0" style="stop-color:#7ABCD8"/>
	<stop  offset="0.1416" style="stop-color:#71B5D8"/>
	<stop  offset="0.3694" style="stop-color:#5AA3D9"/>
	<stop  offset="0.6229" style="stop-color:#3888DA"/>
	<stop  offset="0.7779" style="stop-color:#3198DE"/>
	<stop  offset="1" style="stop-color:#29ABE2"/>
</linearGradient>
<path class="st0" d="M150,177.8c-38.65,0-70.47-29.24-74.55-66.8c-0.29,2.69-0.45,5.43-0.45,8.2c0,41.42,33.58,75,75,75
	s75-33.58,75-75c0-2.77-0.16-5.51-0.45-8.2C220.47,148.56,188.65,177.8,150,177.8z"/>
<g>
	<linearGradient id="SVGID_2_" gradientUnits="userSpaceOnUse" x1="195.4005" y1="56.5437" x2="163.0792" y2="134.961">
		<stop  offset="0" style="stop-color:#7ABCD8"/>
		<stop  offset="0.1082" style="stop-color:#74B7D8"/>
		<stop  offset="0.2564" style="stop-color:#62A9D9"/>
		<stop  offset="0.4272" style="stop-color:#4593DA"/>
		<stop  offset="0.4944" style="stop-color:#3888DA"/>
		<stop  offset="0.7023" style="stop-color:#3198DE"/>
		<stop  offset="1" style="stop-color:#29ABE2"/>
	</linearGradient>
	<path class="st1" d="M210.22,66.74c-1.86-8.14-28.36-14.74-41.91-17.6c-1.12-0.24-2.18,0.61-2.2,1.76l-0.31,19.41
		c-0.01,0.7,0.38,1.35,1.01,1.66l13.12,6.53c0.66,0.33,1.06,1.02,1.01,1.76l-2.61,39.26c-0.06,0.96-0.86,1.7-1.82,1.7h-9.83
		c-0.91,0-1.68,0.67-1.81,1.57L163.16,135l0.58,0.1l24.49-1.86c0.44-0.03,0.84-0.22,1.15-0.53
		C193.23,128.85,218.31,102.12,210.22,66.74z"/>
	<linearGradient id="SVGID_3_" gradientUnits="userSpaceOnUse" x1="153.524" y1="44.7116" x2="117.6723" y2="131.6943">
		<stop  offset="0" style="stop-color:#7ABCD8"/>
		<stop  offset="0.1082" style="stop-color:#74B7D8"/>
		<stop  offset="0.2564" style="stop-color:#62A9D9"/>
		<stop  offset="0.4272" style="stop-color:#4593DA"/>
		<stop  offset="0.4944" style="stop-color:#3888DA"/>
		<stop  offset="0.7023" style="stop-color:#3198DE"/>
		<stop  offset="1" style="stop-color:#29ABE2"/>
	</linearGradient>
	<path class="st2" d="M162.1,74.53c-0.63-0.29-1.04-0.92-1.05-1.62l-0.47-25.29c-0.08-0.01-0.12-0.02-0.12-0.02l-37.24-1.05
		c-0.91-0.03-1.7,0.62-1.85,1.51l-0.84,4.86c-0.15,0.88-0.91,1.52-1.8,1.52h-5.11c-0.9,0-1.66,0.65-1.8,1.54l-0.63,3.91
		c-0.13,0.82-0.79,1.44-1.62,1.53l-10.49,1.08c-0.83,0.09-1.5,0.73-1.62,1.56l-5.48,38.75c-0.1,0.68,0.2,1.35,0.76,1.75l3.78,2.66
		c0.49,0.34,0.77,0.9,0.77,1.49v13.37c0,0.89,0.64,1.65,1.51,1.8l58.44,10.1c1.01,0.17,1.97-0.52,2.12-1.53l2.1-14.31
		c0.13-0.9,0.9-1.56,1.81-1.56h7.57c0.97,0,1.77-0.75,1.82-1.72l1.95-33.21c0.04-0.75-0.37-1.44-1.05-1.76L162.1,74.53z
		 M100.46,118.06l0.4-13.1c0.02-0.66-0.31-1.27-0.88-1.61l-3.71-2.26c-0.62-0.38-0.96-1.09-0.86-1.81l4.35-31.69
		c0.12-0.86,0.82-1.52,1.69-1.57l7.37-0.48c1.15-0.07,2.08,0.92,1.93,2.06l-6.66,50.75c-0.14,1.04-1.13,1.76-2.16,1.55l0,0
		C101.05,119.74,100.43,118.96,100.46,118.06z M109.5,119.74l4.88-59.32c0.08-0.99,0.94-1.73,1.93-1.67l5.15,0.31
		c0.91,0.05,1.72-0.57,1.9-1.46l1.14-5.6c0.18-0.89,1-1.52,1.91-1.46l2.43,0.16c1.03,0.07,1.8,0.97,1.7,2l-6.75,69.45
		c-0.1,1.07-1.11,1.82-2.17,1.61l-10.64-2.09C110.05,121.5,109.42,120.67,109.5,119.74z M128.79,123.55l4.9-70.87
		c0.07-0.99,0.92-1.75,1.91-1.7l13.57,0.68c1.04,0.05,1.83,0.96,1.72,2l-7.06,72.42c-0.1,1.07-1.11,1.82-2.17,1.61l-11.41-2.24
		C129.36,125.29,128.73,124.47,128.79,123.55z M166.66,113.49l-6.86,0.42c-0.87,0.05-1.58,0.71-1.7,1.57l-1.82,13.12
		c-0.14,1.04-1.13,1.74-2.16,1.54l-3.88-0.76c-0.91-0.18-1.54-1-1.47-1.92l5.35-73.75c0.07-0.99,0.92-1.74,1.91-1.69l0.7,0.04
		c0.97,0.05,1.73,0.85,1.73,1.82v21.35c0,0.7,0.4,1.34,1.04,1.65l9.88,4.71c0.68,0.32,1.09,1.03,1.04,1.78l-2.05,28.44
		C168.3,112.71,167.57,113.43,166.66,113.49z"/>
</g>
<g>
	<path class="st59" d="M70.66,237.13l1.33-9.79c0.26-2.04,0.74-4.75,1.33-8.01h-0.15c-1.08,3.26-2.26,6.16-2.97,7.86l-4.08,9.53
		h-3.3l-0.45-9.64c-0.07-1.67-0.18-4.49-0.11-7.75h-0.07c-0.63,3.26-1.19,5.97-1.71,8.01l-2.3,9.79h-4.01l6.34-25h4.93L65.91,224
		c0.07,1.85,0.15,4.45,0.07,6.23h0.07c0.48-1.78,1.45-4.34,2.19-6.23l4.79-11.87h4.93l-3.26,25H70.66z"/>
	<path class="st59" d="M85.56,219l-1.37,7.01h3.78l1.37-7.01h4.64l-3.49,18.14h-4.64l1.45-7.6H83.6l-1.45,7.6h-4.64L80.89,219H85.56
		z"/>
	<path class="st59" d="M99.82,237.43c-4.56,0-5.56-3.6-5.56-6.27c0-6.12,3.38-12.46,8.87-12.46c4.6,0,5.27,3.82,5.27,6.34
		c0,5.71-3.04,12.39-8.53,12.39H99.82z M100.34,233.91c2.23,0,3.49-6.16,3.49-9.42c0-1.22-0.33-2.26-1.45-2.26
		c-2,0-3.56,5.6-3.52,8.72c0,1.33,0.04,2.97,1.45,2.97H100.34z"/>
	<path class="st59" d="M111.48,219.7c1.19-0.56,2.82-1,4.53-1c3.04,0,4.86,1.74,4.86,4.56c0,2.86-2.26,4.53-4.71,6.19
		c-1.67,1.11-3.19,2.23-3.19,3.19c0,0.74,0.52,1.26,1.52,1.26c1.41,0,2.56-0.37,3.45-0.82l0.41,3.23c-1.08,0.56-2.63,1.04-4.82,1.04
		c-2.93,0-5.12-1.48-5.12-4.53c0-3.26,2.63-4.9,5.38-6.71c1.52-1,2.71-1.89,2.71-2.71c0-0.74-0.63-1.22-1.67-1.22
		c-1.04,0-2.49,0.45-2.93,0.67L111.48,219.7z"/>
	<path class="st59" d="M126.59,237.43c-4.56,0-5.56-3.6-5.56-6.27c0-6.12,3.38-12.46,8.87-12.46c4.6,0,5.27,3.82,5.27,6.34
		c0,5.71-3.04,12.39-8.53,12.39H126.59z M127.11,233.91c2.23,0,3.49-6.16,3.49-9.42c0-1.22-0.33-2.26-1.45-2.26
		c-2,0-3.56,5.6-3.52,8.72c0,1.33,0.04,2.97,1.45,2.97H127.11z"/>
	<path class="st59" d="M144.96,236.88c-0.52,0.22-1.71,0.48-3.23,0.48c-4.01,0-5.68-3.19-5.68-6.53c0-6.49,4.04-12.09,9.76-12.09
		c1.11,0,1.82,0.15,2.26,0.33l-1.15,3.78c-0.45-0.11-0.89-0.19-1.3-0.19c-2.71,0-4.93,3.64-4.93,7.49c0,2.08,0.85,3.41,2.38,3.41
		c0.85,0,1.63-0.26,2.23-0.41L144.96,236.88z"/>
	<path class="st59" d="M163.43,219l-3.45,18.14h-4.56l2.71-14.54h-2.86l-0.82,4.27c-0.78,4.08-1.67,7.31-4.12,9.13
		c-1.04,0.82-2.38,1.45-4.16,1.45l-0.26-3.64c0.74-0.11,1.52-0.48,1.96-0.93c1.19-1.08,1.86-3.6,2.23-5.56l1.59-8.31H163.43z"/>
	<path class="st59" d="M169.23,237.43c-4.56,0-5.56-3.6-5.56-6.27c0-6.12,3.38-12.46,8.87-12.46c4.6,0,5.27,3.82,5.27,6.34
		c0,5.71-3.04,12.39-8.53,12.39H169.23z M169.75,233.91c2.23,0,3.49-6.16,3.49-9.42c0-1.22-0.33-2.26-1.45-2.26
		c-2,0-3.56,5.6-3.52,8.72c0,1.33,0.04,2.97,1.45,2.97H169.75z"/>
	<path class="st59" d="M185.91,219l-1.97,10.31c-0.19,1.11-0.33,2.04-0.33,2.89c0,0.89,0.33,1.45,1.11,1.45
		c1.19,0,2.37-1.56,2.89-4.15l1.93-10.5h4.64l-2.3,12.2c-0.44,2.15-0.7,4.19-0.93,5.93h-4.01l0.15-2.49h-0.07
		c-1.33,1.93-3,2.78-4.71,2.78c-2.41,0-3.45-1.82-3.45-4.19c0-1.15,0.19-2.37,0.45-3.75l1.97-10.5H185.91z M187.32,212.13
		c-0.07,1.52,0.37,2.37,1.52,2.37c1.19,0,1.78-1.08,2-2.37h2.89c-0.48,2.89-2.19,4.49-5.08,4.49c-2.86,0-4.19-1.74-4.15-4.49H187.32
		z"/>
	<path class="st59" d="M202,219l-1.37,7.01h3.78l1.37-7.01h4.64l-3.49,18.14h-4.64l1.45-7.6h-3.71l-1.45,7.6h-4.64l3.38-18.14H202z"
		/>
	<path class="st59" d="M219.06,237.13c0.04-0.96,0.11-1.97,0.15-3.04h-0.11c-1.45,2.41-3.19,3.34-4.64,3.34
		c-2.63,0-3.93-2.26-3.93-5.45c0-5.49,2.75-13.28,10.54-13.28c1.82,0,3.64,0.3,4.75,0.74l-2,10.09c-0.45,2.11-0.78,5.64-0.74,7.6
		H219.06z M220.73,222.26c-0.37-0.07-0.71-0.11-0.96-0.11c-3.04,0-4.67,6.05-4.71,8.72c0,1.59,0.22,2.74,1.37,2.74
		c1.26,0,2.45-2.08,3.12-5.38L220.73,222.26z"/>
	<path class="st59" d="M237.78,237.13h-4.6l1.33-6.9h-0.52c-1.56,0-2.52,1.67-3.19,3.26c-0.52,1.15-1.11,2.6-1.82,3.63h-4.93
		c1-1.63,1.56-2.86,2.26-4.49c1-2.3,2.34-3.56,3.67-4.01v-0.07c-1.15-0.48-2.52-1.82-2.52-3.93c0-4.9,4.38-5.93,8.75-5.93
		c2.19,0,3.89,0.15,5.04,0.33L237.78,237.13z M236.03,222.11c-0.3-0.04-0.67-0.04-1.11-0.04c-1.41,0-2.93,0.71-2.93,2.52
		c0,1.74,1.37,2.41,2.74,2.41h0.41L236.03,222.11z"/>
	<path class="st59" d="M68.78,281.39c-0.52,0.22-1.71,0.48-3.23,0.48c-4.01,0-5.68-3.19-5.68-6.53c0-6.49,4.04-12.09,9.76-12.09
		c1.11,0,1.82,0.15,2.26,0.33l-1.15,3.78c-0.45-0.11-0.89-0.19-1.3-0.19c-2.71,0-4.93,3.64-4.93,7.49c0,2.08,0.85,3.41,2.37,3.41
		c0.85,0,1.63-0.26,2.23-0.41L68.78,281.39z"/>
	<path class="st59" d="M78.21,263.51l-1.52,7.86h0.22l4.97-7.86h5.19l-6.68,8.38c1.33,0.63,1.97,2.19,2.19,5.23
		c0.15,1.82,0.33,3.52,0.67,4.53H78.8c-0.3-0.78-0.45-3.12-0.52-4.49c-0.15-2-0.67-3.12-1.71-3.12h-0.33l-1.45,7.6h-4.6l3.49-18.14
		H78.21z"/>
	<path class="st59" d="M101.59,263.51l-3.45,18.14h-4.56l2.71-14.54h-2.86l-0.82,4.27c-0.78,4.08-1.67,7.31-4.12,9.13
		c-1.04,0.82-2.37,1.45-4.15,1.45l-0.26-3.64c0.74-0.11,1.52-0.48,1.97-0.93c1.19-1.08,1.85-3.6,2.22-5.56l1.6-8.31H101.59z"/>
	<path class="st59" d="M113.24,280.87c-1.59,0.67-3.15,1-5.23,1c-4.45,0-6.16-2.93-6.16-6.83c0-5.27,2.93-11.83,8.72-11.83
		c3.3,0,4.82,2.45,4.82,4.93c0,4.97-4.01,6.83-9.05,6.68c-0.04,0.52,0,1.45,0.41,2.11c0.45,0.74,1.26,1.3,2.52,1.3
		c1.52,0,2.6-0.37,3.67-0.89L113.24,280.87z M111.27,268.55c0-1-0.41-1.63-1.3-1.63c-1.41,0-2.67,1.82-3.19,4.41
		c2.45,0.11,4.49-0.85,4.49-2.75V268.55z"/>
	<path class="st59" d="M122.99,263.51l-1.97,10.31c-0.19,1.11-0.33,2.04-0.33,2.89c0,0.89,0.33,1.45,1.11,1.45
		c1.19,0,2.38-1.56,2.89-4.15l1.93-10.5h4.64l-2.3,12.2c-0.45,2.15-0.71,4.19-0.93,5.93h-4.01l0.15-2.49h-0.07
		c-1.34,1.93-3,2.78-4.71,2.78c-2.41,0-3.45-1.82-3.45-4.19c0-1.15,0.19-2.37,0.45-3.75l1.97-10.5H122.99z M124.4,256.65
		c-0.07,1.52,0.37,2.37,1.52,2.37c1.19,0,1.78-1.08,2-2.37h2.89c-0.48,2.89-2.19,4.49-5.08,4.49c-2.86,0-4.19-1.74-4.15-4.49H124.4z
		"/>
	<path class="st59" d="M139.04,263.51l-1.52,7.86h0.22l4.97-7.86h5.19l-6.68,8.38c1.34,0.63,1.97,2.19,2.19,5.23
		c0.15,1.82,0.33,3.52,0.67,4.53h-4.45c-0.3-0.78-0.45-3.12-0.52-4.49c-0.15-2-0.67-3.12-1.71-3.12h-0.33l-1.45,7.6h-4.6l3.49-18.14
		H139.04z"/>
	<path class="st59" d="M154.55,281.65c0.04-0.96,0.11-1.97,0.15-3.04h-0.11c-1.45,2.41-3.19,3.34-4.64,3.34
		c-2.63,0-3.93-2.26-3.93-5.45c0-5.49,2.75-13.28,10.54-13.28c1.82,0,3.63,0.3,4.75,0.74l-2,10.09c-0.44,2.11-0.78,5.64-0.74,7.6
		H154.55z M156.22,266.77c-0.37-0.07-0.71-0.11-0.96-0.11c-3.04,0-4.67,6.05-4.71,8.72c0,1.59,0.22,2.74,1.37,2.74
		c1.26,0,2.45-2.08,3.12-5.38L156.22,266.77z"/>
	<path class="st59" d="M182.59,259.69c-0.89,0.3-2.15,0.45-3.23,0.59c-2.04,0.37-3.86,1.11-5.27,2.86c-0.74,0.96-1.3,2.41-1.56,3.34
		h0.15c1.04-1.82,2.71-2.97,4.49-2.97c3.52,0,4.45,3.49,4.38,6.45c-0.15,4.93-2.63,11.98-8.57,11.98c-3.56,0-5.42-2.71-5.42-7.46
		c0-5.19,1.71-10.54,4.6-13.76c1.85-2.34,4.23-3.78,7.31-4.23c1.56-0.19,2.89-0.48,3.63-0.82L182.59,259.69z M173.61,278.42
		c2.19,0,3.34-5.71,3.34-8.09c0-1.19-0.15-3.15-1.56-3.15c-0.93,0-1.82,1-2.37,2.41c-0.67,1.67-1.04,3.75-1.04,5.97
		c0,1.41,0.52,2.86,1.59,2.86H173.61z"/>
	<path class="st59" d="M180.41,288.77l3.67-19.29c0.41-2.15,0.7-4.19,0.96-5.97h3.97l-0.3,2.63h0.07c1.11-1.82,2.86-2.93,4.53-2.93
		c3.26,0,3.89,2.82,3.89,5.6c0,6.08-3.26,13.13-8.57,13.13c-0.82,0-1.71-0.15-2.23-0.45h-0.11l-1.33,7.27H180.41z M186.97,278.05
		c0.37,0.26,0.74,0.44,1.3,0.44c2.82,0,4.19-6.16,4.19-8.87c0-1.22-0.11-2.49-1.34-2.49c-1.19,0-2.45,1.89-2.89,4.08L186.97,278.05z
		"/>
	<path class="st59" d="M203.33,263.51l0.19,8.83c0.04,1.71,0.07,2.97,0.04,4.3h0.07c0.41-1.52,0.78-2.71,1.37-4.64l2.63-8.49h4.67
		c-1.26,3.12-3.56,9.83-6.16,15.28c-1.97,4.15-3.3,6.42-5.75,8.68c-1.08,1-2.37,1.78-3.15,2.11l-1.86-3.78
		c0.82-0.41,1.67-0.89,2.41-1.48c1.04-0.85,2.08-1.97,2.48-2.97c0.11-0.22,0.15-0.45,0.11-0.78l-1.93-17.06H203.33z"/>
	<path class="st59" d="M219.82,281.39c-0.52,0.22-1.71,0.48-3.23,0.48c-4.01,0-5.68-3.19-5.68-6.53c0-6.49,4.04-12.09,9.76-12.09
		c1.11,0,1.82,0.15,2.26,0.33l-1.15,3.78c-0.45-0.11-0.89-0.19-1.3-0.19c-2.71,0-4.93,3.64-4.93,7.49c0,2.08,0.85,3.41,2.38,3.41
		c0.85,0,1.63-0.26,2.23-0.41L219.82,281.39z"/>
	<path class="st59" d="M230.05,281.65c0.04-0.96,0.11-1.97,0.15-3.04h-0.11c-1.45,2.41-3.19,3.34-4.64,3.34
		c-2.63,0-3.93-2.26-3.93-5.45c0-5.49,2.75-13.28,10.54-13.28c1.82,0,3.63,0.3,4.75,0.74l-2,10.09c-0.44,2.11-0.78,5.64-0.74,7.6
		H230.05z M231.72,266.77c-0.37-0.07-0.71-0.11-0.96-0.11c-3.04,0-4.67,6.05-4.71,8.72c0,1.59,0.22,2.74,1.37,2.74
		c1.26,0,2.45-2.08,3.12-5.38L231.72,266.77z"/>
</g>
</svg>
