<?xml version="1.0" encoding="utf-8"?>
<!-- Generator: Adobe Illustrator 24.0.2, SVG Export Plug-In . SVG Version: 6.00 Build 0)  -->
<svg version="1.1" id="Слой_1" xmlns="http://www.w3.org/2000/svg" xmlns:xlink="http://www.w3.org/1999/xlink" x="0px" y="0px"
	 viewBox="0 0 300 300" style="enable-background:new 0 0 300 300;" xml:space="preserve">
<style type="text/css">
	.st0{fill:url(#SVGID_1_);}
	.st1{fill:url(#SVGID_2_);}
	.st2{fill:url(#SVGID_3_);}
	.st3{fill:url(#SVGID_4_);}
	.st4{fill:url(#SVGID_5_);}
	.st5{fill:url(#SVGID_6_);}
	.st6{fill:url(#SVGID_7_);}
	.st7{fill:url(#SVGID_8_);}
	.st8{fill:url(#SVGID_9_);}
	.st9{fill:url(#SVGID_10_);}
	.st10{fill:url(#SVGID_11_);}
	.st11{fill:url(#SVGID_12_);}
	.st12{fill:url(#SVGID_13_);}
	.st13{fill:url(#SVGID_14_);}
	.st14{fill:url(#SVGID_15_);}
	.st15{fill:url(#SVGID_16_);}
	.st16{fill:url(#SVGID_17_);}
	.st17{fill:url(#SVGID_18_);}
	.st18{fill:url(#SVGID_19_);}
	.st19{fill:url(#SVGID_20_);}
	.st20{fill:url(#SVGID_21_);}
	.st21{fill:url(#SVGID_22_);}
	.st22{fill:url(#SVGID_23_);}
	.st23{fill:url(#SVGID_24_);}
	.st24{fill:url(#SVGID_25_);}
	.st25{fill:url(#SVGID_26_);}
	.st26{fill:url(#SVGID_27_);}
	.st27{fill:url(#SVGID_28_);}
	.st28{fill:url(#SVGID_29_);}
	.st29{fill:url(#SVGID_30_);}
	.st30{fill:url(#SVGID_31_);}
	.st31{fill:url(#SVGID_32_);}
	.st32{fill:url(#SVGID_33_);}
	.st33{fill:url(#SVGID_34_);}
	.st34{fill:url(#SVGID_35_);}
	.st35{fill:url(#SVGID_36_);}
	.st36{fill:url(#SVGID_37_);}
	.st37{fill:url(#SVGID_38_);}
	.st38{fill:url(#SVGID_39_);}
	.st39{fill:url(#SVGID_40_);}
	.st40{fill:url(#SVGID_41_);}
	.st41{fill:url(#SVGID_42_);}
	.st42{fill:url(#SVGID_43_);}
	.st43{fill:url(#SVGID_44_);}
	.st44{fill:url(#SVGID_45_);}
	.st45{fill:url(#SVGID_46_);}
	.st46{fill:url(#SVGID_47_);}
	.st47{fill:url(#SVGID_48_);}
	.st48{fill:url(#SVGID_49_);}
	.st49{fill:url(#SVGID_50_);}
	.st50{fill:url(#SVGID_51_);}
	.st51{fill:url(#SVGID_52_);}
	.st52{fill:url(#SVGID_53_);}
	.st53{fill:url(#SVGID_54_);}
	.st54{fill:url(#SVGID_55_);}
	.st55{fill:url(#SVGID_56_);}
	.st56{fill:url(#SVGID_57_);}
	.st57{fill:url(#SVGID_58_);}
	.st58{fill:#8CC63D;}
	.st59{fill:#3888DA;}
	.st60{fill:url(#SVGID_59_);}
	.st61{fill:url(#SVGID_60_);}
	.st62{fill:url(#SVGID_61_);}
	.st63{fill:url(#SVGID_62_);}
	.st64{fill:url(#SVGID_63_);}
	.st65{fill:url(#SVGID_64_);}
	.st66{fill:none;}
	.st67{fill:#8CC1C1;}
	.st68{fill:#2A71B7;}
</style>
<linearGradient id="SVGID_1_" gradientUnits="userSpaceOnUse" x1="75" y1="151.6" x2="225" y2="151.6">
	<stop  offset="0" style="stop-color:#7ABCD8"/>
	<stop  offset="0.1082" style="stop-color:#74B7D8"/>
	<stop  offset="0.2564" style="stop-color:#62A9D9"/>
	<stop  offset="0.4272" style="stop-color:#4593DA"/>
	<stop  offset="0.4944" style="stop-color:#3888DA"/>
	<stop  offset="0.7023" style="stop-color:#3198DE"/>
	<stop  offset="1" style="stop-color:#29ABE2"/>
</linearGradient>
<path class="st0" d="M150,176.8c-38.65,0-70.47-29.24-74.55-66.8c-0.29,2.69-0.45,5.43-0.45,8.2c0,41.42,33.58,75,75,75
	s75-33.58,75-75c0-2.77-0.16-5.51-0.45-8.2C220.47,147.56,188.65,176.8,150,176.8z"/>
<linearGradient id="SVGID_2_" gradientUnits="userSpaceOnUse" x1="120.6346" y1="46.7749" x2="194.0511" y2="46.7749">
	<stop  offset="0" style="stop-color:#7ABCD8"/>
	<stop  offset="0.1082" style="stop-color:#74B7D8"/>
	<stop  offset="0.2564" style="stop-color:#62A9D9"/>
	<stop  offset="0.4272" style="stop-color:#4593DA"/>
	<stop  offset="0.4944" style="stop-color:#3888DA"/>
	<stop  offset="0.7023" style="stop-color:#3198DE"/>
	<stop  offset="1" style="stop-color:#29ABE2"/>
</linearGradient>
<polygon class="st1" points="192.97,55.71 120.63,45.45 121.71,37.84 194.05,48.1 "/>
<linearGradient id="SVGID_3_" gradientUnits="userSpaceOnUse" x1="107.8478" y1="136.9581" x2="181.2643" y2="136.9581">
	<stop  offset="0" style="stop-color:#7ABCD8"/>
	<stop  offset="0.1082" style="stop-color:#74B7D8"/>
	<stop  offset="0.2564" style="stop-color:#62A9D9"/>
	<stop  offset="0.4272" style="stop-color:#4593DA"/>
	<stop  offset="0.4944" style="stop-color:#3888DA"/>
	<stop  offset="0.7023" style="stop-color:#3198DE"/>
	<stop  offset="1" style="stop-color:#29ABE2"/>
</linearGradient>
<polygon class="st2" points="180.18,145.89 107.85,135.64 108.93,128.02 181.26,138.28 "/>
<linearGradient id="SVGID_4_" gradientUnits="userSpaceOnUse" x1="168.2086" y1="50.7559" x2="133.5033" y2="134.9575">
	<stop  offset="0" style="stop-color:#7ABCD8"/>
	<stop  offset="0.1082" style="stop-color:#74B7D8"/>
	<stop  offset="0.2564" style="stop-color:#62A9D9"/>
	<stop  offset="0.4272" style="stop-color:#4593DA"/>
	<stop  offset="0.4944" style="stop-color:#3888DA"/>
	<stop  offset="0.7023" style="stop-color:#3198DE"/>
	<stop  offset="1" style="stop-color:#29ABE2"/>
</linearGradient>
<path class="st3" d="M158.48,93.94c9.59-2.96,19.69-9.13,33.88-33.23l-6.31-0.89c-3.15,5.32-6.05,9.57-8.76,13l0.2-0.3L134,72.57
	c-2.69-4.98-5.31-11.73-7.76-21.23l-6.31-0.89c6.94,27.09,14.92,35.83,23.31,41.34c-9.59,2.96-19.69,9.13-33.88,33.23l3.61,0.51l0,0
	l2.71,0.38l59.8,8.48l6.31,0.89C174.85,108.18,166.86,99.45,158.48,93.94z M125.64,111.41c10.29-12.34,17.75-12.83,24.81-15.36
	c5.09,3.67,10.81,6.05,16.3,15.36H125.64z"/>
<g>
	<path class="st59" d="M94.38,211.13l-4.79,25h-4.64l4.01-20.92h-4.9l-3.97,20.92h-4.64l4.79-25H94.38z"/>
	<path class="st59" d="M91.7,243.26l3.67-19.29c0.41-2.15,0.71-4.19,0.96-5.97h3.97l-0.3,2.63h0.07c1.11-1.82,2.86-2.93,4.53-2.93
		c3.27,0,3.9,2.82,3.9,5.6c0,6.08-3.26,13.13-8.57,13.13c-0.82,0-1.71-0.15-2.22-0.45H97.6l-1.34,7.27H91.7z M98.27,232.54
		c0.37,0.26,0.74,0.44,1.3,0.44c2.82,0,4.19-6.16,4.19-8.87c0-1.22-0.11-2.49-1.33-2.49c-1.19,0-2.45,1.89-2.89,4.08L98.27,232.54z"
		/>
	<path class="st59" d="M114.97,236.43c-4.56,0-5.56-3.6-5.56-6.27c0-6.12,3.38-12.46,8.87-12.46c4.6,0,5.27,3.82,5.27,6.34
		c0,5.71-3.04,12.39-8.53,12.39H114.97z M115.49,232.91c2.23,0,3.49-6.16,3.49-9.42c0-1.22-0.33-2.26-1.45-2.26
		c-2,0-3.56,5.6-3.52,8.72c0,1.33,0.04,2.97,1.45,2.97H115.49z"/>
	<path class="st59" d="M131.05,218l-1.15,5.97c-0.07,0.41-0.15,1-0.15,1.45c0,0.78,0.3,1.48,1.3,1.48c0.82,0,1.48-0.45,2.04-0.96
		l1.52-7.94h4.64l-3.49,18.21h-4.6l1.37-7.05h-0.11c-0.82,0.63-2.26,1.11-3.49,1.11c-2.86,0-3.97-1.85-3.97-3.97
		c0-0.82,0.3-2.3,0.45-3.08l1-5.23H131.05z"/>
	<path class="st59" d="M146.99,218l-1.37,7.01h3.78l1.37-7.01h4.64l-3.49,18.14h-4.64l1.45-7.6h-3.71l-1.45,7.6h-4.64l3.38-18.14
		H146.99z"/>
	<path class="st59" d="M161.25,236.43c-4.56,0-5.56-3.6-5.56-6.27c0-6.12,3.38-12.46,8.87-12.46c4.6,0,5.27,3.82,5.27,6.34
		c0,5.71-3.04,12.39-8.53,12.39H161.25z M161.77,232.91c2.22,0,3.49-6.16,3.49-9.42c0-1.22-0.33-2.26-1.45-2.26
		c-2,0-3.56,5.6-3.52,8.72c0,1.33,0.04,2.97,1.45,2.97H161.77z"/>
	<path class="st59" d="M179.62,235.88c-0.52,0.22-1.71,0.48-3.23,0.48c-4.01,0-5.68-3.19-5.68-6.53c0-6.49,4.04-12.09,9.76-12.09
		c1.11,0,1.82,0.15,2.26,0.33l-1.15,3.78c-0.44-0.11-0.89-0.19-1.3-0.19c-2.71,0-4.93,3.64-4.93,7.49c0,2.08,0.85,3.41,2.37,3.41
		c0.85,0,1.63-0.26,2.23-0.41L179.62,235.88z"/>
	<path class="st59" d="M181.04,236.13l2.34-12.24c0.41-2.11,0.7-4.19,0.96-5.9h3.97l-0.19,2.49h0.07c1.22-1.86,2.89-2.78,4.93-2.78
		c1.74,0,2.78,1.19,3.04,2.78c1.19-1.71,2.93-2.78,4.97-2.78c2.26,0,3.34,1.59,3.34,3.93c0,0.78-0.19,2.19-0.45,3.67l-2.08,10.83
		h-4.56l2.04-10.76c0.19-1,0.3-1.89,0.3-2.71c0-0.74-0.37-1.26-1.11-1.26c-1,0-2.37,1.52-3.08,5.08l-1.86,9.64h-4.45l2.04-10.76
		c0.19-0.93,0.3-1.78,0.3-2.6c0-0.82-0.3-1.37-1.04-1.37c-0.93,0-2.45,1.67-3.08,5.08l-1.82,9.64H181.04z"/>
	<path class="st59" d="M213.21,218l-1.71,6.79l0.07,0.04c1-0.93,2.45-1.45,3.9-1.45c2.49,0,4.3,1.74,4.3,4.79
		c0,3.64-2.71,8.2-8.83,8.2c-2.3,0-5.23-0.63-5.23-4.08c0-1,0.22-2.41,0.48-3.45l2.45-10.83H213.21z M211.91,232.72
		c1.71,0,3.23-1.56,3.23-3.56c0-1.34-0.63-2.08-1.67-2.08c-1.48,0-2.56,1.45-2.86,2.56c-0.19,0.56-0.22,0.89-0.22,1.48
		c0,0.89,0.48,1.59,1.48,1.59H211.91z"/>
	<path class="st59" d="M66.56,255.65l-3.97,20.88l1.93,0.15l-2.15,9.42h-3.75l0.93-5.45h-10.2l-1.26,5.45h-3.56l1.34-9.46l1.71-0.15
		c1.15-2,2.15-4.16,2.97-6.42c0.96-2.67,1.67-5.45,2.15-8.16l1.19-6.27H66.56z M56.65,263.25c-0.52,2.6-1.15,5.27-2,7.72
		c-0.67,1.97-1.41,3.71-2.41,5.56h5.67l3.19-16.77h-3.78L56.65,263.25z"/>
	<path class="st59" d="M71.73,280.95c-4.56,0-5.56-3.6-5.56-6.27c0-6.12,3.38-12.46,8.87-12.46c4.6,0,5.27,3.82,5.27,6.34
		c0,5.71-3.04,12.39-8.53,12.39H71.73z M72.25,277.42c2.22,0,3.49-6.16,3.49-9.42c0-1.22-0.33-2.26-1.45-2.26
		c-2,0-3.56,5.6-3.52,8.72c0,1.33,0.04,2.97,1.45,2.97H72.25z"/>
	<path class="st59" d="M97,262.51l-3.45,18.14h-4.56l2.71-14.54h-2.86l-0.82,4.27c-0.78,4.08-1.67,7.31-4.12,9.13
		c-1.04,0.82-2.37,1.45-4.15,1.45l-0.26-3.64c0.74-0.11,1.52-0.48,1.97-0.93c1.19-1.08,1.85-3.6,2.23-5.56l1.6-8.31H97z"/>
	<path class="st59" d="M99.36,263.21c1.19-0.56,2.82-1,4.53-1c3.04,0,4.86,1.74,4.86,4.56c0,2.86-2.26,4.53-4.71,6.19
		c-1.67,1.11-3.19,2.23-3.19,3.19c0,0.74,0.52,1.26,1.52,1.26c1.41,0,2.56-0.37,3.45-0.82l0.41,3.23c-1.08,0.56-2.63,1.04-4.82,1.04
		c-2.93,0-5.12-1.48-5.12-4.53c0-3.26,2.63-4.9,5.38-6.71c1.52-1,2.71-1.89,2.71-2.71c0-0.74-0.63-1.22-1.67-1.22
		c-1.04,0-2.49,0.45-2.93,0.67L99.36,263.21z"/>
	<path class="st59" d="M114.47,280.95c-4.56,0-5.56-3.6-5.56-6.27c0-6.12,3.38-12.46,8.87-12.46c4.6,0,5.27,3.82,5.27,6.34
		c0,5.71-3.04,12.39-8.53,12.39H114.47z M114.99,277.42c2.23,0,3.49-6.16,3.49-9.42c0-1.22-0.33-2.26-1.45-2.26
		c-2,0-3.56,5.6-3.52,8.72c0,1.33,0.04,2.97,1.45,2.97H114.99z"/>
	<path class="st59" d="M133,262.21c2.6,0,5.08,1.11,5.08,4.12c0,2.67-1.93,3.93-3.82,4.71v0.11c1.41,0.15,2.97,1.3,2.97,3.6
		c0,4.23-3.82,6.12-7.86,6.12c-4.16,0-5.34-2.3-5.34-5.38c0-3.56,1.37-9.72,4.64-11.98c1.19-0.82,2.6-1.3,4.3-1.3H133z
		 M130.78,272.67c-0.67,0-1.45,0.22-2.19,0.56c-0.11,0.45-0.3,1.48-0.3,2.23c0,0.96,0.37,1.97,1.74,1.97c1.48,0,2.67-1.08,2.67-2.71
		c0-1.45-0.85-2-1.89-2.04H130.78z M132.33,265.59c-1.89,0-2.86,2.78-3.19,4.34c1.33-0.3,2.63-0.63,3.52-1.19
		c0.67-0.45,1.19-1,1.19-1.74c0-0.82-0.52-1.41-1.48-1.41H132.33z"/>
	<path class="st59" d="M150.41,279.87c-1.6,0.67-3.15,1-5.23,1c-4.45,0-6.16-2.93-6.16-6.83c0-5.27,2.93-11.83,8.72-11.83
		c3.3,0,4.82,2.45,4.82,4.93c0,4.97-4.01,6.83-9.05,6.68c-0.04,0.52,0,1.45,0.41,2.11c0.45,0.74,1.26,1.3,2.52,1.3
		c1.52,0,2.6-0.37,3.67-0.89L150.41,279.87z M148.44,267.55c0-1-0.41-1.63-1.3-1.63c-1.41,0-2.67,1.82-3.19,4.41
		c2.45,0.11,4.49-0.85,4.49-2.75V267.55z"/>
	<path class="st59" d="M159.61,262.51l-1.15,5.97c-0.07,0.41-0.15,1-0.15,1.45c0,0.78,0.3,1.48,1.3,1.48c0.82,0,1.48-0.45,2.04-0.96
		l1.52-7.94h4.64l-3.49,18.21h-4.6l1.37-7.05h-0.11c-0.82,0.63-2.26,1.11-3.49,1.11c-2.86,0-3.97-1.85-3.97-3.97
		c0-0.82,0.3-2.3,0.45-3.08l1-5.23H159.61z"/>
	<path class="st59" d="M175.55,262.51l-1.37,7.01h3.78l1.37-7.01h4.64l-3.49,18.14h-4.64l1.45-7.6h-3.71l-1.45,7.6h-4.64l3.38-18.14
		H175.55z"/>
	<path class="st59" d="M189.81,280.95c-4.56,0-5.56-3.6-5.56-6.27c0-6.12,3.38-12.46,8.87-12.46c4.6,0,5.27,3.82,5.27,6.34
		c0,5.71-3.04,12.39-8.53,12.39H189.81z M190.33,277.42c2.23,0,3.49-6.16,3.49-9.42c0-1.22-0.33-2.26-1.45-2.26
		c-2,0-3.56,5.6-3.52,8.72c0,1.33,0.04,2.97,1.45,2.97H190.33z"/>
	<path class="st59" d="M208.18,280.39c-0.52,0.22-1.71,0.48-3.23,0.48c-4.01,0-5.68-3.19-5.68-6.53c0-6.49,4.04-12.09,9.76-12.09
		c1.11,0,1.82,0.15,2.26,0.33l-1.15,3.78c-0.45-0.11-0.89-0.19-1.3-0.19c-2.71,0-4.93,3.64-4.93,7.49c0,2.08,0.85,3.41,2.38,3.41
		c0.85,0,1.63-0.26,2.23-0.41L208.18,280.39z"/>
	<path class="st59" d="M209.6,280.65l2.34-12.24c0.41-2.11,0.7-4.19,0.96-5.9h3.97l-0.19,2.49h0.07c1.22-1.86,2.89-2.78,4.93-2.78
		c1.74,0,2.78,1.19,3.04,2.78c1.19-1.71,2.93-2.78,4.97-2.78c2.26,0,3.34,1.59,3.34,3.93c0,0.78-0.19,2.19-0.45,3.67l-2.08,10.83
		h-4.56l2.04-10.76c0.19-1,0.3-1.89,0.3-2.71c0-0.74-0.37-1.26-1.11-1.26c-1,0-2.37,1.52-3.08,5.08l-1.86,9.64h-4.45l2.04-10.76
		c0.19-0.93,0.3-1.78,0.3-2.6c0-0.82-0.3-1.37-1.04-1.37c-0.93,0-2.45,1.67-3.08,5.08l-1.82,9.64H209.6z"/>
	<path class="st59" d="M241.77,262.51l-1.71,6.79l0.07,0.04c1-0.93,2.45-1.45,3.89-1.45c2.49,0,4.3,1.74,4.3,4.79
		c0,3.64-2.71,8.2-8.83,8.2c-2.3,0-5.23-0.63-5.23-4.08c0-1,0.22-2.41,0.48-3.45l2.45-10.83H241.77z M240.47,277.24
		c1.71,0,3.23-1.56,3.23-3.56c0-1.34-0.63-2.08-1.67-2.08c-1.48,0-2.56,1.45-2.86,2.56c-0.19,0.56-0.22,0.89-0.22,1.48
		c0,0.89,0.48,1.59,1.48,1.59H240.47z"/>
</g>
</svg>
