<?xml version="1.0" encoding="utf-8"?>
<!-- Generator: Adobe Illustrator 24.0.2, SVG Export Plug-In . SVG Version: 6.00 Build 0)  -->
<svg version="1.1" id="Слой_1" xmlns="http://www.w3.org/2000/svg" xmlns:xlink="http://www.w3.org/1999/xlink" x="0px" y="0px"
	 viewBox="0 0 300 300" style="enable-background:new 0 0 300 300;" xml:space="preserve">
<style type="text/css">
	.st0{fill:url(#SVGID_1_);}
	.st1{fill:url(#SVGID_2_);}
	.st2{fill:url(#SVGID_3_);}
	.st3{fill:url(#SVGID_4_);}
	.st4{fill:url(#SVGID_5_);}
	.st5{fill:url(#SVGID_6_);}
	.st6{fill:url(#SVGID_7_);}
	.st7{fill:url(#SVGID_8_);}
	.st8{fill:url(#SVGID_9_);}
	.st9{fill:url(#SVGID_10_);}
	.st10{fill:url(#SVGID_11_);}
	.st11{fill:url(#SVGID_12_);}
	.st12{fill:url(#SVGID_13_);}
	.st13{fill:url(#SVGID_14_);}
	.st14{fill:url(#SVGID_15_);}
	.st15{fill:url(#SVGID_16_);}
	.st16{fill:url(#SVGID_17_);}
	.st17{fill:url(#SVGID_18_);}
	.st18{fill:url(#SVGID_19_);}
	.st19{fill:url(#SVGID_20_);}
	.st20{fill:url(#SVGID_21_);}
	.st21{fill:url(#SVGID_22_);}
	.st22{fill:url(#SVGID_23_);}
	.st23{fill:url(#SVGID_24_);}
	.st24{fill:url(#SVGID_25_);}
	.st25{fill:url(#SVGID_26_);}
	.st26{fill:url(#SVGID_27_);}
	.st27{fill:url(#SVGID_28_);}
	.st28{fill:url(#SVGID_29_);}
	.st29{fill:url(#SVGID_30_);}
	.st30{fill:url(#SVGID_31_);}
	.st31{fill:url(#SVGID_32_);}
	.st32{fill:url(#SVGID_33_);}
	.st33{fill:url(#SVGID_34_);}
	.st34{fill:url(#SVGID_35_);}
	.st35{fill:url(#SVGID_36_);}
	.st36{fill:url(#SVGID_37_);}
	.st37{fill:url(#SVGID_38_);}
	.st38{fill:url(#SVGID_39_);}
	.st39{fill:url(#SVGID_40_);}
	.st40{fill:url(#SVGID_41_);}
	.st41{fill:url(#SVGID_42_);}
	.st42{fill:url(#SVGID_43_);}
	.st43{fill:url(#SVGID_44_);}
	.st44{fill:url(#SVGID_45_);}
	.st45{fill:url(#SVGID_46_);}
	.st46{fill:url(#SVGID_47_);}
	.st47{fill:url(#SVGID_48_);}
	.st48{fill:url(#SVGID_49_);}
	.st49{fill:url(#SVGID_50_);}
	.st50{fill:url(#SVGID_51_);}
	.st51{fill:url(#SVGID_52_);}
	.st52{fill:url(#SVGID_53_);}
	.st53{fill:url(#SVGID_54_);}
	.st54{fill:url(#SVGID_55_);}
	.st55{fill:url(#SVGID_56_);}
	.st56{fill:url(#SVGID_57_);}
	.st57{fill:url(#SVGID_58_);}
	.st58{fill:#8CC63D;}
	.st59{fill:#3888DA;}
	.st60{fill:url(#SVGID_59_);}
	.st61{fill:url(#SVGID_60_);}
	.st62{fill:url(#SVGID_61_);}
	.st63{fill:url(#SVGID_62_);}
	.st64{fill:url(#SVGID_63_);}
	.st65{fill:url(#SVGID_64_);}
	.st66{fill:none;}
	.st67{fill:#8CC1C1;}
	.st68{fill:#2A71B7;}
</style>
<g>
	<linearGradient id="SVGID_1_" gradientUnits="userSpaceOnUse" x1="147.897" y1="106.0659" x2="143.4312" y2="95.2311">
		<stop  offset="0" style="stop-color:#7ABCD8"/>
		<stop  offset="0.3616" style="stop-color:#65ACD9"/>
		<stop  offset="1" style="stop-color:#3888DA"/>
		<stop  offset="1" style="stop-color:#3198DE"/>
		<stop  offset="1" style="stop-color:#29ABE2"/>
	</linearGradient>
	<path class="st0" d="M148.96,97.29c-1.46-1.35-3.01-2.03-4.66-2.03c-1.34,0-2.41,0.47-3.22,1.41c-0.81,0.94-1.22,2.18-1.22,3.71
		c0,1.67,0.53,3.02,1.58,4.05c1.06,1.04,2.46,1.56,4.21,1.56c1.41,0,2.75-0.23,4.02-0.68c1.27-0.45,2.4-1.09,3.37-1.9
		C151.78,100.68,150.42,98.64,148.96,97.29z"/>
	<linearGradient id="SVGID_2_" gradientUnits="userSpaceOnUse" x1="153.0495" y1="99.1889" x2="137.6467" y2="61.819">
		<stop  offset="0" style="stop-color:#7ABCD8"/>
		<stop  offset="0.3616" style="stop-color:#65ACD9"/>
		<stop  offset="1" style="stop-color:#3888DA"/>
		<stop  offset="1" style="stop-color:#3198DE"/>
		<stop  offset="1" style="stop-color:#29ABE2"/>
	</linearGradient>
	<path class="st1" d="M146.41,59.56c-5.15,0-9.16,2.02-12.04,6.06c-2.88,4.04-4.31,9.68-4.31,16.91c0,4.31,0.49,7.98,1.46,11.01
		c0.97,3.03,2.38,5.31,4.22,6.84c-0.02-0.22-0.04-0.47-0.05-0.76c-0.01-0.29-0.02-0.7-0.02-1.25c0-3.33,0.83-5.92,2.49-7.78
		c1.66-1.86,3.99-2.78,6.97-2.78c2.5,0,4.94,0.69,7.32,2.07c2.38,1.38,4.86,3.54,7.43,6.49c0.83-1.8,1.44-3.8,1.86-6
		c0.41-2.2,0.62-4.59,0.62-7.19c0-7.42-1.41-13.22-4.22-17.38C155.32,61.64,151.41,59.56,146.41,59.56z"/>
	<linearGradient id="SVGID_3_" gradientUnits="userSpaceOnUse" x1="164.3786" y1="148.0574" x2="119.2349" y2="38.5304">
		<stop  offset="0" style="stop-color:#7ABCD8"/>
		<stop  offset="0.3616" style="stop-color:#65ACD9"/>
		<stop  offset="1" style="stop-color:#3888DA"/>
		<stop  offset="1" style="stop-color:#3198DE"/>
		<stop  offset="1" style="stop-color:#29ABE2"/>
	</linearGradient>
	<path class="st2" d="M208.5,109.88c-7.69-1.48-13.95-3.62-18.42-5.47c0.01-0.54,0.08-1.04,0.28-1.48c0.98-2.14,5.21-3.1,5.88-5.39
		c0.66-2.25-2.38-5.34-2.04-7.71c0.33-2.31,4.12-4.42,4.12-6.83c0-2.41-3.79-4.52-4.12-6.83c-0.34-2.37,2.7-5.46,2.04-7.71
		c-0.67-2.29-4.9-3.25-5.88-5.39c-0.99-2.17,1.05-5.99-0.23-7.97c-1.29-2-5.61-1.72-7.17-3.51c-1.55-1.79-0.67-6.04-2.46-7.59
		c-1.79-1.55-5.86-0.08-7.86-1.36c-1.99-1.28-2.33-5.6-4.49-6.59c-2.14-0.98-5.63,1.58-7.93,0.91c-2.25-0.66-3.8-4.71-6.18-5.05
		c-2.31-0.33-4.94,3.12-7.35,3.12s-5.03-3.45-7.34-3.12c-2.37,0.34-3.92,4.39-6.18,5.05c-2.29,0.67-5.78-1.9-7.93-0.91
		c-2.16,0.99-2.51,5.31-4.49,6.59c-2,1.29-6.07-0.19-7.86,1.36c-1.79,1.55-0.9,5.8-2.46,7.59c-1.55,1.79-5.88,1.51-7.16,3.51
		c-1.28,1.99,0.76,5.81-0.23,7.97c-0.98,2.14-5.21,3.1-5.88,5.39c-0.66,2.25,2.38,5.34,2.04,7.71C98.89,78.49,95.1,80.6,95.1,83
		c0,2.41,3.79,4.52,4.12,6.83c0.34,2.37-2.7,5.46-2.04,7.71c0.67,2.29,4.9,3.25,5.88,5.39c0.99,2.17-1.05,5.99,0.23,7.97
		c1.29,2,5.61,1.72,7.16,3.51c0.28,0.32,0.48,0.73,0.63,1.18c-4.61,3.65-11.15,8.21-19.58,12.59l23.34,2.99l4.74,19.96
		c4.15-9.29,10.13-16.93,14.4-21.71c1.84,1.22,3.29,4.37,5.38,4.66c2.31,0.33,4.94-3.12,7.34-3.12s5.03,3.45,7.34,3.12
		c2.38-0.34,3.92-4.39,6.18-5.05c2.29-0.67,5.78,1.9,7.92,0.91c2.16-0.99,2.51-5.31,4.49-6.59c1.52-0.98,4.24-0.36,6.25-0.69
		c4.39,2.88,10.17,7.28,15.24,13.12l-2.09-17.53L208.5,109.88z M168.18,114.42c-1.75,0-8.84-2-10.8-4.29
		c-1.85,0.71-3.71,1.25-5.61,1.62s-3.84,0.55-5.83,0.55c-8.23,0-14.87-2.74-19.92-8.21c-5.05-5.47-7.57-12.66-7.57-21.56
		c0-8.9,2.53-16.07,7.59-21.52c5.06-5.45,11.72-8.17,19.97-8.17c8.23,0,14.88,2.72,19.94,8.17c5.06,5.45,7.59,12.59,7.59,21.43
		c0,4.37-0.68,8.39-2.04,12.08c-1.36,3.68-3.34,6.84-5.94,9.46c-0.68,4.28,7.8,5.04,11.85,5.16l-2.08,3.62
		C173.59,113.68,171.25,114.42,168.18,114.42z"/>
</g>
<linearGradient id="SVGID_4_" gradientUnits="userSpaceOnUse" x1="75" y1="152.9352" x2="225" y2="152.9352">
	<stop  offset="0" style="stop-color:#7ABCD8"/>
	<stop  offset="0.1082" style="stop-color:#74B7D8"/>
	<stop  offset="0.2564" style="stop-color:#62A9D9"/>
	<stop  offset="0.4272" style="stop-color:#4593DA"/>
	<stop  offset="0.4944" style="stop-color:#3888DA"/>
	<stop  offset="0.7023" style="stop-color:#3198DE"/>
	<stop  offset="1" style="stop-color:#29ABE2"/>
</linearGradient>
<path class="st3" d="M150,178.14c-38.65,0-70.47-29.24-74.55-66.8c-0.29,2.69-0.45,5.43-0.45,8.2c0,41.42,33.58,75,75,75
	s75-33.58,75-75c0-2.77-0.16-5.51-0.45-8.2C220.47,148.9,188.65,178.14,150,178.14z"/>
<g>
	<path class="st59" d="M73.71,213.8c1.3-0.26,3-0.44,4.79-0.44c2.04,0,4.19,0.33,5.64,1.74c1.08,1,1.56,2.41,1.56,3.97
		c0,3.04-2.19,5.53-4.82,6.34v0.15c2.49,0.85,3.34,3.19,3.34,5.34c0,2.23-1.15,4.23-2.67,5.49c-1.82,1.45-4.3,2.19-7.86,2.19
		c-2.37,0-3.52-0.11-4.64-0.33L73.71,213.8z M74.08,234.87c0.3,0.07,0.71,0.07,1.15,0.07c2.67,0,4.38-1.89,4.38-4.49
		c0-2.11-1.04-3.45-3.15-3.45H75.6L74.08,234.87z M76.27,223.56h0.71c2.67,0,4.23-1.67,4.23-4.08c0-1.3-0.59-2.71-2.45-2.71
		c-0.41,0-0.89,0-1.26,0.11L76.27,223.56z"/>
	<path class="st59" d="M93.38,220.33l-1.78,6.86h0.04c1.08-1,2.45-1.48,3.93-1.48c2.49,0,4.04,1.74,4.04,4.64
		c0,3.78-2.75,8.35-8.5,8.35c-2.37,0-5.27-0.56-5.27-4.04c0-1,0.22-2.37,0.45-3.38l2.52-10.94H93.38z M91.93,235.06
		c1.63,0,3.04-1.63,3.04-3.71c0-1.22-0.63-1.93-1.52-1.93c-1.33,0-2.34,1.37-2.71,2.49c-0.11,0.48-0.26,1.08-0.26,1.56
		c0,0.89,0.48,1.59,1.41,1.59H91.93z M107.77,220.33l-3.49,18.14h-4.64l3.49-18.14H107.77z"/>
	<path class="st59" d="M116.85,238.21c-0.52,0.22-1.71,0.48-3.23,0.48c-4.01,0-5.68-3.19-5.68-6.53c0-6.49,4.04-12.09,9.76-12.09
		c1.11,0,1.82,0.15,2.26,0.33l-1.15,3.78c-0.44-0.11-0.89-0.19-1.3-0.19c-2.71,0-4.93,3.64-4.93,7.49c0,2.08,0.85,3.41,2.37,3.41
		c0.85,0,1.63-0.26,2.23-0.41L116.85,238.21z"/>
	<path class="st59" d="M124.18,238.77c-4.56,0-5.56-3.6-5.56-6.27c0-6.12,3.38-12.46,8.87-12.46c4.6,0,5.27,3.82,5.27,6.34
		c0,5.71-3.04,12.39-8.53,12.39H124.18z M124.7,235.24c2.23,0,3.49-6.16,3.49-9.42c0-1.22-0.33-2.26-1.45-2.26
		c-2,0-3.56,5.6-3.52,8.72c0,1.33,0.04,2.97,1.45,2.97H124.7z"/>
	<path class="st59" d="M140.25,220.33l-1.15,5.97c-0.07,0.41-0.15,1-0.15,1.45c0,0.78,0.3,1.48,1.3,1.48c0.82,0,1.48-0.45,2.04-0.96
		l1.52-7.94h4.64l-3.49,18.21h-4.6l1.37-7.05h-0.11c-0.82,0.63-2.26,1.11-3.49,1.11c-2.86,0-3.97-1.85-3.97-3.97
		c0-0.82,0.3-2.3,0.45-3.08l1-5.23H140.25z"/>
	<path class="st59" d="M157.08,238.47c0.04-0.96,0.11-1.97,0.15-3.04h-0.11c-1.45,2.41-3.19,3.34-4.64,3.34
		c-2.63,0-3.93-2.26-3.93-5.45c0-5.49,2.75-13.28,10.54-13.28c1.82,0,3.63,0.3,4.75,0.74l-2,10.09c-0.44,2.11-0.78,5.64-0.74,7.6
		H157.08z M158.75,223.59c-0.37-0.07-0.71-0.11-0.96-0.11c-3.04,0-4.67,6.05-4.71,8.72c0,1.59,0.22,2.74,1.37,2.74
		c1.26,0,2.45-2.08,3.12-5.38L158.75,223.59z"/>
	<path class="st59" d="M171.43,220.33l-1.97,10.31c-0.19,1.11-0.33,2.04-0.33,2.89c0,0.89,0.33,1.45,1.11,1.45
		c1.19,0,2.37-1.56,2.89-4.15l1.93-10.5h4.64l-2.3,12.2c-0.45,2.15-0.71,4.19-0.93,5.93h-4.01l0.15-2.49h-0.07
		c-1.34,1.93-3,2.78-4.71,2.78c-2.41,0-3.45-1.82-3.45-4.19c0-1.15,0.19-2.37,0.45-3.75l1.97-10.5H171.43z M172.84,213.47
		c-0.07,1.52,0.37,2.37,1.52,2.37c1.19,0,1.78-1.08,2-2.37h2.89c-0.48,2.89-2.19,4.49-5.08,4.49c-2.86,0-4.19-1.74-4.15-4.49H172.84
		z"/>
	<path class="st59" d="M187.34,220.33l-2.04,10.76c-0.19,1-0.3,1.85-0.3,2.67c0,0.78,0.37,1.26,1.08,1.26c1,0,2.37-1.52,3.08-5.04
		l1.85-9.64h4.49l-2.08,10.76c-0.19,0.93-0.3,1.74-0.3,2.56s0.3,1.37,1.04,1.37c0.93,0,2.49-1.67,3.12-5.04l1.82-9.64h4.56
		l-2.3,12.09c-0.37,1.97-0.59,4.34-0.67,6.05h-3.97c0.04-0.89,0.04-1.78,0.07-2.63h-0.07c-1.26,1.82-3.08,2.93-5.12,2.93
		c-1.78,0-2.82-1.19-3.04-2.78c-1.22,1.67-2.97,2.78-5.01,2.78c-2.26,0-3.34-1.59-3.34-3.97c0-0.74,0.19-2.15,0.48-3.64l2.04-10.83
		H187.34z"/>
	<path class="st59" d="M215.42,237.69c-1.6,0.67-3.15,1-5.23,1c-4.45,0-6.16-2.93-6.16-6.83c0-5.27,2.93-11.83,8.72-11.83
		c3.3,0,4.82,2.45,4.82,4.93c0,4.97-4.01,6.83-9.05,6.68c-0.04,0.52,0,1.45,0.41,2.11c0.45,0.74,1.26,1.3,2.52,1.3
		c1.52,0,2.6-0.37,3.67-0.89L215.42,237.69z M213.45,225.38c0-1-0.41-1.63-1.3-1.63c-1.41,0-2.67,1.82-3.19,4.41
		c2.45,0.11,4.49-0.85,4.49-2.75V225.38z"/>
	<path class="st59" d="M229.33,237.69c-1.59,0.67-3.15,1-5.23,1c-4.45,0-6.16-2.93-6.16-6.83c0-5.27,2.93-11.83,8.72-11.83
		c3.3,0,4.82,2.45,4.82,4.93c0,4.97-4.01,6.83-9.05,6.68c-0.04,0.52,0,1.45,0.41,2.11c0.45,0.74,1.26,1.3,2.52,1.3
		c1.52,0,2.6-0.37,3.67-0.89L229.33,237.69z M227.37,225.38c0-1-0.41-1.63-1.3-1.63c-1.41,0-2.67,1.82-3.19,4.41
		c2.45,0.11,4.49-0.85,4.49-2.75V225.38z"/>
	<path class="st59" d="M95.99,264.84l-1.52,7.86h0.22l4.97-7.86h5.19l-6.68,8.38c1.33,0.63,1.97,2.19,2.19,5.23
		c0.15,1.82,0.33,3.52,0.67,4.53h-4.45c-0.3-0.78-0.45-3.12-0.52-4.49c-0.15-2-0.67-3.12-1.71-3.12h-0.33l-1.45,7.6h-4.6l3.49-18.14
		H95.99z"/>
	<path class="st59" d="M111.49,282.98c0.04-0.96,0.11-1.97,0.15-3.04h-0.11c-1.45,2.41-3.19,3.34-4.64,3.34
		c-2.63,0-3.93-2.26-3.93-5.45c0-5.49,2.75-13.28,10.54-13.28c1.82,0,3.64,0.3,4.75,0.74l-2,10.09c-0.45,2.11-0.78,5.64-0.74,7.6
		H111.49z M113.16,268.11c-0.37-0.07-0.71-0.11-0.96-0.11c-3.04,0-4.67,6.05-4.71,8.72c0,1.59,0.22,2.74,1.37,2.74
		c1.26,0,2.45-2.08,3.12-5.38L113.16,268.11z"/>
	<path class="st59" d="M125.03,264.84l-1.15,5.97c-0.07,0.41-0.15,1-0.15,1.45c0,0.78,0.3,1.48,1.3,1.48c0.82,0,1.48-0.45,2.04-0.96
		l1.52-7.94h4.64l-3.49,18.21h-4.6l1.37-7.05h-0.11c-0.82,0.63-2.26,1.11-3.49,1.11c-2.86,0-3.97-1.85-3.97-3.97
		c0-0.82,0.3-2.3,0.45-3.08l1-5.23H125.03z"/>
	<path class="st59" d="M144.89,282.2c-1.59,0.67-3.15,1-5.23,1c-4.45,0-6.16-2.93-6.16-6.83c0-5.27,2.93-11.83,8.72-11.83
		c3.3,0,4.82,2.45,4.82,4.93c0,4.97-4.01,6.83-9.05,6.68c-0.04,0.52,0,1.45,0.41,2.11c0.45,0.74,1.26,1.3,2.52,1.3
		c1.52,0,2.6-0.37,3.67-0.89L144.89,282.2z M142.92,269.89c0-1-0.41-1.63-1.3-1.63c-1.41,0-2.67,1.82-3.19,4.41
		c2.45,0.11,4.49-0.85,4.49-2.75V269.89z"/>
	<path class="st59" d="M156.21,282.72c-0.52,0.22-1.71,0.48-3.23,0.48c-4.01,0-5.68-3.19-5.68-6.53c0-6.49,4.04-12.09,9.76-12.09
		c1.11,0,1.82,0.15,2.26,0.33l-1.15,3.78c-0.44-0.11-0.89-0.19-1.3-0.19c-2.71,0-4.93,3.64-4.93,7.49c0,2.08,0.85,3.41,2.37,3.41
		c0.85,0,1.63-0.26,2.23-0.41L156.21,282.72z"/>
	<path class="st59" d="M157.63,282.98l2.34-12.24c0.41-2.11,0.7-4.19,0.96-5.9h3.97l-0.19,2.49h0.07c1.22-1.86,2.89-2.78,4.93-2.78
		c1.74,0,2.78,1.19,3.04,2.78c1.19-1.71,2.93-2.78,4.97-2.78c2.26,0,3.34,1.59,3.34,3.93c0,0.78-0.19,2.19-0.45,3.67l-2.08,10.83
		h-4.56l2.04-10.76c0.19-1,0.3-1.89,0.3-2.71c0-0.74-0.37-1.26-1.11-1.26c-1,0-2.37,1.52-3.08,5.08l-1.86,9.64h-4.45l2.04-10.76
		c0.19-0.93,0.3-1.78,0.3-2.6c0-0.82-0.3-1.37-1.04-1.37c-0.93,0-2.45,1.67-3.08,5.08l-1.82,9.64H157.63z"/>
	<path class="st59" d="M191.29,264.55c2.6,0,5.08,1.11,5.08,4.12c0,2.67-1.93,3.93-3.82,4.71v0.11c1.41,0.15,2.97,1.3,2.97,3.6
		c0,4.23-3.82,6.12-7.86,6.12c-4.16,0-5.34-2.3-5.34-5.38c0-3.56,1.37-9.72,4.64-11.98c1.19-0.82,2.6-1.3,4.3-1.3H191.29z
		 M189.06,275.01c-0.67,0-1.45,0.22-2.19,0.56c-0.11,0.45-0.3,1.48-0.3,2.23c0,0.96,0.37,1.97,1.74,1.97c1.48,0,2.67-1.08,2.67-2.71
		c0-1.45-0.85-2-1.89-2.04H189.06z M190.62,267.92c-1.89,0-2.86,2.78-3.19,4.34c1.33-0.3,2.63-0.63,3.52-1.19
		c0.67-0.45,1.19-1,1.19-1.74c0-0.82-0.52-1.41-1.48-1.41H190.62z"/>
	<path class="st59" d="M202.75,283.28c-4.56,0-5.56-3.6-5.56-6.27c0-6.12,3.38-12.46,8.87-12.46c4.6,0,5.27,3.82,5.27,6.34
		c0,5.71-3.04,12.39-8.53,12.39H202.75z M203.27,279.76c2.23,0,3.49-6.16,3.49-9.42c0-1.22-0.33-2.26-1.45-2.26
		c-2,0-3.56,5.6-3.52,8.72c0,1.33,0.04,2.97,1.45,2.97H203.27z"/>
</g>
</svg>
