<?xml version="1.0" encoding="utf-8"?>
<!-- Generator: Adobe Illustrator 24.0.2, SVG Export Plug-In . SVG Version: 6.00 Build 0)  -->
<svg version="1.1" id="Слой_1" xmlns="http://www.w3.org/2000/svg" xmlns:xlink="http://www.w3.org/1999/xlink" x="0px" y="0px"
	 viewBox="0 0 300 300" style="enable-background:new 0 0 300 300;" xml:space="preserve">
<style type="text/css">
	.st0{fill:url(#SVGID_1_);}
	.st1{fill:url(#SVGID_2_);}
	.st2{fill:url(#SVGID_3_);}
	.st3{fill:url(#SVGID_4_);}
	.st4{fill:url(#SVGID_5_);}
	.st5{fill:url(#SVGID_6_);}
	.st6{fill:url(#SVGID_7_);}
	.st7{fill:url(#SVGID_8_);}
	.st8{fill:url(#SVGID_9_);}
	.st9{fill:url(#SVGID_10_);}
	.st10{fill:url(#SVGID_11_);}
	.st11{fill:url(#SVGID_12_);}
	.st12{fill:url(#SVGID_13_);}
	.st13{fill:url(#SVGID_14_);}
	.st14{fill:url(#SVGID_15_);}
	.st15{fill:url(#SVGID_16_);}
	.st16{fill:url(#SVGID_17_);}
	.st17{fill:url(#SVGID_18_);}
	.st18{fill:url(#SVGID_19_);}
	.st19{fill:url(#SVGID_20_);}
	.st20{fill:url(#SVGID_21_);}
	.st21{fill:url(#SVGID_22_);}
	.st22{fill:url(#SVGID_23_);}
	.st23{fill:url(#SVGID_24_);}
	.st24{fill:url(#SVGID_25_);}
	.st25{fill:url(#SVGID_26_);}
	.st26{fill:url(#SVGID_27_);}
	.st27{fill:url(#SVGID_28_);}
	.st28{fill:url(#SVGID_29_);}
	.st29{fill:url(#SVGID_30_);}
	.st30{fill:url(#SVGID_31_);}
	.st31{fill:url(#SVGID_32_);}
	.st32{fill:url(#SVGID_33_);}
	.st33{fill:url(#SVGID_34_);}
	.st34{fill:url(#SVGID_35_);}
	.st35{fill:url(#SVGID_36_);}
	.st36{fill:url(#SVGID_37_);}
	.st37{fill:url(#SVGID_38_);}
	.st38{fill:url(#SVGID_39_);}
	.st39{fill:url(#SVGID_40_);}
	.st40{fill:url(#SVGID_41_);}
	.st41{fill:url(#SVGID_42_);}
	.st42{fill:url(#SVGID_43_);}
	.st43{fill:url(#SVGID_44_);}
	.st44{fill:url(#SVGID_45_);}
	.st45{fill:url(#SVGID_46_);}
	.st46{fill:url(#SVGID_47_);}
	.st47{fill:url(#SVGID_48_);}
	.st48{fill:url(#SVGID_49_);}
	.st49{fill:url(#SVGID_50_);}
	.st50{fill:url(#SVGID_51_);}
	.st51{fill:url(#SVGID_52_);}
	.st52{fill:url(#SVGID_53_);}
	.st53{fill:url(#SVGID_54_);}
	.st54{fill:url(#SVGID_55_);}
	.st55{fill:url(#SVGID_56_);}
	.st56{fill:url(#SVGID_57_);}
	.st57{fill:url(#SVGID_58_);}
	.st58{fill:#8CC63D;}
	.st59{fill:#3888DA;}
	.st60{fill:url(#SVGID_59_);}
	.st61{fill:url(#SVGID_60_);}
	.st62{fill:url(#SVGID_61_);}
	.st63{fill:url(#SVGID_62_);}
	.st64{fill:url(#SVGID_63_);}
	.st65{fill:url(#SVGID_64_);}
	.st66{fill:none;}
	.st67{fill:#8CC1C1;}
	.st68{fill:#2A71B7;}
</style>
<linearGradient id="SVGID_1_" gradientUnits="userSpaceOnUse" x1="165.0871" y1="85.1715" x2="122.7843" y2="187.8059">
	<stop  offset="0" style="stop-color:#8CC63D"/>
	<stop  offset="0.0765" style="stop-color:#86C33D"/>
	<stop  offset="0.1814" style="stop-color:#74B93E"/>
	<stop  offset="0.3027" style="stop-color:#57A940"/>
	<stop  offset="0.4354" style="stop-color:#2F9243"/>
	<stop  offset="0.4944" style="stop-color:#1B8744"/>
	<stop  offset="0.6734" style="stop-color:#48A041"/>
	<stop  offset="0.8918" style="stop-color:#79BB3E"/>
	<stop  offset="1" style="stop-color:#8CC63D"/>
</linearGradient>
<path class="st0" d="M150,176.48c-38.65,0-70.47-29.24-74.55-66.8c-0.29,2.69-0.45,5.43-0.45,8.2c0,41.42,33.58,75,75,75
	s75-33.58,75-75c0-2.77-0.16-5.51-0.45-8.2C220.47,147.24,188.65,176.48,150,176.48z"/>
<linearGradient id="SVGID_2_" gradientUnits="userSpaceOnUse" x1="148.3001" y1="34.9967" x2="108.3539" y2="131.9134">
	<stop  offset="0" style="stop-color:#8CC63D"/>
	<stop  offset="0.0765" style="stop-color:#86C33D"/>
	<stop  offset="0.1814" style="stop-color:#74B93E"/>
	<stop  offset="0.3027" style="stop-color:#57A940"/>
	<stop  offset="0.4354" style="stop-color:#2F9243"/>
	<stop  offset="0.4944" style="stop-color:#1B8744"/>
	<stop  offset="0.6734" style="stop-color:#48A041"/>
	<stop  offset="0.8918" style="stop-color:#79BB3E"/>
	<stop  offset="1" style="stop-color:#8CC63D"/>
</linearGradient>
<path class="st1" d="M144.86,54.9c-15.82,6.02-26.84,17.53-35.85,31.53c0.09-1.22-0.05-2.41,0.09-3.6
	c0.72-6.34,2.41-12.37,5.74-17.87c2.68-4.41,6.1-8.14,10.27-11.21c8.52-6.29,18.32-9.12,28.61-10.61c3.89-0.56,7.83-0.8,11.77-0.73
	c0.38,0.01,0.88-0.17,1.1,0.25c0.18,0.37-0.22,0.66-0.42,0.94c-3.19,4.51-5.27,9.55-7.19,14.69c-1.57,4.2-3.24,8.38-5.67,12.16
	c-4.02,6.26-9.4,11.07-15.9,14.66c-3.05,1.69-6.25,2.99-9.62,3.82c-4.12,1.02-8.33,1.39-12.57,1.02c-0.83-0.07-1.34,0.11-1.71,0.94
	c-2.2,4.93-4.25,9.92-5.78,15.1c-1.77,5.99-3.17,12.05-3.03,18.36c0.03,1.33,0.3,2.6,0.56,3.89c0.17,0.83,0.16,1.62-0.85,1.8
	c-0.96,0.18-1.25-0.6-1.4-1.33c-0.85-3.97-0.67-7.97-0.21-11.97c0.9-7.86,3.25-15.32,6.35-22.55c2.78-6.47,6.68-12.26,11.17-17.68
	c3.71-4.47,7.75-8.61,12.18-12.36c3.65-3.09,7.51-5.89,11.58-8.4c0.33-0.2,0.65-0.43,0.98-0.64
	C144.98,55.05,144.92,54.98,144.86,54.9z"/>
<linearGradient id="SVGID_3_" gradientUnits="userSpaceOnUse" x1="100.2524" y1="69.1105" x2="89.7158" y2="94.6741">
	<stop  offset="0" style="stop-color:#8CC63D"/>
	<stop  offset="0.0765" style="stop-color:#86C33D"/>
	<stop  offset="0.1814" style="stop-color:#74B93E"/>
	<stop  offset="0.3027" style="stop-color:#57A940"/>
	<stop  offset="0.4354" style="stop-color:#2F9243"/>
	<stop  offset="0.4944" style="stop-color:#1B8744"/>
	<stop  offset="0.6734" style="stop-color:#48A041"/>
	<stop  offset="0.8918" style="stop-color:#79BB3E"/>
	<stop  offset="1" style="stop-color:#8CC63D"/>
</linearGradient>
<path class="st2" d="M89.75,76.7c2.01,9.48,7.46,16.84,14.51,23.26c-1.3-0.11-2.51-0.47-3.7-0.88c-3.03-1.04-5.84-2.5-8.24-4.65
	c-2.97-2.66-5.11-5.9-6.45-9.65c-1.36-3.82-2.06-7.75-2.03-11.82c0.02-3.18,0.01-6.36,0.67-9.49c0.17-0.81,0.29-0.89,0.88-0.31
	c2.96,2.92,6.64,4.78,10.11,6.95c6.83,4.29,10.81,10.46,11.9,18.45c0.4,2.93,0.23,5.86-0.65,8.7c-0.46,1.5-0.68,1.57-1.83,0.59
	c-2.74-2.37-5.17-5.04-7.39-7.9c-2.49-3.21-4.49-6.73-6.35-10.33c-0.49-0.96-0.81-2-1.21-3.01C89.9,76.64,89.83,76.67,89.75,76.7z"
	/>
<g>
	<g>
		<path class="st58" d="M138.85,120.98h-12.09v11.21h13.47v3.37h-17.49v-31.1h16.8v3.37h-12.78v9.83h12.09V120.98z"/>
		<path class="st58" d="M169.44,134.54c-1.48,0.74-4.43,1.48-8.21,1.48c-8.77,0-15.37-5.54-15.37-15.74
			c0-9.74,6.6-16.33,16.24-16.33c3.88,0,6.32,0.83,7.38,1.38l-0.97,3.28c-1.52-0.74-3.69-1.29-6.28-1.29
			c-7.29,0-12.14,4.66-12.14,12.83c0,7.61,4.38,12.5,11.95,12.5c2.45,0,4.94-0.51,6.55-1.29L169.44,134.54z"/>
		<path class="st58" d="M202.14,119.68c0,10.71-6.51,16.38-14.44,16.38c-8.21,0-13.98-6.37-13.98-15.78
			c0-9.87,6.14-16.33,14.44-16.33C196.65,103.95,202.14,110.46,202.14,119.68z M178.01,120.19c0,6.64,3.6,12.6,9.92,12.6
			c6.37,0,9.97-5.86,9.97-12.92c0-6.18-3.23-12.64-9.92-12.64C181.33,107.23,178.01,113.36,178.01,120.19z"/>
	</g>
</g>
<g>
	<g>
		<path class="st58" d="M151.95,81.04h-0.06l-3.25,1.76l-0.49-1.93l4.09-2.19h2.16V97.4h-2.45V81.04z"/>
		<path class="st58" d="M174.03,87.84c0,6.36-2.36,9.88-6.51,9.88c-3.66,0-6.13-3.43-6.19-9.62c0-6.28,2.71-9.73,6.51-9.73
			C171.78,78.36,174.03,81.88,174.03,87.84z M163.87,88.12c0,4.87,1.5,7.63,3.8,7.63c2.59,0,3.83-3.02,3.83-7.8
			c0-4.61-1.18-7.63-3.8-7.63C165.48,80.32,163.87,83.03,163.87,88.12z"/>
		<path class="st58" d="M191.11,87.84c0,6.36-2.36,9.88-6.51,9.88c-3.66,0-6.13-3.43-6.19-9.62c0-6.28,2.71-9.73,6.51-9.73
			C188.86,78.36,191.11,81.88,191.11,87.84z M180.95,88.12c0,4.87,1.5,7.63,3.8,7.63c2.59,0,3.83-3.02,3.83-7.8
			c0-4.61-1.18-7.63-3.8-7.63C182.56,80.32,180.95,83.03,180.95,88.12z"/>
		<path class="st58" d="M203.92,83.95c0,3.94-2.07,5.9-4.49,5.9c-2.33,0-4.35-1.87-4.38-5.64c0-3.74,2.04-5.84,4.52-5.84
			C202.19,78.36,203.92,80.38,203.92,83.95z M197.06,84.12c-0.06,2.39,0.83,4.2,2.42,4.2c1.67,0,2.42-1.79,2.42-4.26
			c0-2.28-0.66-4.17-2.42-4.17C197.9,79.89,197.06,81.76,197.06,84.12z M199.25,97.71l11-19.35h1.61l-11,19.35H199.25z M216.1,91.69
			c0,3.94-2.07,5.9-4.46,5.9c-2.33,0-4.35-1.87-4.38-5.61c0-3.77,2.04-5.87,4.52-5.87C214.4,86.11,216.1,88.12,216.1,91.69z
			 M209.24,91.87c-0.03,2.39,0.89,4.2,2.45,4.2c1.67,0,2.42-1.79,2.42-4.26c0-2.27-0.66-4.17-2.42-4.17
			C210.11,87.64,209.24,89.51,209.24,91.87z"/>
	</g>
</g>
<g>
	<path class="st58" d="M54.08,238.98h6.27c0-0.33,0.04-0.71,0.04-1.11c0-2.19-0.59-5.75-3.6-5.75c-0.85,0-1.71,0.22-2.45,0.59
		l-0.93-3.56c1.19-0.59,2.63-1.04,4.23-1.04c5.9,0,7.34,5.45,7.34,10.31c0,4.56-1.41,9.42-4.34,12.5c-1.67,1.74-3.82,2.78-6.64,2.78
		c-1.78,0-3.3-0.56-4.3-1.04l1.26-3.78c0.85,0.41,1.86,0.71,2.93,0.71c3.38,0,5.19-3.67,5.75-6.6h-6.19L54.08,238.98z"/>
	<path class="st58" d="M72.93,235.27l-1.52,7.86h0.22l4.97-7.86h5.19l-6.68,8.38c1.33,0.63,1.97,2.19,2.19,5.23
		c0.15,1.82,0.33,3.52,0.67,4.53h-4.45c-0.3-0.78-0.45-3.12-0.52-4.49c-0.15-2-0.67-3.12-1.71-3.12h-0.33l-1.45,7.6h-4.6l3.49-18.14
		H72.93z"/>
	<path class="st58" d="M85.67,253.71c-4.56,0-5.56-3.6-5.56-6.27c0-6.12,3.38-12.46,8.87-12.46c4.6,0,5.27,3.82,5.27,6.34
		c0,5.71-3.04,12.39-8.53,12.39H85.67z M86.19,250.18c2.23,0,3.49-6.16,3.49-9.42c0-1.22-0.33-2.26-1.45-2.26
		c-2,0-3.56,5.6-3.52,8.72c0,1.33,0.04,2.97,1.45,2.97H86.19z"/>
	<path class="st58" d="M110.93,235.27l-3.45,18.14h-4.56l2.71-14.54h-2.86l-0.82,4.27c-0.78,4.08-1.67,7.31-4.12,9.13
		c-1.04,0.82-2.37,1.45-4.15,1.45l-0.26-3.64c0.74-0.11,1.52-0.48,1.97-0.93c1.19-1.08,1.85-3.6,2.22-5.56l1.6-8.31H110.93z"/>
	<path class="st58" d="M116.74,253.71c-4.56,0-5.56-3.6-5.56-6.27c0-6.12,3.38-12.46,8.87-12.46c4.6,0,5.27,3.82,5.27,6.34
		c0,5.71-3.04,12.39-8.53,12.39H116.74z M117.26,250.18c2.22,0,3.49-6.16,3.49-9.42c0-1.22-0.33-2.26-1.45-2.26
		c-2,0-3.56,5.6-3.52,8.72c0,1.33,0.04,2.97,1.45,2.97H117.26z"/>
	<path class="st58" d="M128.39,235.98c1.19-0.56,2.82-1,4.53-1c3.04,0,4.86,1.74,4.86,4.56c0,2.86-2.26,4.53-4.71,6.19
		c-1.67,1.11-3.19,2.23-3.19,3.19c0,0.74,0.52,1.26,1.52,1.26c1.41,0,2.56-0.37,3.45-0.82l0.41,3.23c-1.08,0.56-2.63,1.04-4.82,1.04
		c-2.93,0-5.12-1.48-5.12-4.53c0-3.26,2.63-4.9,5.38-6.71c1.52-1,2.71-1.89,2.71-2.71c0-0.74-0.63-1.22-1.67-1.22
		s-2.49,0.45-2.93,0.67L128.39,235.98z"/>
	<path class="st58" d="M145.29,235.27l-1.97,10.31c-0.19,1.11-0.33,2.04-0.33,2.89c0,0.89,0.33,1.45,1.11,1.45
		c1.19,0,2.37-1.56,2.89-4.15l1.93-10.5h4.64l-2.3,12.2c-0.44,2.15-0.7,4.19-0.93,5.93h-4.01l0.15-2.49h-0.07
		c-1.33,1.93-3,2.78-4.71,2.78c-2.41,0-3.45-1.82-3.45-4.19c0-1.15,0.19-2.37,0.45-3.75l1.97-10.5H145.29z"/>
	<path class="st58" d="M160.42,235.27l-1.15,5.97c-0.07,0.41-0.15,1-0.15,1.45c0,0.78,0.3,1.48,1.3,1.48c0.82,0,1.48-0.45,2.04-0.96
		l1.52-7.94h4.64l-3.49,18.21h-4.6l1.37-7.05h-0.11c-0.82,0.63-2.26,1.11-3.49,1.11c-2.86,0-3.97-1.85-3.97-3.97
		c0-0.82,0.3-2.3,0.45-3.08l1-5.23H160.42z"/>
	<path class="st58" d="M176.36,235.27l-1.37,7.01h3.78l1.37-7.01h4.64l-3.49,18.14h-4.64l1.45-7.6h-3.71l-1.45,7.6h-4.64l3.38-18.14
		H176.36z"/>
	<path class="st58" d="M190.62,253.71c-4.56,0-5.56-3.6-5.56-6.27c0-6.12,3.38-12.46,8.87-12.46c4.6,0,5.27,3.82,5.27,6.34
		c0,5.71-3.04,12.39-8.53,12.39H190.62z M191.14,250.18c2.22,0,3.49-6.16,3.49-9.42c0-1.22-0.33-2.26-1.45-2.26
		c-2,0-3.56,5.6-3.52,8.72c0,1.33,0.04,2.97,1.45,2.97H191.14z"/>
	<path class="st58" d="M209,253.15c-0.52,0.22-1.71,0.48-3.23,0.48c-4.01,0-5.68-3.19-5.68-6.53c0-6.49,4.04-12.09,9.76-12.09
		c1.11,0,1.82,0.15,2.26,0.33l-1.15,3.78c-0.44-0.11-0.89-0.19-1.3-0.19c-2.71,0-4.93,3.64-4.93,7.49c0,2.08,0.85,3.41,2.37,3.41
		c0.85,0,1.63-0.26,2.23-0.41L209,253.15z"/>
	<path class="st58" d="M210.42,253.41l2.34-12.24c0.41-2.11,0.7-4.19,0.96-5.9h3.97l-0.19,2.49h0.07c1.22-1.86,2.89-2.78,4.93-2.78
		c1.74,0,2.78,1.19,3.04,2.78c1.19-1.71,2.93-2.78,4.97-2.78c2.26,0,3.34,1.59,3.34,3.93c0,0.78-0.19,2.19-0.45,3.67l-2.08,10.83
		h-4.56l2.04-10.76c0.19-1,0.3-1.89,0.3-2.71c0-0.74-0.37-1.26-1.11-1.26c-1,0-2.37,1.52-3.08,5.08l-1.86,9.64h-4.45l2.04-10.76
		c0.19-0.93,0.3-1.78,0.3-2.6c0-0.82-0.3-1.37-1.04-1.37c-0.93,0-2.45,1.67-3.08,5.08l-1.82,9.64H210.42z"/>
	<path class="st58" d="M242.58,235.27l-1.71,6.79l0.07,0.04c1-0.93,2.45-1.45,3.9-1.45c2.49,0,4.3,1.74,4.3,4.79
		c0,3.64-2.71,8.2-8.83,8.2c-2.3,0-5.23-0.63-5.23-4.08c0-1,0.22-2.41,0.48-3.45l2.45-10.83H242.58z M241.29,250
		c1.71,0,3.23-1.56,3.23-3.56c0-1.34-0.63-2.08-1.67-2.08c-1.48,0-2.56,1.45-2.86,2.56c-0.19,0.56-0.22,0.89-0.22,1.48
		c0,0.89,0.48,1.59,1.48,1.59H241.29z"/>
</g>
</svg>
