<?xml version="1.0" encoding="utf-8"?>
<!-- Generator: Adobe Illustrator 24.0.2, SVG Export Plug-In . SVG Version: 6.00 Build 0)  -->
<svg version="1.1" id="Слой_1" xmlns="http://www.w3.org/2000/svg" xmlns:xlink="http://www.w3.org/1999/xlink" x="0px" y="0px"
	 viewBox="0 0 300 300" style="enable-background:new 0 0 300 300;" xml:space="preserve">
<style type="text/css">
	.st0{fill:url(#SVGID_1_);}
	.st1{fill:url(#SVGID_2_);}
	.st2{fill:url(#SVGID_3_);}
	.st3{fill:url(#SVGID_4_);}
	.st4{fill:url(#SVGID_5_);}
	.st5{fill:url(#SVGID_6_);}
	.st6{fill:url(#SVGID_7_);}
	.st7{fill:url(#SVGID_8_);}
	.st8{fill:url(#SVGID_9_);}
	.st9{fill:url(#SVGID_10_);}
	.st10{fill:url(#SVGID_11_);}
	.st11{fill:url(#SVGID_12_);}
	.st12{fill:url(#SVGID_13_);}
	.st13{fill:url(#SVGID_14_);}
	.st14{fill:url(#SVGID_15_);}
	.st15{fill:url(#SVGID_16_);}
	.st16{fill:url(#SVGID_17_);}
	.st17{fill:url(#SVGID_18_);}
	.st18{fill:url(#SVGID_19_);}
	.st19{fill:url(#SVGID_20_);}
	.st20{fill:url(#SVGID_21_);}
	.st21{fill:url(#SVGID_22_);}
	.st22{fill:url(#SVGID_23_);}
	.st23{fill:url(#SVGID_24_);}
	.st24{fill:url(#SVGID_25_);}
	.st25{fill:url(#SVGID_26_);}
	.st26{fill:url(#SVGID_27_);}
	.st27{fill:url(#SVGID_28_);}
	.st28{fill:url(#SVGID_29_);}
	.st29{fill:url(#SVGID_30_);}
	.st30{fill:url(#SVGID_31_);}
	.st31{fill:url(#SVGID_32_);}
	.st32{fill:url(#SVGID_33_);}
	.st33{fill:url(#SVGID_34_);}
	.st34{fill:url(#SVGID_35_);}
	.st35{fill:url(#SVGID_36_);}
	.st36{fill:url(#SVGID_37_);}
	.st37{fill:url(#SVGID_38_);}
	.st38{fill:url(#SVGID_39_);}
	.st39{fill:url(#SVGID_40_);}
	.st40{fill:url(#SVGID_41_);}
	.st41{fill:url(#SVGID_42_);}
	.st42{fill:url(#SVGID_43_);}
	.st43{fill:url(#SVGID_44_);}
	.st44{fill:url(#SVGID_45_);}
	.st45{fill:url(#SVGID_46_);}
	.st46{fill:url(#SVGID_47_);}
	.st47{fill:url(#SVGID_48_);}
	.st48{fill:url(#SVGID_49_);}
	.st49{fill:url(#SVGID_50_);}
	.st50{fill:url(#SVGID_51_);}
	.st51{fill:url(#SVGID_52_);}
	.st52{fill:url(#SVGID_53_);}
	.st53{fill:url(#SVGID_54_);}
	.st54{fill:url(#SVGID_55_);}
	.st55{fill:url(#SVGID_56_);}
	.st56{fill:url(#SVGID_57_);}
	.st57{fill:url(#SVGID_58_);}
	.st58{fill:#8CC63D;}
	.st59{fill:#3888DA;}
	.st60{fill:url(#SVGID_59_);}
	.st61{fill:url(#SVGID_60_);}
	.st62{fill:url(#SVGID_61_);}
	.st63{fill:url(#SVGID_62_);}
	.st64{fill:url(#SVGID_63_);}
	.st65{fill:url(#SVGID_64_);}
	.st66{fill:none;}
	.st67{fill:#8CC1C1;}
	.st68{fill:#2A71B7;}
</style>
<linearGradient id="SVGID_1_" gradientUnits="userSpaceOnUse" x1="177.2157" y1="188.5301" x2="134.9129" y2="85.8958">
	<stop  offset="0" style="stop-color:#7ABCD8"/>
	<stop  offset="9.424852e-03" style="stop-color:#78BBD8"/>
	<stop  offset="0.2298" style="stop-color:#559FD9"/>
	<stop  offset="0.4105" style="stop-color:#408EDA"/>
	<stop  offset="0.5279" style="stop-color:#3888DA"/>
	<stop  offset="0.722" style="stop-color:#3198DE"/>
	<stop  offset="1" style="stop-color:#29ABE2"/>
</linearGradient>
<path class="st0" d="M150,177.21c-38.65,0-70.47-29.24-74.55-66.8c-0.29,2.69-0.45,5.43-0.45,8.2c0,41.42,33.58,75,75,75
	s75-33.58,75-75c0-2.77-0.16-5.51-0.45-8.2C220.47,147.97,188.65,177.21,150,177.21z"/>
<g>
	<linearGradient id="SVGID_2_" gradientUnits="userSpaceOnUse" x1="187.9439" y1="90.7961" x2="179.9909" y2="71.5005">
		<stop  offset="0" style="stop-color:#7ABCD8"/>
		<stop  offset="9.424852e-03" style="stop-color:#78BBD8"/>
		<stop  offset="0.2298" style="stop-color:#559FD9"/>
		<stop  offset="0.4105" style="stop-color:#408EDA"/>
		<stop  offset="0.5279" style="stop-color:#3888DA"/>
		<stop  offset="0.722" style="stop-color:#3198DE"/>
		<stop  offset="1" style="stop-color:#29ABE2"/>
	</linearGradient>
	<circle class="st1" cx="183.97" cy="81.15" r="10.43"/>
	<linearGradient id="SVGID_3_" gradientUnits="userSpaceOnUse" x1="120.0091" y1="90.7961" x2="112.0561" y2="71.5005">
		<stop  offset="0" style="stop-color:#7ABCD8"/>
		<stop  offset="9.424852e-03" style="stop-color:#78BBD8"/>
		<stop  offset="0.2298" style="stop-color:#559FD9"/>
		<stop  offset="0.4105" style="stop-color:#408EDA"/>
		<stop  offset="0.5279" style="stop-color:#3888DA"/>
		<stop  offset="0.722" style="stop-color:#3198DE"/>
		<stop  offset="1" style="stop-color:#29ABE2"/>
	</linearGradient>
	<circle class="st2" cx="116.03" cy="81.15" r="10.43"/>
	<linearGradient id="SVGID_4_" gradientUnits="userSpaceOnUse" x1="192.7185" y1="121.767" x2="182.7662" y2="97.6208">
		<stop  offset="0" style="stop-color:#7ABCD8"/>
		<stop  offset="9.424852e-03" style="stop-color:#78BBD8"/>
		<stop  offset="0.2298" style="stop-color:#559FD9"/>
		<stop  offset="0.4105" style="stop-color:#408EDA"/>
		<stop  offset="0.5279" style="stop-color:#3888DA"/>
		<stop  offset="0.722" style="stop-color:#3198DE"/>
		<stop  offset="1" style="stop-color:#29ABE2"/>
	</linearGradient>
	<path class="st3" d="M183.97,98.67c-4.71,0-9.01,1.72-12.32,4.57c3.75,4.11,6.35,9.03,7.63,14.34h23.6
		C202.88,107.14,194.41,98.67,183.97,98.67z"/>
	<linearGradient id="SVGID_5_" gradientUnits="userSpaceOnUse" x1="155.0504" y1="134.0032" x2="141.5201" y2="101.1763">
		<stop  offset="0" style="stop-color:#7ABCD8"/>
		<stop  offset="9.424852e-03" style="stop-color:#78BBD8"/>
		<stop  offset="0.2298" style="stop-color:#559FD9"/>
		<stop  offset="0.4105" style="stop-color:#408EDA"/>
		<stop  offset="0.5279" style="stop-color:#3888DA"/>
		<stop  offset="0.722" style="stop-color:#3198DE"/>
		<stop  offset="1" style="stop-color:#29ABE2"/>
	</linearGradient>
	<path class="st4" d="M150.42,99.61c-14.2,0-25.7,11.51-25.7,25.7h51.41C176.12,111.12,164.61,99.61,150.42,99.61z"/>
	<linearGradient id="SVGID_6_" gradientUnits="userSpaceOnUse" x1="116.4219" y1="119.3519" x2="108.5337" y2="100.2138">
		<stop  offset="0" style="stop-color:#7ABCD8"/>
		<stop  offset="9.424852e-03" style="stop-color:#78BBD8"/>
		<stop  offset="0.2298" style="stop-color:#559FD9"/>
		<stop  offset="0.4105" style="stop-color:#408EDA"/>
		<stop  offset="0.5279" style="stop-color:#3888DA"/>
		<stop  offset="0.722" style="stop-color:#3198DE"/>
		<stop  offset="1" style="stop-color:#29ABE2"/>
	</linearGradient>
	<path class="st5" d="M116.03,98.67c-10.44,0-18.91,8.47-18.91,18.91h23.6c1.28-5.31,3.88-10.23,7.63-14.34
		C125.04,100.39,120.74,98.67,116.03,98.67z"/>
	<linearGradient id="SVGID_7_" gradientUnits="userSpaceOnUse" x1="157.2912" y1="92.1779" x2="143.545" y2="58.8273">
		<stop  offset="0" style="stop-color:#7ABCD8"/>
		<stop  offset="9.424852e-03" style="stop-color:#78BBD8"/>
		<stop  offset="0.2298" style="stop-color:#559FD9"/>
		<stop  offset="0.4105" style="stop-color:#408EDA"/>
		<stop  offset="0.5279" style="stop-color:#3888DA"/>
		<stop  offset="0.722" style="stop-color:#3198DE"/>
		<stop  offset="1" style="stop-color:#29ABE2"/>
	</linearGradient>
	<circle class="st6" cx="150.42" cy="75.5" r="18.03"/>
</g>
<g>
	<path class="st59" d="M116.43,212.13l-3.97,20.88l1.93,0.15l-2.15,9.42h-3.75l0.93-5.45h-10.2l-1.26,5.45H94.4l1.33-9.46l1.71-0.15
		c1.15-2,2.15-4.16,2.97-6.42c0.96-2.67,1.67-5.45,2.15-8.16l1.19-6.27H116.43z M106.53,219.74c-0.52,2.6-1.15,5.27-2,7.72
		c-0.67,1.97-1.41,3.71-2.41,5.56h5.68l3.19-16.77h-3.78L106.53,219.74z"/>
	<path class="st59" d="M123.43,219l-1.97,10.31c-0.19,1.11-0.33,2.04-0.33,2.89c0,0.89,0.33,1.45,1.11,1.45
		c1.19,0,2.38-1.56,2.89-4.15l1.93-10.5h4.64l-2.3,12.2c-0.45,2.15-0.71,4.19-0.93,5.93h-4.01l0.15-2.49h-0.07
		c-1.34,1.93-3,2.78-4.71,2.78c-2.41,0-3.45-1.82-3.45-4.19c0-1.15,0.19-2.37,0.45-3.75l1.97-10.5H123.43z"/>
	<path class="st59" d="M147.82,219l-3.45,18.14h-4.56l2.71-14.54h-2.86l-0.82,4.27c-0.78,4.08-1.67,7.31-4.12,9.13
		c-1.04,0.82-2.37,1.45-4.15,1.45l-0.26-3.64c0.74-0.11,1.52-0.48,1.97-0.93c1.19-1.08,1.85-3.6,2.23-5.56l1.6-8.31H147.82z"/>
	<path class="st59" d="M159.46,236.36c-1.6,0.67-3.15,1-5.23,1c-4.45,0-6.16-2.93-6.16-6.83c0-5.27,2.93-11.83,8.72-11.83
		c3.3,0,4.82,2.45,4.82,4.93c0,4.97-4.01,6.83-9.05,6.68c-0.04,0.52,0,1.45,0.41,2.11c0.45,0.74,1.26,1.3,2.52,1.3
		c1.52,0,2.6-0.37,3.67-0.89L159.46,236.36z M157.5,224.04c0-1-0.41-1.63-1.3-1.63c-1.41,0-2.67,1.82-3.19,4.41
		c2.45,0.11,4.49-0.85,4.49-2.75V224.04z"/>
	<path class="st59" d="M160.04,244.26l3.67-19.29c0.41-2.15,0.71-4.19,0.96-5.97h3.97l-0.3,2.63h0.07c1.11-1.82,2.86-2.93,4.53-2.93
		c3.27,0,3.9,2.82,3.9,5.6c0,6.08-3.26,13.13-8.57,13.13c-0.82,0-1.71-0.15-2.22-0.45h-0.11l-1.34,7.27H160.04z M166.61,233.54
		c0.37,0.26,0.74,0.44,1.3,0.44c2.82,0,4.19-6.16,4.19-8.87c0-1.22-0.11-2.49-1.33-2.49c-1.19,0-2.45,1.89-2.89,4.08L166.61,233.54z
		"/>
	<path class="st59" d="M185.29,219l-1.78,6.86h0.04c1.08-1,2.45-1.48,3.93-1.48c2.49,0,4.04,1.74,4.04,4.64
		c0,3.78-2.75,8.35-8.5,8.35c-2.37,0-5.27-0.56-5.27-4.04c0-1,0.22-2.37,0.45-3.38l2.52-10.94H185.29z M183.84,233.72
		c1.63,0,3.04-1.63,3.04-3.71c0-1.22-0.63-1.93-1.52-1.93c-1.34,0-2.34,1.37-2.71,2.49c-0.11,0.48-0.26,1.08-0.26,1.56
		c0,0.89,0.48,1.59,1.41,1.59H183.84z M199.68,219l-3.49,18.14h-4.64l3.49-18.14H199.68z"/>
	<path class="st59" d="M75.15,256.65l-4.79,25h-4.64l4.01-20.92h-4.9l-3.97,20.92h-4.64l4.79-25H75.15z"/>
	<path class="st59" d="M82.79,281.65c0.04-0.96,0.11-1.97,0.15-3.04h-0.11c-1.45,2.41-3.19,3.34-4.64,3.34
		c-2.63,0-3.93-2.26-3.93-5.45c0-5.49,2.74-13.28,10.54-13.28c1.82,0,3.63,0.3,4.75,0.74l-2,10.09c-0.45,2.11-0.78,5.64-0.74,7.6
		H82.79z M84.46,266.77c-0.37-0.07-0.71-0.11-0.96-0.11c-3.04,0-4.67,6.05-4.71,8.72c0,1.59,0.22,2.74,1.37,2.74
		c1.26,0,2.45-2.08,3.12-5.38L84.46,266.77z"/>
	<path class="st59" d="M87.97,288.77l3.67-19.29c0.41-2.15,0.7-4.19,0.96-5.97h3.97l-0.3,2.63h0.07c1.11-1.82,2.86-2.93,4.53-2.93
		c3.26,0,3.89,2.82,3.89,5.6c0,6.08-3.26,13.13-8.57,13.13c-0.82,0-1.71-0.15-2.23-0.45h-0.11l-1.33,7.27H87.97z M94.54,278.05
		c0.37,0.26,0.74,0.44,1.3,0.44c2.82,0,4.19-6.16,4.19-8.87c0-1.22-0.11-2.49-1.34-2.49c-1.19,0-2.45,1.89-2.89,4.08L94.54,278.05z"
		/>
	<path class="st59" d="M105.03,281.65l2.34-12.24c0.41-2.11,0.71-4.19,0.96-5.9h3.97l-0.19,2.49h0.07c1.22-1.86,2.89-2.78,4.93-2.78
		c1.74,0,2.78,1.19,3.04,2.78c1.19-1.71,2.93-2.78,4.97-2.78c2.26,0,3.34,1.59,3.34,3.93c0,0.78-0.19,2.19-0.45,3.67l-2.08,10.83
		h-4.56l2.04-10.76c0.19-1,0.3-1.89,0.3-2.71c0-0.74-0.37-1.26-1.11-1.26c-1,0-2.37,1.52-3.08,5.08l-1.86,9.64h-4.45l2.04-10.76
		c0.19-0.93,0.3-1.78,0.3-2.6c0-0.82-0.3-1.37-1.04-1.37c-0.93,0-2.45,1.67-3.08,5.08l-1.82,9.64H105.03z"/>
	<path class="st59" d="M137.11,263.51l-1.37,7.01h3.78l1.37-7.01h4.64l-3.49,18.14h-4.64l1.45-7.6h-3.71l-1.45,7.6h-4.64l3.38-18.14
		H137.11z"/>
	<path class="st59" d="M157.21,280.87c-1.6,0.67-3.15,1-5.23,1c-4.45,0-6.16-2.93-6.16-6.83c0-5.27,2.93-11.83,8.72-11.83
		c3.3,0,4.82,2.45,4.82,4.93c0,4.97-4.01,6.83-9.05,6.68c-0.04,0.52,0,1.45,0.41,2.11c0.45,0.74,1.26,1.3,2.52,1.3
		c1.52,0,2.6-0.37,3.67-0.89L157.21,280.87z M155.25,268.55c0-1-0.41-1.63-1.3-1.63c-1.41,0-2.67,1.82-3.19,4.41
		c2.45,0.11,4.49-0.85,4.49-2.75V268.55z"/>
	<path class="st59" d="M157.79,288.77l3.67-19.29c0.41-2.15,0.71-4.19,0.96-5.97h3.97l-0.3,2.63h0.07c1.11-1.82,2.86-2.93,4.53-2.93
		c3.26,0,3.89,2.82,3.89,5.6c0,6.08-3.26,13.13-8.57,13.13c-0.82,0-1.71-0.15-2.23-0.45h-0.11l-1.33,7.27H157.79z M164.36,278.05
		c0.37,0.26,0.74,0.44,1.3,0.44c2.82,0,4.19-6.16,4.19-8.87c0-1.22-0.11-2.49-1.33-2.49c-1.19,0-2.45,1.89-2.89,4.08L164.36,278.05z
		"/>
	<path class="st59" d="M184.42,281.39c-0.52,0.22-1.71,0.48-3.23,0.48c-4.01,0-5.68-3.19-5.68-6.53c0-6.49,4.04-12.09,9.76-12.09
		c1.11,0,1.82,0.15,2.26,0.33l-1.15,3.78c-0.45-0.11-0.89-0.19-1.3-0.19c-2.71,0-4.93,3.64-4.93,7.49c0,2.08,0.85,3.41,2.38,3.41
		c0.85,0,1.63-0.26,2.23-0.41L184.42,281.39z"/>
	<path class="st59" d="M185.84,281.65l2.34-12.24c0.41-2.11,0.71-4.19,0.96-5.9h3.97l-0.19,2.49h0.07c1.22-1.86,2.89-2.78,4.93-2.78
		c1.74,0,2.78,1.19,3.04,2.78c1.19-1.71,2.93-2.78,4.97-2.78c2.26,0,3.34,1.59,3.34,3.93c0,0.78-0.19,2.19-0.45,3.67l-2.08,10.83
		h-4.56l2.04-10.76c0.19-1,0.3-1.89,0.3-2.71c0-0.74-0.37-1.26-1.11-1.26c-1,0-2.37,1.52-3.08,5.08l-1.86,9.64h-4.45l2.04-10.76
		c0.19-0.93,0.3-1.78,0.3-2.6c0-0.82-0.3-1.37-1.04-1.37c-0.93,0-2.45,1.67-3.08,5.08l-1.82,9.64H185.84z"/>
	<path class="st59" d="M219.49,263.21c2.6,0,5.08,1.11,5.08,4.12c0,2.67-1.93,3.93-3.82,4.71v0.11c1.41,0.15,2.97,1.3,2.97,3.6
		c0,4.23-3.82,6.12-7.86,6.12c-4.15,0-5.34-2.3-5.34-5.38c0-3.56,1.37-9.72,4.64-11.98c1.19-0.82,2.6-1.3,4.3-1.3H219.49z
		 M217.26,273.67c-0.67,0-1.45,0.22-2.19,0.56c-0.11,0.45-0.3,1.48-0.3,2.23c0,0.96,0.37,1.97,1.74,1.97c1.48,0,2.67-1.08,2.67-2.71
		c0-1.45-0.85-2-1.89-2.04H217.26z M218.82,266.59c-1.89,0-2.86,2.78-3.19,4.34c1.34-0.3,2.63-0.63,3.52-1.19
		c0.67-0.45,1.19-1,1.19-1.74c0-0.82-0.52-1.41-1.48-1.41H218.82z"/>
	<path class="st59" d="M230.95,281.95c-4.56,0-5.56-3.6-5.56-6.27c0-6.12,3.38-12.46,8.87-12.46c4.6,0,5.27,3.82,5.27,6.34
		c0,5.71-3.04,12.39-8.53,12.39H230.95z M231.47,278.42c2.22,0,3.49-6.16,3.49-9.42c0-1.22-0.33-2.26-1.45-2.26
		c-2,0-3.56,5.6-3.52,8.72c0,1.33,0.04,2.97,1.45,2.97H231.47z"/>
</g>
</svg>
