<?xml version="1.0" encoding="utf-8"?>
<!-- Generator: Adobe Illustrator 24.0.2, SVG Export Plug-In . SVG Version: 6.00 Build 0)  -->
<svg version="1.1" id="Слой_1" xmlns="http://www.w3.org/2000/svg" xmlns:xlink="http://www.w3.org/1999/xlink" x="0px" y="0px"
	 viewBox="0 0 300 300" style="enable-background:new 0 0 300 300;" xml:space="preserve">
<style type="text/css">
	.st0{fill:url(#SVGID_1_);}
	.st1{fill:url(#SVGID_2_);}
	.st2{fill:url(#SVGID_3_);}
	.st3{fill:url(#SVGID_4_);}
	.st4{fill:url(#SVGID_5_);}
	.st5{fill:url(#SVGID_6_);}
	.st6{fill:url(#SVGID_7_);}
	.st7{fill:url(#SVGID_8_);}
	.st8{fill:url(#SVGID_9_);}
	.st9{fill:url(#SVGID_10_);}
	.st10{fill:url(#SVGID_11_);}
	.st11{fill:url(#SVGID_12_);}
	.st12{fill:url(#SVGID_13_);}
	.st13{fill:url(#SVGID_14_);}
	.st14{fill:url(#SVGID_15_);}
	.st15{fill:url(#SVGID_16_);}
	.st16{fill:url(#SVGID_17_);}
	.st17{fill:url(#SVGID_18_);}
	.st18{fill:url(#SVGID_19_);}
	.st19{fill:url(#SVGID_20_);}
	.st20{fill:url(#SVGID_21_);}
	.st21{fill:url(#SVGID_22_);}
	.st22{fill:url(#SVGID_23_);}
	.st23{fill:url(#SVGID_24_);}
	.st24{fill:url(#SVGID_25_);}
	.st25{fill:url(#SVGID_26_);}
	.st26{fill:url(#SVGID_27_);}
	.st27{fill:url(#SVGID_28_);}
	.st28{fill:url(#SVGID_29_);}
	.st29{fill:url(#SVGID_30_);}
	.st30{fill:url(#SVGID_31_);}
	.st31{fill:url(#SVGID_32_);}
	.st32{fill:url(#SVGID_33_);}
	.st33{fill:url(#SVGID_34_);}
	.st34{fill:url(#SVGID_35_);}
	.st35{fill:url(#SVGID_36_);}
	.st36{fill:url(#SVGID_37_);}
	.st37{fill:url(#SVGID_38_);}
	.st38{fill:url(#SVGID_39_);}
	.st39{fill:url(#SVGID_40_);}
	.st40{fill:url(#SVGID_41_);}
	.st41{fill:url(#SVGID_42_);}
	.st42{fill:url(#SVGID_43_);}
	.st43{fill:url(#SVGID_44_);}
	.st44{fill:url(#SVGID_45_);}
	.st45{fill:url(#SVGID_46_);}
	.st46{fill:url(#SVGID_47_);}
	.st47{fill:url(#SVGID_48_);}
	.st48{fill:url(#SVGID_49_);}
	.st49{fill:url(#SVGID_50_);}
	.st50{fill:url(#SVGID_51_);}
	.st51{fill:url(#SVGID_52_);}
	.st52{fill:url(#SVGID_53_);}
	.st53{fill:url(#SVGID_54_);}
	.st54{fill:url(#SVGID_55_);}
	.st55{fill:url(#SVGID_56_);}
	.st56{fill:url(#SVGID_57_);}
	.st57{fill:url(#SVGID_58_);}
	.st58{fill:#8CC63D;}
	.st59{fill:#3888DA;}
	.st60{fill:url(#SVGID_59_);}
	.st61{fill:url(#SVGID_60_);}
	.st62{fill:url(#SVGID_61_);}
	.st63{fill:url(#SVGID_62_);}
	.st64{fill:url(#SVGID_63_);}
	.st65{fill:url(#SVGID_64_);}
	.st66{fill:none;}
	.st67{fill:#8CC1C1;}
	.st68{fill:#2A71B7;}
</style>
<g>
	<rect x="81.34" y="32.66" class="st66" width="137.32" height="160.22"/>
	<rect x="81.34" y="111.52" class="st67" width="137.28" height="20.2"/>
	<polygon class="st68" points="81.34,131.7 81.34,151.67 149.86,191.18 218.61,151.61 218.61,131.67 	"/>
	<path class="st68" d="M97.18,79.17V77.8c0-1.39-1.14-2.51-2.54-2.51c-1.39,0-2.52,1.13-2.52,2.53v13.34v17.13H81.46V72.19
		l42.2-24.45v60.54h-10.77V68.79c0-1.4-1.14-2.52-2.54-2.52c-1.39,0-2.51,1.14-2.51,2.53l-0.01,39.48H97.18V79.17z"/>
	<path class="st68" d="M160.82,38.86l26.53,15.48v18.63h-10.72V59.88c0-1.4-1.12-2.52-2.52-2.52c-1.39,0-2.51,0.86-2.51,2.26v38.95
		c0,1.4,1.12,2.52,2.52,2.52c1.39,0,2.52-1.13,2.52-2.53l-0.01-11.48h10.72v21.2h-26.54L160.82,38.86z"/>
	<path class="st68" d="M128.9,69.58l15.71-9.19v-9.93c-0.11-1.29-1.28-2.26-2.61-2.26c-1.39,0-2.52,1.13-2.52,2.53v5.18l-10.59,6.01
		V44.96l21.35-12.3l5.08,2.93v72.69H128.9V69.58z M144.61,98.94l0.01-25.38c0-1.39-1.23-2.51-2.62-2.51c-1.39,0-2.54,1.13-2.54,2.53
		v25.27c0,1.4,1.14,2.62,2.54,2.62C143.39,101.47,144.61,100.34,144.61,98.94L144.61,98.94z"/>
	<path class="st68" d="M192.72,57.35l25.95,14.96v35.97h-25.95V57.35z M208.33,99.33V78.12c0-1.4-1.25-2.51-2.64-2.51
		c-1.4,0-2.46,1.11-2.46,2.51v21.21c0,1.39,1.06,2.51,2.46,2.51C207.08,101.85,208.33,100.73,208.33,99.33L208.33,99.33z"/>
</g>
<g>
	<path class="st59" d="M82.32,251.78c-3.12-0.89-5.71-3.49-5.71-8.68c0-8.09,4.93-13.32,9.98-13.54l0.37-2.04h4.01l-0.33,2.23
		c2.93,0.82,5.56,3.41,5.56,8.68c0,8.09-4.41,13.32-9.87,13.69l-0.44,2.15h-4.01L82.32,251.78z M85.96,233.05
		c-2.89,0.26-4.93,5.93-4.93,10.2c0,2.67,0.7,4.53,1.93,5.01L85.96,233.05z M86.88,248.66c3-0.33,4.93-5.93,4.93-10.65
		c0-2.67-0.71-4.34-1.97-4.75L86.88,248.66z"/>
	<path class="st59" d="M102.25,235.27l0.19,8.83c0.04,1.71,0.07,2.97,0.04,4.3h0.07c0.41-1.52,0.78-2.71,1.37-4.64l2.63-8.49h4.67
		c-1.26,3.12-3.56,9.83-6.16,15.28c-1.96,4.15-3.3,6.42-5.75,8.68c-1.08,1-2.37,1.78-3.15,2.11l-1.85-3.78
		c0.82-0.41,1.67-0.89,2.41-1.48c1.04-0.85,2.08-1.97,2.49-2.97c0.11-0.22,0.15-0.45,0.11-0.78l-1.93-17.06H102.25z"/>
	<path class="st59" d="M107.84,260.53l3.67-19.29c0.41-2.15,0.71-4.19,0.96-5.97h3.97l-0.3,2.63h0.07c1.11-1.82,2.86-2.93,4.53-2.93
		c3.27,0,3.9,2.82,3.9,5.6c0,6.08-3.26,13.13-8.57,13.13c-0.82,0-1.71-0.15-2.22-0.45h-0.11l-1.34,7.27H107.84z M114.41,249.81
		c0.37,0.26,0.74,0.44,1.3,0.44c2.82,0,4.19-6.16,4.19-8.87c0-1.22-0.11-2.49-1.33-2.49c-1.19,0-2.45,1.89-2.89,4.08L114.41,249.81z
		"/>
	<path class="st59" d="M132.95,235.27l-1.37,7.01h3.78l1.37-7.01h4.64l-3.49,18.14h-4.64l1.45-7.6h-3.71l-1.45,7.6h-4.64l3.38-18.14
		H132.95z"/>
	<path class="st59" d="M148.99,235.27l-1.97,10.31c-0.19,1.11-0.33,2.04-0.33,2.89c0,0.89,0.33,1.45,1.11,1.45
		c1.19,0,2.37-1.56,2.89-4.15l1.93-10.5h4.64l-2.3,12.2c-0.44,2.15-0.7,4.19-0.93,5.93h-4.01l0.15-2.49h-0.07
		c-1.33,1.93-3,2.78-4.71,2.78c-2.41,0-3.45-1.82-3.45-4.19c0-1.15,0.19-2.37,0.45-3.75l1.97-10.5H148.99z"/>
	<path class="st59" d="M157.03,253.41l2.34-12.24c0.41-2.11,0.7-4.19,0.96-5.9h3.97l-0.19,2.49h0.07c1.22-1.86,2.89-2.78,4.93-2.78
		c1.74,0,2.78,1.19,3.04,2.78c1.19-1.71,2.93-2.78,4.97-2.78c2.26,0,3.34,1.59,3.34,3.93c0,0.78-0.19,2.19-0.45,3.67l-2.08,10.83
		h-4.56l2.04-10.76c0.19-1,0.3-1.89,0.3-2.71c0-0.74-0.37-1.26-1.11-1.26c-1,0-2.37,1.52-3.08,5.08l-1.86,9.64h-4.45l2.04-10.76
		c0.19-0.93,0.3-1.78,0.3-2.6c0-0.82-0.3-1.37-1.04-1.37c-0.93,0-2.45,1.67-3.08,5.08l-1.82,9.64H157.03z"/>
	<path class="st59" d="M187.16,235.27l0.19,8.83c0.04,1.71,0.07,2.97,0.04,4.3h0.07c0.41-1.52,0.78-2.71,1.37-4.64l2.63-8.49h4.67
		c-1.26,3.12-3.56,9.83-6.16,15.28c-1.97,4.15-3.3,6.42-5.75,8.68c-1.08,1-2.37,1.78-3.15,2.11l-1.86-3.78
		c0.82-0.41,1.67-0.89,2.41-1.48c1.04-0.85,2.08-1.97,2.49-2.97c0.11-0.22,0.15-0.45,0.11-0.78l-1.93-17.06H187.16z"/>
	<path class="st59" d="M192.75,260.53l3.67-19.29c0.41-2.15,0.7-4.19,0.96-5.97h3.97l-0.3,2.63h0.07c1.11-1.82,2.86-2.93,4.53-2.93
		c3.26,0,3.9,2.82,3.9,5.6c0,6.08-3.26,13.13-8.57,13.13c-0.82,0-1.71-0.15-2.23-0.45h-0.11l-1.34,7.27H192.75z M199.32,249.81
		c0.37,0.26,0.74,0.44,1.3,0.44c2.82,0,4.19-6.16,4.19-8.87c0-1.22-0.11-2.49-1.34-2.49c-1.19,0-2.45,1.89-2.89,4.08L199.32,249.81z
		"/>
	<path class="st59" d="M218.83,253.41c0.04-0.96,0.11-1.97,0.15-3.04h-0.11c-1.45,2.41-3.19,3.34-4.64,3.34
		c-2.63,0-3.93-2.26-3.93-5.45c0-5.49,2.75-13.28,10.53-13.28c1.82,0,3.64,0.3,4.75,0.74l-2,10.09c-0.44,2.11-0.78,5.64-0.74,7.6
		H218.83z M220.5,238.54c-0.37-0.07-0.7-0.11-0.96-0.11c-3.04,0-4.67,6.05-4.71,8.72c0,1.59,0.22,2.74,1.37,2.74
		c1.26,0,2.45-2.08,3.12-5.38L220.5,238.54z"/>
</g>
</svg>
